<svg xmlns="http://www.w3.org/2000/svg" stroke-linecap="round" stroke-linejoin="round" viewBox="-1 0 40.6 8">
  <g fill="none">
    <path stroke="#000" stroke-width="2.8" d="M0 6V3h2v2H0"/>
    <path stroke="#fff1e8" d="M0 6V3h2v2H0"/>
  </g>
  <g fill="none">
    <path stroke="#000" stroke-width="2.8" d="M4.8 3h2m-2 3h2m-1-3v3"/>
    <path stroke="#fff1e8" d="M4.8 3h2m-2 3h2m-1-3v3"/>
  </g>
  <g fill="none">
    <path stroke="#000" stroke-width="2.8" d="M11.6 3h-2v3h2"/>
    <path stroke="#fff1e8" d="M11.6 3h-2v3h2"/>
  </g>
  <g fill="none">
    <path stroke="#000" stroke-width="2.8" d="M14.4 3v3m0-1l2-2m-1 1l1 1v1"/>
    <path stroke="#fff1e8" d="M14.4 3v3m0-1l2-2m-1 1l1 1v1"/>
  </g>
  <g fill="none">
    <path stroke="#000" stroke-width="2.8" d="M19.2 6V3h1l1 1v2"/>
    <path stroke="#fff1e8" d="M19.2 6V3h1l1 1v2"/>
  </g>
  <g fill="none">
    <path stroke="#000" stroke-width="2.8" d="M24 6V3l1 1 1-1v3"/>
    <path stroke="#fff1e8" d="M24 6V3l1 1 1-1v3"/>
  </g>
  <g fill="none">
    <path stroke="#000" stroke-width="2.8" d="M28.8 3h2m-2 3h2m-1-3v3"/>
    <path stroke="#fff1e8" d="M28.8 3h2m-2 3h2m-1-3v3"/>
  </g>
  <g fill="none">
    <path stroke="#000" stroke-width="2.8" d="M33.6 3l2 2v1m0-3l-2 2v1"/>
    <path stroke="#fff1e8" d="M33.6 3l2 2v1m0-3l-2 2v1"/>
  </g>
</svg>

