<?xml version="1.0"?>
<!DOCTYPE svg PUBLIC "-//W3C//DTD SVG 1.1//EN" "http://www.w3.org/Graphics/SVG/1.1/DTD/svg11.dtd">
<svg viewBox="0 0 349 216" preserveAspectRatio="xMinYMin meet" version="1.1" xmlns="http://www.w3.org/2000/svg">
<g id="Axis">
<line x1="0" y1="214.5" x2="349" y2="214.5" stroke="#808080" stroke-opacity="1" stroke-width="1" stroke-linecap="round" fill="none" />
</g>
<g id="margin(w)">
<polyline stroke="#1472F0" stroke-opacity="0.6431373" stroke-linecap="round" stroke-linejoin="round" stroke-width="3" fill="none" points="0,214.5 0.34935,214.5 0.6987,214.5 1.048046,214.5 1.397396,214.5 1.746746,214.5 2.096096,214.5 2.445442,214.5 2.794792,214.5 3.144142,214.5 3.493492,214.5 3.842842,214.5 4.192188,214.5 4.541538,214.5 4.890888,214.5 5.240242,214.5 5.589592,214.5 5.938942,214.5 6.288292,214.5 6.637638,214.5 6.986988,214.5 7.336338,214.5 7.685688,214.5 8.035038,214.5 8.384384,214.5 8.733734,214.5 9.083084,214.5 9.432434,214.5 9.78178,214.5 10.13113,214.5 10.48048,214.5 10.82983,214.5 11.17918,214.5 11.52853,214.5 11.87788,214.5 12.22723,214.5 12.57658,214.5 12.92593,214.5 13.27527,214.5 13.62462,214.5 13.97397,214.5 14.32332,214.5 14.67267,214.5 15.02202,214.5 15.37137,214.5 15.72072,214.5 16.07007,214.5 16.41942,214.5 16.76877,214.5 17.11812,214.5 17.46747,214.5 17.81682,214.5 18.16616,214.5 18.51551,214.5 18.86486,214.5 19.21421,214.5 19.56356,214.5 19.91291,214.5 20.26226,214.5 20.61161,214.5 20.96096,214.5 21.31031,214.5 21.65966,214.5 22.00901,214.5 22.35836,214.5 22.70771,214.5 23.05706,214.5 23.40641,214.5 23.75576,214.5 24.10511,214.5 24.45445,214.5 24.8038,214.5 25.15316,214.5 25.50251,214.5 25.85186,214.5 26.20121,214.5 26.55056,214.5 26.8999,214.5 27.24925,214.5 27.5986,214.5 27.94795,214.5 28.2973,214.5 28.64665,214.5 28.996,214.5 29.34535,214.5 29.6947,214.5 30.04404,214.5 30.39339,214.5 30.74274,214.5 31.09209,214.5 31.44144,214.5 31.79079,214.5 32.14014,214.5 32.48949,214.5 32.83884,214.5 33.18818,214.5 33.53753,214.5 33.88688,214.5 34.23623,214.5 34.58558,214.5 34.93494,214.5 35.28429,214.5 35.63364,214.5 35.98298,214.5 36.33233,214.5 36.68168,214.5 37.03103,214.5 37.38038,214.5 37.72973,214.5 38.07908,214.5 38.42843,214.5 38.77778,214.5 39.12712,214.5 39.47647,214.5 39.82582,214.5 40.17517,214.5 40.52452,214.5 40.87387,214.5 41.22322,214.5 41.57257,214.5 41.92192,214.5 42.27127,214.5 42.62062,214.5 42.96997,214.5 43.31932,214.5 43.66867,214.5 44.01802,214.5 44.36737,214.5 44.71672,214.5 45.06607,214.5 45.41542,214.5 45.76477,214.5 46.11412,214.5 46.46347,214.5 46.81282,214.5 47.16217,214.5 47.51152,214.5 47.86086,214.5 48.21021,214.5 48.55956,214.5 48.90891,214.5 49.25826,214.5 49.60761,214.5 49.95696,214.4467 50.30631,214.2601 50.65566,214.0736 51.00501,213.887 51.35435,213.7005 51.70371,213.5139 52.05305,213.3273 52.40241,213.1408 52.75175,212.9542 53.10111,212.7676 53.45045,212.5811 53.7998,212.3945 54.14915,212.208 54.4985,212.0214 54.84784,211.8348 55.1972,211.6483 55.54654,211.4617 55.8959,211.2751 56.24524,211.0886 56.5946,210.902 56.94394,210.7155 57.29329,210.5289 57.64264,210.3423 57.99199,210.1558 58.34134,209.9692 58.69069,209.7827 59.04004,209.5961 59.38939,209.4095 59.73874,209.223 60.08809,209.0364 60.43744,208.8499 60.78679,208.6633 61.13614,208.4767 61.48549,208.2902 61.83484,208.1036 62.18419,207.917 62.53354,207.8438 62.88288,207.8438 63.23223,207.8438 63.58158,207.8438 63.93093,207.8438 64.28027,207.8438 64.62964,207.8438 64.97897,207.8438 65.32834,207.8438 65.67767,207.8438 66.02702,207.8438 66.37637,207.8438 66.72572,207.8438 67.07507,207.8438 67.42442,207.8438 67.77377,207.8438 68.12312,207.8438 68.47247,207.8438 68.82182,207.8438 69.17117,207.8438 69.52052,207.8438 69.86987,207.8438 70.21922,207.8438 70.56857,207.8438 70.91792,207.8438 71.26727,207.8438 71.61662,207.8438 71.96597,207.8438 72.31531,207.8438 72.66467,207.8438 73.01401,207.8438 73.36337,207.8438 73.71271,207.8438 74.06207,207.8438 74.41141,207.8438 74.76076,207.8438 75.11011,207.8438 75.45946,207.8438 75.80881,207.8438 76.15816,207.8438 76.50751,207.8438 76.85686,207.8438 77.20621,207.8438 77.55556,207.8438 77.90491,207.8438 78.25426,207.8438 78.60359,207.8438 78.95296,207.8438 79.30229,207.8438 79.65164,207.8438 80.00101,207.8438 80.35034,207.8438 80.69971,207.8438 81.04904,207.8438 81.39841,207.8438 81.74774,207.8438 82.09709,207.8438 82.44644,207.8438 82.79579,207.8438 83.14514,207.8438 83.49449,207.8438 83.84384,207.8438 84.19319,207.8438 84.54254,207.8438 84.89189,207.8438 85.24124,207.8438 85.59059,207.8438 85.93993,207.8438 86.28929,207.8438 86.63863,207.8438 86.98799,207.8438 87.33733,207.8438 87.68669,207.8438 88.03603,207.8438 88.38538,207.8438 88.73473,207.8438 89.08408,207.8438 89.43343,207.8438 89.78278,207.8438 90.13214,207.8438 90.48148,207.8438 90.83083,207.8438 91.18018,207.8438 91.52953,207.8438 91.87888,207.8438 92.22823,207.8438 92.57758,207.8438 92.92693,207.8438 93.27628,207.8438 93.62563,207.8438 93.97498,207.8438 94.32433,207.8438 94.67368,207.8438 95.02303,207.8438 95.37236,207.8438 95.72173,207.8438 96.07106,207.8438 96.42043,207.8438 96.76976,207.8438 97.11913,207.8438 97.46846,207.8438 97.81781,207.8438 98.16716,207.8438 98.51651,207.8438 98.86586,207.8438 99.21521,207.8438 99.56456,207.8438 99.91391,207.8438 100.2633,207.8438 100.6126,207.8438 100.962,207.8438 101.3113,207.8438 101.6607,207.8438 102.01,207.8438 102.3594,207.8438 102.7087,207.8438 103.0581,207.8438 103.4074,207.8438 103.7568,207.8438 104.1061,207.8438 104.4555,207.8438 104.8048,207.8438 105.1542,207.8438 105.5035,207.8438 105.8529,207.8438 106.2022,207.8438 106.5515,207.8438 106.9009,207.8438 107.2502,207.8438 107.5996,207.8438 107.9489,207.8438 108.2983,207.8438 108.6476,207.8438 108.997,207.8438 109.3463,207.8438 109.6957,207.8438 110.045,207.8438 110.3944,207.8438 110.7437,207.8438 111.0931,207.8438 111.4424,207.8438 111.7918,207.8438 112.1411,207.8438 112.4905,207.8438 112.8398,207.8438 113.1892,207.8438 113.5385,207.8438 113.8879,207.8438 114.2372,207.8438 114.5866,207.8438 114.9359,207.8438 115.2853,207.8438 115.6346,207.8438 115.984,207.8438 116.3333,207.8438 116.6827,207.8438 117.032,207.8438 117.3814,207.8438 117.7307,207.8438 118.0801,207.8438 118.4294,207.8438 118.7788,207.8438 119.1281,207.8438 119.4775,207.8438 119.8268,207.8438 120.1762,207.8438 120.5255,207.8438 120.8749,207.8438 121.2242,207.8438 121.5736,207.8438 121.9229,207.8438 122.2723,207.8438 122.6216,207.8438 122.971,207.8438 123.3203,207.8438 123.6697,207.8438 124.019,207.8438 124.3684,207.8438 124.7177,207.8438 125.0671,207.8438 125.4164,207.8438 125.7658,207.8438 126.1151,207.8438 126.4645,207.8438 126.8138,207.8438 127.1632,207.8438 127.5125,207.8438 127.8619,207.8438 128.2112,207.8438 128.5605,207.8438 128.9099,207.8438 129.2592,207.8438 129.6086,207.8438 129.958,207.8438 130.3073,207.8438 130.6567,207.8438 131.006,207.8438 131.3554,207.8438 131.7047,207.8438 132.0541,207.8438 132.4034,207.8438 132.7528,207.8438 133.1021,207.8438 133.4514,207.8438 133.8008,207.8438 134.1501,207.8438 134.4995,207.8438 134.8488,207.8438 135.1982,207.8438 135.5475,207.8438 135.8969,207.8438 136.2462,207.8438 136.5956,207.8438 136.9449,207.8438 137.2943,207.8438 137.6436,207.8438 137.993,207.8438 138.3423,207.8438 138.6917,207.8438 139.041,207.8438 139.3904,207.8438 139.7397,207.8438 140.0891,207.8438 140.4384,207.8438 140.7878,207.8438 141.1371,207.8438 141.4865,207.8438 141.8358,207.8438 142.1852,207.8438 142.5345,207.8438 142.8839,207.8438 143.2332,207.8438 143.5826,207.8438 143.9319,207.8438 144.2813,207.8438 144.6306,207.8438 144.98,207.8438 145.3293,207.8438 145.6787,207.8438 146.028,207.8438 146.3774,207.8438 146.7267,207.8438 147.0761,207.8438 147.4254,207.8438 147.7748,207.8438 148.1241,207.8438 148.4735,207.8438 148.8228,207.8438 149.1722,207.8438 149.5215,207.8438 149.8709,208.1636 150.2202,208.5367 150.5696,208.9098 150.9189,209.2829 151.2683,209.6561 151.6176,210.0292 151.967,210.4023 152.3163,210.7754 152.6657,211.1486 153.015,211.5217 153.3644,211.8948 153.7137,212.2679 154.0631,212.6411 154.4124,213.0142 154.7617,213.3873 155.1111,213.7604 155.4605,214.1335 155.8098,214.5 156.1591,214.5 156.5085,214.5 156.8579,214.5 157.2072,214.5 157.5565,214.5 157.9059,214.5 158.2553,214.5 158.6046,214.5 158.9539,214.5 159.3033,214.5 159.6526,214.5 160.002,214.5 160.3513,214.5 160.7007,214.5 161.05,214.5 161.3994,214.5 161.7487,214.5 162.0981,214.5 162.4474,214.5 162.7968,214.5 163.1461,214.5 163.4955,214.5 163.8448,214.5 164.1942,214.5 164.5435,214.5 164.8929,214.5 165.2422,214.5 165.5916,214.5 165.9409,214.5 166.2903,214.5 166.6396,214.5 166.989,214.5 167.3383,214.5 167.6877,214.5 168.037,214.5 168.3864,214.5 168.7357,214.5 169.0851,214.5 169.4344,214.5 169.7838,214.5 170.1331,214.5 170.4825,214.5 170.8318,214.5 171.1812,214.5 171.5305,214.5 171.8799,214.5 172.2292,214.5 172.5786,214.5 172.9279,214.5 173.2773,214.5 173.6266,214.5 173.976,214.5 174.3253,214.5 174.6747,214.5 175.024,214.5 175.3734,214.5 175.7227,214.5 176.0721,214.5 176.4214,214.5 176.7708,214.5 177.1201,214.5 177.4695,214.5 177.8188,214.5 178.1682,214.5 178.5175,214.5 178.8669,214.5 179.2162,214.5 179.5656,214.5 179.9149,214.5 180.2643,214.5 180.6136,214.5 180.963,214.5 181.3123,214.5 181.6617,214.5 182.011,214.5 182.3604,214.5 182.7097,214.5 183.0591,214.5 183.4084,214.5 183.7578,214.5 184.1071,214.5 184.4565,214.5 184.8058,214.5 185.1552,214.5 185.5045,214.5 185.8539,214.5 186.2032,214.5 186.5526,214.5 186.9019,214.5 187.2513,214.5 187.6006,214.5 187.9499,214.5 188.2993,214.5 188.6487,214.5 188.998,214.5 189.3473,214.5 189.6967,214.5 190.0461,214.5 190.3954,214.5 190.7447,214.5 191.0941,214.5 191.4435,214.5 191.7928,214.5 192.1421,214.5 192.4915,214.5 192.8408,214.5 193.1902,214.5 193.5395,214.5 193.8889,214.5 194.2382,214.5 194.5876,214.5 194.9369,214.5 195.2863,214.5 195.6356,214.5 195.985,214.5 196.3343,214.5 196.6837,214.5 197.033,214.5 197.3824,214.5 197.7317,214.5 198.0811,214.5 198.4304,214.5 198.7798,214.5 199.1291,214.5 199.4785,214.5 199.8278,214.5 200.1772,214.5 200.5265,214.5 200.8759,214.5 201.2252,214.5 201.5746,214.5 201.9239,214.5 202.2733,214.5 202.6226,214.5 202.972,214.5 203.3213,214.5 203.6707,214.5 204.02,214.5 204.3694,214.5 204.7187,214.5 205.0681,214.5 205.4174,214.5 205.7668,214.5 206.1161,214.5 206.4655,214.5 206.8148,214.5 207.1642,214.5 207.5135,214.5 207.8629,214.5 208.2122,214.5 208.5616,214.5 208.9109,214.5 209.2603,214.5 209.6096,214.5 209.959,214.5 210.3083,214.5 210.6577,214.5 211.007,214.5 211.3564,214.5 211.7057,214.5 212.0551,214.5 212.4044,214.5 212.7538,214.5 213.1031,214.5 213.4525,214.5 213.8018,214.5 214.1512,214.5 214.5005,214.5 214.8499,214.5 215.1992,214.5 215.5486,214.5 215.8979,214.5 216.2473,214.5 216.5966,214.5 216.946,214.5 217.2953,214.5 217.6447,214.5 217.994,214.5 218.3433,214.5 218.6927,214.5 219.0421,214.5 219.3914,214.5 219.7407,214.5 220.0901,214.5 220.4395,214.5 220.7888,214.5 221.1381,214.5 221.4875,214.5 221.8369,214.5 222.1862,214.5 222.5355,214.5 222.8849,214.5 223.2342,214.5 223.5836,214.5 223.9329,214.5 224.2823,214.5 224.6316,214.5 224.981,214.5 225.3303,214.5 225.6797,214.5 226.029,214.5 226.3784,214.5 226.7277,214.5 227.0771,214.5 227.4264,214.5 227.7758,214.5 228.1251,214.5 228.4745,214.5 228.8238,214.5 229.1732,214.5 229.5225,214.5 229.8719,214.5 230.2212,214.5 230.5706,214.5 230.9199,214.5 231.2693,214.5 231.6186,214.5 231.968,214.5 232.3173,214.5 232.6667,214.5 233.016,214.5 233.3654,214.5 233.7147,214.5 234.0641,214.5 234.4134,214.5 234.7628,214.5 235.1121,214.5 235.4615,214.5 235.8108,214.5 236.1602,214.5 236.5095,214.5 236.8589,214.5 237.2082,214.5 237.5576,214.5 237.9069,214.5 238.2563,214.5 238.6056,214.5 238.955,214.5 239.3043,214.5 239.6537,214.5 240.003,214.5 240.3524,214.5 240.7017,214.5 241.0511,214.5 241.4004,214.5 241.7498,214.5 242.0991,214.5 242.4485,214.5 242.7978,214.5 243.1472,214.5 243.4965,214.5 243.8459,214.5 244.1952,214.5 244.5445,214.5 244.8939,214.5 245.2433,214.5 245.5926,214.5 245.9419,214.5 246.2913,214.5 246.6407,214.5 246.99,214.5 247.3393,214.5 247.6887,214.5 248.0381,214.5 248.3874,214.5 248.7367,214.5 249.0861,214.5 249.4355,214.5 249.7848,214.5 250.1341,214.5 250.4835,214.5 250.8328,214.5 251.1822,214.5 251.5315,214.5 251.8809,214.5 252.2302,214.5 252.5796,214.5 252.9289,214.5 253.2783,214.5 253.6276,214.5 253.977,214.5 254.3263,214.5 254.6757,214.5 255.025,214.5 255.3744,214.5 255.7237,214.5 256.0731,214.5 256.4224,214.5 256.7718,214.5 257.1211,214.5 257.4705,214.5 257.8198,214.5 258.1692,214.5 258.5185,214.5 258.8679,214.5 259.2172,214.5 259.5666,214.5 259.9159,214.5 260.2653,214.5 260.6146,214.5 260.964,214.5 261.3133,214.5 261.6627,214.5 262.012,214.5 262.3614,214.5 262.7107,214.5 263.0601,214.5 263.4094,214.5 263.7588,214.5 264.1081,214.5 264.4575,214.5 264.8068,214.5 265.1562,214.5 265.5055,214.5 265.8549,214.5 266.2042,214.5 266.5536,214.5 266.9029,214.5 267.2522,214.5 267.6016,214.5 267.951,214.5 268.3003,214.5 268.6496,214.5 268.999,214.5 269.3484,214.5 269.6977,214.5 270.0471,214.5 270.3964,214.5 270.7458,214.5 271.0951,214.5 271.4445,214.5 271.7938,214.5 272.1431,214.5 272.4925,214.5 272.8419,214.5 273.1912,214.5 273.5405,214.5 273.8899,214.5 274.2393,214.5 274.5886,214.5 274.9379,214.5 275.2873,214.5 275.6367,214.5 275.986,214.5 276.3353,214.5 276.6847,214.5 277.034,214.5 277.3834,214.5 277.7327,214.5 278.0821,214.5 278.4314,214.5 278.7808,214.5 279.1301,214.5 279.4795,214.5 279.8288,214.5 280.1782,214.5 280.5275,214.5 280.8769,214.5 281.2262,214.5 281.5756,214.5 281.9249,214.5 282.2743,214.5 282.6236,214.5 282.973,214.5 283.3223,214.5 283.6717,214.5 284.021,214.5 284.3704,214.5 284.7197,214.5 285.0691,214.5 285.4184,214.5 285.7678,214.5 286.1171,214.5 286.4665,214.5 286.8158,214.5 287.1652,214.5 287.5145,214.5 287.8639,214.5 288.2132,214.5 288.5626,214.5 288.9119,214.5 289.2613,214.5 289.6106,214.5 289.96,214.5 290.3093,214.5 290.6587,214.5 291.008,214.5 291.3574,214.5 291.7067,214.5 292.0561,214.5 292.4054,214.5 292.7548,214.5 293.1041,214.5 293.4534,214.5 293.8028,214.5 294.1522,214.5 294.5015,214.5 294.8508,214.5 295.2002,214.5 295.5496,214.5 295.8989,214.5 296.2482,214.5 296.5976,214.5 296.947,214.5 297.2963,214.5 297.6456,214.5 297.995,214.5 298.3443,214.5 298.6937,214.5 299.043,214.5 299.3924,214.5 299.7417,214.5 300.0911,214.5 300.4405,214.5 300.7898,214.5 301.1391,214.5 301.4885,214.5 301.8379,214.5 302.1872,214.5 302.5365,214.5 302.8859,214.5 303.2352,214.5 303.5846,214.5 303.9339,214.5 304.2833,214.5 304.6326,214.5 304.982,214.5 305.3313,214.5 305.6807,214.5 306.03,214.5 306.3794,214.5 306.7287,214.5 307.0781,214.5 307.4274,214.5 307.7768,214.5 308.1261,214.5 308.4755,214.5 308.8248,214.5 309.1742,214.5 309.5235,214.5 309.8729,214.5 310.2222,214.5 310.5716,214.5 310.9209,214.5 311.2703,214.5 311.6196,214.5 311.969,214.5 312.3183,214.5 312.6677,214.5 313.017,214.5 313.3664,214.5 313.7157,214.5 314.0651,214.5 314.4144,214.5 314.7638,214.5 315.1131,214.5 315.4625,214.5 315.8118,214.5 316.1612,214.5 316.5105,214.5 316.8599,214.5 317.2092,214.5 317.5586,214.5 317.9079,214.5 318.2573,214.5 318.6066,214.5 318.956,214.5 319.3053,214.5 319.6547,214.5 320.004,214.5 320.3534,214.5 320.7027,214.5 321.052,214.5 321.4014,214.5 321.7508,214.5 322.1001,214.5 322.4494,214.5 322.7988,214.5 323.1482,214.5 323.4975,214.5 323.8468,214.5 324.1962,214.5 324.5456,214.5 324.8949,214.5 325.2442,214.5 325.5936,214.5 325.9429,214.5 326.2923,214.5 326.6416,214.5 326.991,214.5 327.3403,214.5 327.6897,214.5 328.039,214.5 328.3884,214.5 328.7377,214.5 329.0871,214.5 329.4365,214.5 329.7858,214.5 330.1351,214.5 330.4845,214.5 330.8338,214.5 331.1832,214.5 331.5325,214.5 331.8819,214.5 332.2312,214.5 332.5806,214.5 332.9299,214.5 333.2793,214.5 333.6286,214.5 333.978,214.5 334.3273,214.5 334.6767,214.5 335.026,214.5 335.3754,214.5 335.7247,214.5 336.0741,214.5 336.4234,214.5 336.7728,214.5 337.1221,214.5 337.4715,214.5 337.8208,214.5 338.1702,214.5 338.5195,214.5 338.8689,214.5 339.2182,214.5 339.5676,214.5 339.9169,214.5 340.2663,214.5 340.6156,214.5 340.965,214.5 341.3143,214.5 341.6637,214.5 342.013,214.5 342.3624,214.5 342.7117,214.5 343.0611,214.5 343.4104,214.5 343.7598,214.5 344.1091,214.5 344.4585,214.5 344.8078,214.5 345.1572,214.5 345.5065,214.5 345.8559,214.5 346.2052,214.5 346.5546,214.5 346.9039,214.5 347.2532,214.5 347.6026,214.5 347.952,214.5 348.3013,214.5 348.6506,214.5 349,214.5 " />
<polygon fill="url(#grad0)" stroke="none" points="0,214.5 0,214.5 0,214.5 0.34935,214.5 0.6987,214.5 1.048046,214.5 1.397396,214.5 1.746746,214.5 2.096096,214.5 2.445442,214.5 2.794792,214.5 3.144142,214.5 3.493492,214.5 3.842842,214.5 4.192188,214.5 4.541538,214.5 4.890888,214.5 5.240242,214.5 5.589592,214.5 5.938942,214.5 6.288292,214.5 6.637638,214.5 6.986988,214.5 7.336338,214.5 7.685688,214.5 8.035038,214.5 8.384384,214.5 8.733734,214.5 9.083084,214.5 9.432434,214.5 9.78178,214.5 10.13113,214.5 10.48048,214.5 10.82983,214.5 11.17918,214.5 11.52853,214.5 11.87788,214.5 12.22723,214.5 12.57658,214.5 12.92593,214.5 13.27527,214.5 13.62462,214.5 13.97397,214.5 14.32332,214.5 14.67267,214.5 15.02202,214.5 15.37137,214.5 15.72072,214.5 16.07007,214.5 16.41942,214.5 16.76877,214.5 17.11812,214.5 17.46747,214.5 17.81682,214.5 18.16616,214.5 18.51551,214.5 18.86486,214.5 19.21421,214.5 19.56356,214.5 19.91291,214.5 20.26226,214.5 20.61161,214.5 20.96096,214.5 21.31031,214.5 21.65966,214.5 22.00901,214.5 22.35836,214.5 22.70771,214.5 23.05706,214.5 23.40641,214.5 23.75576,214.5 24.10511,214.5 24.45445,214.5 24.8038,214.5 25.15316,214.5 25.50251,214.5 25.85186,214.5 26.20121,214.5 26.55056,214.5 26.8999,214.5 27.24925,214.5 27.5986,214.5 27.94795,214.5 28.2973,214.5 28.64665,214.5 28.996,214.5 29.34535,214.5 29.6947,214.5 30.04404,214.5 30.39339,214.5 30.74274,214.5 31.09209,214.5 31.44144,214.5 31.79079,214.5 32.14014,214.5 32.48949,214.5 32.83884,214.5 33.18818,214.5 33.53753,214.5 33.88688,214.5 34.23623,214.5 34.58558,214.5 34.93494,214.5 35.28429,214.5 35.63364,214.5 35.98298,214.5 36.33233,214.5 36.68168,214.5 37.03103,214.5 37.38038,214.5 37.72973,214.5 38.07908,214.5 38.42843,214.5 38.77778,214.5 39.12712,214.5 39.47647,214.5 39.82582,214.5 40.17517,214.5 40.52452,214.5 40.87387,214.5 41.22322,214.5 41.57257,214.5 41.92192,214.5 42.27127,214.5 42.62062,214.5 42.96997,214.5 43.31932,214.5 43.66867,214.5 44.01802,214.5 44.36737,214.5 44.71672,214.5 45.06607,214.5 45.41542,214.5 45.76477,214.5 46.11412,214.5 46.46347,214.5 46.81282,214.5 47.16217,214.5 47.51152,214.5 47.86086,214.5 48.21021,214.5 48.55956,214.5 48.90891,214.5 49.25826,214.5 49.60761,214.5 49.95696,214.4467 50.30631,214.2601 50.65566,214.0736 51.00501,213.887 51.35435,213.7005 51.70371,213.5139 52.05305,213.3273 52.40241,213.1408 52.75175,212.9542 53.10111,212.7676 53.45045,212.5811 53.7998,212.3945 54.14915,212.208 54.4985,212.0214 54.84784,211.8348 55.1972,211.6483 55.54654,211.4617 55.8959,211.2751 56.24524,211.0886 56.5946,210.902 56.94394,210.7155 57.29329,210.5289 57.64264,210.3423 57.99199,210.1558 58.34134,209.9692 58.69069,209.7827 59.04004,209.5961 59.38939,209.4095 59.73874,209.223 60.08809,209.0364 60.43744,208.8499 60.78679,208.6633 61.13614,208.4767 61.48549,208.2902 61.83484,208.1036 62.18419,207.917 62.53354,207.8438 62.88288,207.8438 63.23223,207.8438 63.58158,207.8438 63.93093,207.8438 64.28027,207.8438 64.62964,207.8438 64.97897,207.8438 65.32834,207.8438 65.67767,207.8438 66.02702,207.8438 66.37637,207.8438 66.72572,207.8438 67.07507,207.8438 67.42442,207.8438 67.77377,207.8438 68.12312,207.8438 68.47247,207.8438 68.82182,207.8438 69.17117,207.8438 69.52052,207.8438 69.86987,207.8438 70.21922,207.8438 70.56857,207.8438 70.91792,207.8438 71.26727,207.8438 71.61662,207.8438 71.96597,207.8438 72.31531,207.8438 72.66467,207.8438 73.01401,207.8438 73.36337,207.8438 73.71271,207.8438 74.06207,207.8438 74.41141,207.8438 74.76076,207.8438 75.11011,207.8438 75.45946,207.8438 75.80881,207.8438 76.15816,207.8438 76.50751,207.8438 76.85686,207.8438 77.20621,207.8438 77.55556,207.8438 77.90491,207.8438 78.25426,207.8438 78.60359,207.8438 78.95296,207.8438 79.30229,207.8438 79.65164,207.8438 80.00101,207.8438 80.35034,207.8438 80.69971,207.8438 81.04904,207.8438 81.39841,207.8438 81.74774,207.8438 82.09709,207.8438 82.44644,207.8438 82.79579,207.8438 83.14514,207.8438 83.49449,207.8438 83.84384,207.8438 84.19319,207.8438 84.54254,207.8438 84.89189,207.8438 85.24124,207.8438 85.59059,207.8438 85.93993,207.8438 86.28929,207.8438 86.63863,207.8438 86.98799,207.8438 87.33733,207.8438 87.68669,207.8438 88.03603,207.8438 88.38538,207.8438 88.73473,207.8438 89.08408,207.8438 89.43343,207.8438 89.78278,207.8438 90.13214,207.8438 90.48148,207.8438 90.83083,207.8438 91.18018,207.8438 91.52953,207.8438 91.87888,207.8438 92.22823,207.8438 92.57758,207.8438 92.92693,207.8438 93.27628,207.8438 93.62563,207.8438 93.97498,207.8438 94.32433,207.8438 94.67368,207.8438 95.02303,207.8438 95.37236,207.8438 95.72173,207.8438 96.07106,207.8438 96.42043,207.8438 96.76976,207.8438 97.11913,207.8438 97.46846,207.8438 97.81781,207.8438 98.16716,207.8438 98.51651,207.8438 98.86586,207.8438 99.21521,207.8438 99.56456,207.8438 99.91391,207.8438 100.2633,207.8438 100.6126,207.8438 100.962,207.8438 101.3113,207.8438 101.6607,207.8438 102.01,207.8438 102.3594,207.8438 102.7087,207.8438 103.0581,207.8438 103.4074,207.8438 103.7568,207.8438 104.1061,207.8438 104.4555,207.8438 104.8048,207.8438 105.1542,207.8438 105.5035,207.8438 105.8529,207.8438 106.2022,207.8438 106.5515,207.8438 106.9009,207.8438 107.2502,207.8438 107.5996,207.8438 107.9489,207.8438 108.2983,207.8438 108.6476,207.8438 108.997,207.8438 109.3463,207.8438 109.6957,207.8438 110.045,207.8438 110.3944,207.8438 110.7437,207.8438 111.0931,207.8438 111.4424,207.8438 111.7918,207.8438 112.1411,207.8438 112.4905,207.8438 112.8398,207.8438 113.1892,207.8438 113.5385,207.8438 113.8879,207.8438 114.2372,207.8438 114.5866,207.8438 114.9359,207.8438 115.2853,207.8438 115.6346,207.8438 115.984,207.8438 116.3333,207.8438 116.6827,207.8438 117.032,207.8438 117.3814,207.8438 117.7307,207.8438 118.0801,207.8438 118.4294,207.8438 118.7788,207.8438 119.1281,207.8438 119.4775,207.8438 119.8268,207.8438 120.1762,207.8438 120.5255,207.8438 120.8749,207.8438 121.2242,207.8438 121.5736,207.8438 121.9229,207.8438 122.2723,207.8438 122.6216,207.8438 122.971,207.8438 123.3203,207.8438 123.6697,207.8438 124.019,207.8438 124.3684,207.8438 124.7177,207.8438 125.0671,207.8438 125.4164,207.8438 125.7658,207.8438 126.1151,207.8438 126.4645,207.8438 126.8138,207.8438 127.1632,207.8438 127.5125,207.8438 127.8619,207.8438 128.2112,207.8438 128.5605,207.8438 128.9099,207.8438 129.2592,207.8438 129.6086,207.8438 129.958,207.8438 130.3073,207.8438 130.6567,207.8438 131.006,207.8438 131.3554,207.8438 131.7047,207.8438 132.0541,207.8438 132.4034,207.8438 132.7528,207.8438 133.1021,207.8438 133.4514,207.8438 133.8008,207.8438 134.1501,207.8438 134.4995,207.8438 134.8488,207.8438 135.1982,207.8438 135.5475,207.8438 135.8969,207.8438 136.2462,207.8438 136.5956,207.8438 136.9449,207.8438 137.2943,207.8438 137.6436,207.8438 137.993,207.8438 138.3423,207.8438 138.6917,207.8438 139.041,207.8438 139.3904,207.8438 139.7397,207.8438 140.0891,207.8438 140.4384,207.8438 140.7878,207.8438 141.1371,207.8438 141.4865,207.8438 141.8358,207.8438 142.1852,207.8438 142.5345,207.8438 142.8839,207.8438 143.2332,207.8438 143.5826,207.8438 143.9319,207.8438 144.2813,207.8438 144.6306,207.8438 144.98,207.8438 145.3293,207.8438 145.6787,207.8438 146.028,207.8438 146.3774,207.8438 146.7267,207.8438 147.0761,207.8438 147.4254,207.8438 147.7748,207.8438 148.1241,207.8438 148.4735,207.8438 148.8228,207.8438 149.1722,207.8438 149.5215,207.8438 149.8709,208.1636 150.2202,208.5367 150.5696,208.9098 150.9189,209.2829 151.2683,209.6561 151.6176,210.0292 151.967,210.4023 152.3163,210.7754 152.6657,211.1486 153.015,211.5217 153.3644,211.8948 153.7137,212.2679 154.0631,212.6411 154.4124,213.0142 154.7617,213.3873 155.1111,213.7604 155.4605,214.1335 155.8098,214.5 156.1591,214.5 156.5085,214.5 156.8579,214.5 157.2072,214.5 157.5565,214.5 157.9059,214.5 158.2553,214.5 158.6046,214.5 158.9539,214.5 159.3033,214.5 159.6526,214.5 160.002,214.5 160.3513,214.5 160.7007,214.5 161.05,214.5 161.3994,214.5 161.7487,214.5 162.0981,214.5 162.4474,214.5 162.7968,214.5 163.1461,214.5 163.4955,214.5 163.8448,214.5 164.1942,214.5 164.5435,214.5 164.8929,214.5 165.2422,214.5 165.5916,214.5 165.9409,214.5 166.2903,214.5 166.6396,214.5 166.989,214.5 167.3383,214.5 167.6877,214.5 168.037,214.5 168.3864,214.5 168.7357,214.5 169.0851,214.5 169.4344,214.5 169.7838,214.5 170.1331,214.5 170.4825,214.5 170.8318,214.5 171.1812,214.5 171.5305,214.5 171.8799,214.5 172.2292,214.5 172.5786,214.5 172.9279,214.5 173.2773,214.5 173.6266,214.5 173.976,214.5 174.3253,214.5 174.6747,214.5 175.024,214.5 175.3734,214.5 175.7227,214.5 176.0721,214.5 176.4214,214.5 176.7708,214.5 177.1201,214.5 177.4695,214.5 177.8188,214.5 178.1682,214.5 178.5175,214.5 178.8669,214.5 179.2162,214.5 179.5656,214.5 179.9149,214.5 180.2643,214.5 180.6136,214.5 180.963,214.5 181.3123,214.5 181.6617,214.5 182.011,214.5 182.3604,214.5 182.7097,214.5 183.0591,214.5 183.4084,214.5 183.7578,214.5 184.1071,214.5 184.4565,214.5 184.8058,214.5 185.1552,214.5 185.5045,214.5 185.8539,214.5 186.2032,214.5 186.5526,214.5 186.9019,214.5 187.2513,214.5 187.6006,214.5 187.9499,214.5 188.2993,214.5 188.6487,214.5 188.998,214.5 189.3473,214.5 189.6967,214.5 190.0461,214.5 190.3954,214.5 190.7447,214.5 191.0941,214.5 191.4435,214.5 191.7928,214.5 192.1421,214.5 192.4915,214.5 192.8408,214.5 193.1902,214.5 193.5395,214.5 193.8889,214.5 194.2382,214.5 194.5876,214.5 194.9369,214.5 195.2863,214.5 195.6356,214.5 195.985,214.5 196.3343,214.5 196.6837,214.5 197.033,214.5 197.3824,214.5 197.7317,214.5 198.0811,214.5 198.4304,214.5 198.7798,214.5 199.1291,214.5 199.4785,214.5 199.8278,214.5 200.1772,214.5 200.5265,214.5 200.8759,214.5 201.2252,214.5 201.5746,214.5 201.9239,214.5 202.2733,214.5 202.6226,214.5 202.972,214.5 203.3213,214.5 203.6707,214.5 204.02,214.5 204.3694,214.5 204.7187,214.5 205.0681,214.5 205.4174,214.5 205.7668,214.5 206.1161,214.5 206.4655,214.5 206.8148,214.5 207.1642,214.5 207.5135,214.5 207.8629,214.5 208.2122,214.5 208.5616,214.5 208.9109,214.5 209.2603,214.5 209.6096,214.5 209.959,214.5 210.3083,214.5 210.6577,214.5 211.007,214.5 211.3564,214.5 211.7057,214.5 212.0551,214.5 212.4044,214.5 212.7538,214.5 213.1031,214.5 213.4525,214.5 213.8018,214.5 214.1512,214.5 214.5005,214.5 214.8499,214.5 215.1992,214.5 215.5486,214.5 215.8979,214.5 216.2473,214.5 216.5966,214.5 216.946,214.5 217.2953,214.5 217.6447,214.5 217.994,214.5 218.3433,214.5 218.6927,214.5 219.0421,214.5 219.3914,214.5 219.7407,214.5 220.0901,214.5 220.4395,214.5 220.7888,214.5 221.1381,214.5 221.4875,214.5 221.8369,214.5 222.1862,214.5 222.5355,214.5 222.8849,214.5 223.2342,214.5 223.5836,214.5 223.9329,214.5 224.2823,214.5 224.6316,214.5 224.981,214.5 225.3303,214.5 225.6797,214.5 226.029,214.5 226.3784,214.5 226.7277,214.5 227.0771,214.5 227.4264,214.5 227.7758,214.5 228.1251,214.5 228.4745,214.5 228.8238,214.5 229.1732,214.5 229.5225,214.5 229.8719,214.5 230.2212,214.5 230.5706,214.5 230.9199,214.5 231.2693,214.5 231.6186,214.5 231.968,214.5 232.3173,214.5 232.6667,214.5 233.016,214.5 233.3654,214.5 233.7147,214.5 234.0641,214.5 234.4134,214.5 234.7628,214.5 235.1121,214.5 235.4615,214.5 235.8108,214.5 236.1602,214.5 236.5095,214.5 236.8589,214.5 237.2082,214.5 237.5576,214.5 237.9069,214.5 238.2563,214.5 238.6056,214.5 238.955,214.5 239.3043,214.5 239.6537,214.5 240.003,214.5 240.3524,214.5 240.7017,214.5 241.0511,214.5 241.4004,214.5 241.7498,214.5 242.0991,214.5 242.4485,214.5 242.7978,214.5 243.1472,214.5 243.4965,214.5 243.8459,214.5 244.1952,214.5 244.5445,214.5 244.8939,214.5 245.2433,214.5 245.5926,214.5 245.9419,214.5 246.2913,214.5 246.6407,214.5 246.99,214.5 247.3393,214.5 247.6887,214.5 248.0381,214.5 248.3874,214.5 248.7367,214.5 249.0861,214.5 249.4355,214.5 249.7848,214.5 250.1341,214.5 250.4835,214.5 250.8328,214.5 251.1822,214.5 251.5315,214.5 251.8809,214.5 252.2302,214.5 252.5796,214.5 252.9289,214.5 253.2783,214.5 253.6276,214.5 253.977,214.5 254.3263,214.5 254.6757,214.5 255.025,214.5 255.3744,214.5 255.7237,214.5 256.0731,214.5 256.4224,214.5 256.7718,214.5 257.1211,214.5 257.4705,214.5 257.8198,214.5 258.1692,214.5 258.5185,214.5 258.8679,214.5 259.2172,214.5 259.5666,214.5 259.9159,214.5 260.2653,214.5 260.6146,214.5 260.964,214.5 261.3133,214.5 261.6627,214.5 262.012,214.5 262.3614,214.5 262.7107,214.5 263.0601,214.5 263.4094,214.5 263.7588,214.5 264.1081,214.5 264.4575,214.5 264.8068,214.5 265.1562,214.5 265.5055,214.5 265.8549,214.5 266.2042,214.5 266.5536,214.5 266.9029,214.5 267.2522,214.5 267.6016,214.5 267.951,214.5 268.3003,214.5 268.6496,214.5 268.999,214.5 269.3484,214.5 269.6977,214.5 270.0471,214.5 270.3964,214.5 270.7458,214.5 271.0951,214.5 271.4445,214.5 271.7938,214.5 272.1431,214.5 272.4925,214.5 272.8419,214.5 273.1912,214.5 273.5405,214.5 273.8899,214.5 274.2393,214.5 274.5886,214.5 274.9379,214.5 275.2873,214.5 275.6367,214.5 275.986,214.5 276.3353,214.5 276.6847,214.5 277.034,214.5 277.3834,214.5 277.7327,214.5 278.0821,214.5 278.4314,214.5 278.7808,214.5 279.1301,214.5 279.4795,214.5 279.8288,214.5 280.1782,214.5 280.5275,214.5 280.8769,214.5 281.2262,214.5 281.5756,214.5 281.9249,214.5 282.2743,214.5 282.6236,214.5 282.973,214.5 283.3223,214.5 283.6717,214.5 284.021,214.5 284.3704,214.5 284.7197,214.5 285.0691,214.5 285.4184,214.5 285.7678,214.5 286.1171,214.5 286.4665,214.5 286.8158,214.5 287.1652,214.5 287.5145,214.5 287.8639,214.5 288.2132,214.5 288.5626,214.5 288.9119,214.5 289.2613,214.5 289.6106,214.5 289.96,214.5 290.3093,214.5 290.6587,214.5 291.008,214.5 291.3574,214.5 291.7067,214.5 292.0561,214.5 292.4054,214.5 292.7548,214.5 293.1041,214.5 293.4534,214.5 293.8028,214.5 294.1522,214.5 294.5015,214.5 294.8508,214.5 295.2002,214.5 295.5496,214.5 295.8989,214.5 296.2482,214.5 296.5976,214.5 296.947,214.5 297.2963,214.5 297.6456,214.5 297.995,214.5 298.3443,214.5 298.6937,214.5 299.043,214.5 299.3924,214.5 299.7417,214.5 300.0911,214.5 300.4405,214.5 300.7898,214.5 301.1391,214.5 301.4885,214.5 301.8379,214.5 302.1872,214.5 302.5365,214.5 302.8859,214.5 303.2352,214.5 303.5846,214.5 303.9339,214.5 304.2833,214.5 304.6326,214.5 304.982,214.5 305.3313,214.5 305.6807,214.5 306.03,214.5 306.3794,214.5 306.7287,214.5 307.0781,214.5 307.4274,214.5 307.7768,214.5 308.1261,214.5 308.4755,214.5 308.8248,214.5 309.1742,214.5 309.5235,214.5 309.8729,214.5 310.2222,214.5 310.5716,214.5 310.9209,214.5 311.2703,214.5 311.6196,214.5 311.969,214.5 312.3183,214.5 312.6677,214.5 313.017,214.5 313.3664,214.5 313.7157,214.5 314.0651,214.5 314.4144,214.5 314.7638,214.5 315.1131,214.5 315.4625,214.5 315.8118,214.5 316.1612,214.5 316.5105,214.5 316.8599,214.5 317.2092,214.5 317.5586,214.5 317.9079,214.5 318.2573,214.5 318.6066,214.5 318.956,214.5 319.3053,214.5 319.6547,214.5 320.004,214.5 320.3534,214.5 320.7027,214.5 321.052,214.5 321.4014,214.5 321.7508,214.5 322.1001,214.5 322.4494,214.5 322.7988,214.5 323.1482,214.5 323.4975,214.5 323.8468,214.5 324.1962,214.5 324.5456,214.5 324.8949,214.5 325.2442,214.5 325.5936,214.5 325.9429,214.5 326.2923,214.5 326.6416,214.5 326.991,214.5 327.3403,214.5 327.6897,214.5 328.039,214.5 328.3884,214.5 328.7377,214.5 329.0871,214.5 329.4365,214.5 329.7858,214.5 330.1351,214.5 330.4845,214.5 330.8338,214.5 331.1832,214.5 331.5325,214.5 331.8819,214.5 332.2312,214.5 332.5806,214.5 332.9299,214.5 333.2793,214.5 333.6286,214.5 333.978,214.5 334.3273,214.5 334.6767,214.5 335.026,214.5 335.3754,214.5 335.7247,214.5 336.0741,214.5 336.4234,214.5 336.7728,214.5 337.1221,214.5 337.4715,214.5 337.8208,214.5 338.1702,214.5 338.5195,214.5 338.8689,214.5 339.2182,214.5 339.5676,214.5 339.9169,214.5 340.2663,214.5 340.6156,214.5 340.965,214.5 341.3143,214.5 341.6637,214.5 342.013,214.5 342.3624,214.5 342.7117,214.5 343.0611,214.5 343.4104,214.5 343.7598,214.5 344.1091,214.5 344.4585,214.5 344.8078,214.5 345.1572,214.5 345.5065,214.5 345.8559,214.5 346.2052,214.5 346.5546,214.5 346.9039,214.5 347.2532,214.5 347.6026,214.5 347.952,214.5 348.3013,214.5 348.6506,214.5 349,214.5 349,214.5 " />
</g>
<g id="column(w)">
<polyline stroke="#9400D3" stroke-opacity="0.6431373" stroke-linecap="round" stroke-linejoin="round" stroke-width="3" fill="none" points="0,161.25 0.34935,160.8769 0.6987,160.5038 1.048046,160.1306 1.397396,159.7575 1.746746,159.3844 2.096096,159.0113 2.445442,158.6381 2.794792,158.265 3.144142,157.8919 3.493492,157.5188 3.842842,157.1456 4.192188,156.7725 4.541538,156.3994 4.890888,156.0263 5.240242,155.6532 5.589592,155.28 5.938942,154.9069 6.288292,154.5338 6.637638,154.1607 6.986988,153.7875 7.336338,153.4144 7.685688,153.0413 8.035038,152.6682 8.384384,152.295 8.733734,151.9219 9.083084,151.5488 9.432434,151.1757 9.78178,150.8026 10.13113,150.4294 10.48048,150.0563 10.82983,149.6832 11.17918,149.3101 11.52853,148.9369 11.87788,148.5638 12.22723,148.1907 12.57658,147.8176 12.92593,147.4444 13.27527,147.0713 13.62462,146.6982 13.97397,146.3251 14.32332,145.952 14.67267,145.5788 15.02202,145.2057 15.37137,144.8326 15.72072,144.4595 16.07007,144.0863 16.41942,143.7132 16.76877,143.3401 17.11812,142.967 17.46747,142.5938 17.81682,142.2207 18.16616,141.8476 18.51551,141.4745 18.86486,141.1013 19.21421,140.7282 19.56356,140.3551 19.91291,139.982 20.26226,139.6089 20.61161,139.2357 20.96096,138.8626 21.31031,138.4895 21.65966,138.1164 22.00901,137.7433 22.35836,137.3701 22.70771,136.997 23.05706,136.6239 23.40641,136.2508 23.75576,135.8776 24.10511,135.5045 24.45445,135.1314 24.8038,134.7583 25.15316,134.3851 25.50251,134.012 25.85186,133.6389 26.20121,133.2658 26.55056,132.8926 26.8999,132.5195 27.24925,132.1464 27.5986,131.7733 27.94795,131.4001 28.2973,131.027 28.64665,130.6539 28.996,130.2808 29.34535,129.9077 29.6947,129.5345 30.04404,129.1614 30.39339,128.7883 30.74274,128.4152 31.09209,128.0421 31.44144,127.6689 31.79079,127.2958 32.14014,126.9227 32.48949,126.5496 32.83884,126.1764 33.18818,125.8033 33.53753,125.4302 33.88688,125.0571 34.23623,124.6839 34.58558,124.3108 34.93494,123.9377 35.28429,123.5646 35.63364,123.1914 35.98298,122.8183 36.33233,122.4452 36.68168,122.0721 37.03103,121.6989 37.38038,121.3258 37.72973,120.9527 38.07908,120.5796 38.42843,120.2065 38.77778,119.8333 39.12712,119.4602 39.47647,119.0871 39.82582,118.714 40.17517,118.3408 40.52452,117.9677 40.87387,117.5946 41.22322,117.2215 41.57257,116.8484 41.92192,116.4752 42.27127,116.1021 42.62062,115.729 42.96997,115.3559 43.31932,114.9827 43.66867,114.6096 44.01802,114.2365 44.36737,113.8634 44.71672,113.4902 45.06607,113.1171 45.41542,112.744 45.76477,112.3709 46.11412,111.9977 46.46347,111.6246 46.81282,111.2515 47.16217,110.8784 47.51152,110.5053 47.86086,110.1321 48.21021,109.759 48.55956,109.3859 48.90891,109.0128 49.25826,108.6396 49.60761,108.2665 49.95696,108 50.30631,108 50.65566,108 51.00501,108 51.35435,108 51.70371,108 52.05305,108 52.40241,108 52.75175,108 53.10111,108 53.45045,108 53.7998,108 54.14915,108 54.4985,108 54.84784,108 55.1972,108 55.54654,108 55.8959,108 56.24524,108 56.5946,108 56.94394,108 57.29329,108 57.64264,108 57.99199,108 58.34134,108 58.69069,108 59.04004,108 59.38939,108 59.73874,108 60.08809,108 60.43744,108 60.78679,108 61.13614,108 61.48549,108 61.83484,108 62.18419,108 62.53354,107.7735 62.88288,107.4003 63.23223,107.0272 63.58158,106.6541 63.93093,106.281 64.28027,105.9078 64.62964,105.5347 64.97897,105.1616 65.32834,104.7885 65.67767,104.4154 66.02702,104.0422 66.37637,103.6691 66.72572,103.296 67.07507,102.9229 67.42442,102.5497 67.77377,102.1766 68.12312,101.8035 68.47247,101.4304 68.82182,101.0572 69.17117,100.6841 69.52052,100.311 69.86987,99.93787 70.21922,99.56475 70.56857,99.19162 70.91792,98.8185 71.26727,98.44538 71.61662,98.07226 71.96597,97.69913 72.31531,97.32601 72.66467,96.95289 73.01401,96.57977 73.36337,96.20664 73.71271,95.83353 74.06207,95.4604 74.41141,95.08728 74.76076,94.71415 75.11011,94.34103 75.45946,93.9679 75.80881,93.59479 76.15816,93.22166 76.50751,92.84854 76.85686,92.47541 77.20621,92.10229 77.55556,91.72916 77.90491,91.35605 78.25426,90.98292 78.60359,90.6098 78.95296,90.23667 79.30229,89.86356 79.65164,89.49043 80.00101,89.1173 80.35034,88.74418 80.69971,88.37106 81.04904,87.99794 81.39841,87.62481 81.74774,87.25169 82.09709,86.87856 82.44644,86.50545 82.79579,86.13231 83.14514,85.7592 83.49449,85.38606 83.84384,85.01295 84.19319,84.63982 84.54254,84.26671 84.89189,83.89359 85.24124,83.52046 85.59059,83.14734 85.93993,82.77422 86.28929,82.40109 86.63863,82.02797 86.98799,81.65485 87.33733,81.28172 87.68669,80.9086 88.03603,80.53548 88.38538,80.16235 88.73473,79.78923 89.08408,79.41611 89.43343,79.04298 89.78278,78.66986 90.13214,78.29672 90.48148,77.92361 90.83083,77.55048 91.18018,77.17737 91.52953,76.80423 91.87888,76.43112 92.22823,76.05798 92.57758,75.68488 92.92693,75.31175 93.27628,74.93863 93.62563,74.56551 93.97498,74.19238 94.32433,73.81926 94.67368,73.44614 95.02303,73.07301 95.37236,72.69989 95.72173,72.32677 96.07106,71.95364 96.42043,71.58052 96.76976,71.2074 97.11913,70.83427 97.46846,70.46115 97.81781,70.08803 98.16716,69.7149 98.51651,69.34178 98.86586,68.96866 99.21521,68.59554 99.56456,68.22241 99.91391,67.84929 100.2633,67.47615 100.6126,67.10304 100.962,66.72992 101.3113,66.3568 101.6607,65.98367 102.01,65.61055 102.3594,65.23743 102.7087,64.8643 103.0581,64.49118 103.4074,64.11806 103.7568,63.74493 104.1061,63.37181 104.4555,62.99869 104.8048,62.62556 105.1542,62.25244 105.5035,61.87932 105.8529,61.5062 106.2022,61.13307 106.5515,60.75995 106.9009,60.38683 107.2502,60.0137 107.5996,59.64058 107.9489,59.26746 108.2983,58.89433 108.6476,58.52121 108.997,58.14809 109.3463,57.77496 109.6957,57.40184 110.045,57.02872 110.3944,56.65559 110.7437,56.28247 111.0931,55.90935 111.4424,55.53622 111.7918,55.1631 112.1411,54.78998 112.4905,54.41685 112.8398,54.04373 113.1892,53.67061 113.5385,53.29749 113.8879,52.92436 114.2372,52.55124 114.5866,52.17812 114.9359,51.80499 115.2853,51.43187 115.6346,51.05875 115.984,50.68562 116.3333,50.3125 116.6827,49.93938 117.032,49.56625 117.3814,49.19313 117.7307,48.82001 118.0801,48.44688 118.4294,48.07376 118.7788,47.70064 119.1281,47.32751 119.4775,46.95439 119.8268,46.58127 120.1762,46.20815 120.5255,45.83502 120.8749,45.4619 121.2242,45.08878 121.5736,44.71565 121.9229,44.34253 122.2723,43.96941 122.6216,43.59628 122.971,43.22316 123.3203,42.85004 123.6697,42.47691 124.019,42.10379 124.3684,41.73067 124.7177,41.35754 125.0671,40.98442 125.4164,40.6113 125.7658,40.23817 126.1151,39.86505 126.4645,39.49193 126.8138,39.1188 127.1632,38.74568 127.5125,38.37256 127.8619,37.99944 128.2112,37.62631 128.5605,37.25319 128.9099,36.88007 129.2592,36.50696 129.6086,36.13382 129.958,35.7607 130.3073,35.38757 130.6567,35.01445 131.006,34.64133 131.3554,34.2682 131.7047,33.89508 132.0541,33.52196 132.4034,33.14883 132.7528,32.77571 133.1021,32.40259 133.4514,32.02946 133.8008,31.65634 134.1501,31.28322 134.4995,30.9101 134.8488,30.53697 135.1982,30.16385 135.5475,29.79073 135.8969,29.4176 136.2462,29.04448 136.5956,28.67136 136.9449,28.29823 137.2943,27.92511 137.6436,27.55199 137.993,27.17888 138.3423,26.80574 138.6917,26.43263 139.041,26.05949 139.3904,25.68639 139.7397,25.31325 140.0891,24.94012 140.4384,24.567 140.7878,24.19388 141.1371,23.82076 141.4865,23.44763 141.8358,23.07451 142.1852,22.70139 142.5345,22.32826 142.8839,21.95514 143.2332,21.58202 143.5826,21.20889 143.9319,20.83577 144.2813,20.46265 144.6306,20.08952 144.98,19.7164 145.3293,19.34328 145.6787,18.97015 146.028,18.59705 146.3774,18.22391 146.7267,17.8508 147.0761,17.47766 147.4254,17.10455 147.7748,16.73141 148.1241,16.35831 148.4735,15.98517 148.8228,15.61206 149.1722,15.23892 149.5215,14.86581 149.8709,13.85304 150.2202,12.73367 150.5696,11.6143 150.9189,10.49493 151.2683,9.375565 151.6176,8.256195 151.967,7.136826 152.3163,6.017456 152.6657,4.898087 153.015,3.778717 153.3644,2.659348 153.7137,1.539978 154.0631,1.5 154.4124,1.5 154.7617,1.5 155.1111,1.5 155.4605,1.5 155.8098,1.5 156.1591,1.5 156.5085,1.5 156.8579,1.5 157.2072,1.5 157.5565,1.5 157.9059,1.5 158.2553,1.5 158.6046,1.5 158.9539,1.5 159.3033,1.5 159.6526,1.5 160.002,1.5 160.3513,1.5 160.7007,1.5 161.05,1.5 161.3994,1.5 161.7487,1.5 162.0981,1.5 162.4474,1.5 162.7968,1.5 163.1461,1.5 163.4955,1.5 163.8448,1.5 164.1942,1.5 164.5435,1.5 164.8929,1.5 165.2422,1.5 165.5916,1.5 165.9409,1.5 166.2903,1.5 166.6396,1.5 166.989,1.5 167.3383,1.5 167.6877,1.5 168.037,1.5 168.3864,1.5 168.7357,1.5 169.0851,1.5 169.4344,1.5 169.7838,1.5 170.1331,1.5 170.4825,1.5 170.8318,1.5 171.1812,1.5 171.5305,1.5 171.8799,1.5 172.2292,1.5 172.5786,1.5 172.9279,1.5 173.2773,1.5 173.6266,1.5 173.976,1.5 174.3253,1.5 174.6747,1.5 175.024,1.5 175.3734,1.5 175.7227,1.5 176.0721,1.5 176.4214,1.5 176.7708,1.5 177.1201,1.5 177.4695,1.5 177.8188,1.5 178.1682,1.5 178.5175,1.5 178.8669,1.5 179.2162,1.5 179.5656,1.5 179.9149,1.5 180.2643,1.5 180.6136,1.5 180.963,1.5 181.3123,1.5 181.6617,1.5 182.011,1.5 182.3604,1.5 182.7097,1.5 183.0591,1.5 183.4084,1.5 183.7578,1.5 184.1071,1.5 184.4565,1.5 184.8058,1.5 185.1552,1.5 185.5045,1.5 185.8539,1.5 186.2032,1.5 186.5526,1.5 186.9019,1.5 187.2513,1.5 187.6006,1.5 187.9499,1.5 188.2993,1.5 188.6487,1.5 188.998,1.5 189.3473,1.5 189.6967,1.5 190.0461,1.5 190.3954,1.5 190.7447,1.5 191.0941,1.5 191.4435,1.5 191.7928,1.5 192.1421,1.5 192.4915,1.5 192.8408,1.5 193.1902,1.5 193.5395,1.5 193.8889,1.5 194.2382,1.5 194.5876,1.5 194.9369,1.5 195.2863,1.5 195.6356,1.5 195.985,1.5 196.3343,1.5 196.6837,1.5 197.033,1.5 197.3824,1.5 197.7317,1.5 198.0811,1.5 198.4304,1.5 198.7798,1.5 199.1291,1.5 199.4785,1.5 199.8278,1.5 200.1772,1.5 200.5265,1.5 200.8759,1.5 201.2252,1.5 201.5746,1.5 201.9239,1.5 202.2733,1.5 202.6226,1.5 202.972,1.5 203.3213,1.5 203.6707,1.5 204.02,1.5 204.3694,1.5 204.7187,1.5 205.0681,1.5 205.4174,1.5 205.7668,1.5 206.1161,1.5 206.4655,1.5 206.8148,1.5 207.1642,1.5 207.5135,1.5 207.8629,1.5 208.2122,1.5 208.5616,1.5 208.9109,1.5 209.2603,1.5 209.6096,1.5 209.959,1.5 210.3083,1.5 210.6577,1.5 211.007,1.5 211.3564,1.5 211.7057,1.5 212.0551,1.5 212.4044,1.5 212.7538,1.5 213.1031,1.5 213.4525,1.5 213.8018,1.5 214.1512,1.5 214.5005,1.5 214.8499,1.5 215.1992,1.5 215.5486,1.5 215.8979,1.5 216.2473,1.5 216.5966,1.5 216.946,1.5 217.2953,1.5 217.6447,1.5 217.994,1.5 218.3433,1.5 218.6927,1.5 219.0421,1.5 219.3914,1.5 219.7407,1.5 220.0901,1.5 220.4395,1.5 220.7888,1.5 221.1381,1.5 221.4875,1.5 221.8369,1.5 222.1862,1.5 222.5355,1.5 222.8849,1.5 223.2342,1.5 223.5836,1.5 223.9329,1.5 224.2823,1.5 224.6316,1.5 224.981,1.5 225.3303,1.5 225.6797,1.5 226.029,1.5 226.3784,1.5 226.7277,1.5 227.0771,1.5 227.4264,1.5 227.7758,1.5 228.1251,1.5 228.4745,1.5 228.8238,1.5 229.1732,1.5 229.5225,1.5 229.8719,1.5 230.2212,1.5 230.5706,1.5 230.9199,1.5 231.2693,1.5 231.6186,1.5 231.968,1.5 232.3173,1.5 232.6667,1.5 233.016,1.5 233.3654,1.5 233.7147,1.5 234.0641,1.5 234.4134,1.5 234.7628,1.5 235.1121,1.5 235.4615,1.5 235.8108,1.5 236.1602,1.5 236.5095,1.5 236.8589,1.5 237.2082,1.5 237.5576,1.5 237.9069,1.5 238.2563,1.5 238.6056,1.5 238.955,1.5 239.3043,1.5 239.6537,1.5 240.003,1.5 240.3524,1.5 240.7017,1.5 241.0511,1.5 241.4004,1.5 241.7498,1.5 242.0991,1.5 242.4485,1.5 242.7978,1.5 243.1472,1.5 243.4965,1.5 243.8459,1.5 244.1952,1.5 244.5445,1.5 244.8939,1.5 245.2433,1.5 245.5926,1.5 245.9419,1.5 246.2913,1.5 246.6407,1.5 246.99,1.5 247.3393,1.5 247.6887,1.5 248.0381,1.5 248.3874,1.5 248.7367,1.5 249.0861,1.5 249.4355,1.5 249.7848,1.5 250.1341,1.5 250.4835,1.5 250.8328,1.5 251.1822,1.5 251.5315,1.5 251.8809,1.5 252.2302,1.5 252.5796,1.5 252.9289,1.5 253.2783,1.5 253.6276,1.5 253.977,1.5 254.3263,1.5 254.6757,1.5 255.025,1.5 255.3744,1.5 255.7237,1.5 256.0731,1.5 256.4224,1.5 256.7718,1.5 257.1211,1.5 257.4705,1.5 257.8198,1.5 258.1692,1.5 258.5185,1.5 258.8679,1.5 259.2172,1.5 259.5666,1.5 259.9159,1.5 260.2653,1.5 260.6146,1.5 260.964,1.5 261.3133,1.5 261.6627,1.5 262.012,1.5 262.3614,1.5 262.7107,1.5 263.0601,1.5 263.4094,1.5 263.7588,1.5 264.1081,1.5 264.4575,1.5 264.8068,1.5 265.1562,1.5 265.5055,1.5 265.8549,1.5 266.2042,1.5 266.5536,1.5 266.9029,1.5 267.2522,1.5 267.6016,1.5 267.951,1.5 268.3003,1.5 268.6496,1.5 268.999,1.5 269.3484,1.5 269.6977,1.5 270.0471,1.5 270.3964,1.5 270.7458,1.5 271.0951,1.5 271.4445,1.5 271.7938,1.5 272.1431,1.5 272.4925,1.5 272.8419,1.5 273.1912,1.5 273.5405,1.5 273.8899,1.5 274.2393,1.5 274.5886,1.5 274.9379,1.5 275.2873,1.5 275.6367,1.5 275.986,1.5 276.3353,1.5 276.6847,1.5 277.034,1.5 277.3834,1.5 277.7327,1.5 278.0821,1.5 278.4314,1.5 278.7808,1.5 279.1301,1.5 279.4795,1.5 279.8288,1.5 280.1782,1.5 280.5275,1.5 280.8769,1.5 281.2262,1.5 281.5756,1.5 281.9249,1.5 282.2743,1.5 282.6236,1.5 282.973,1.5 283.3223,1.5 283.6717,1.5 284.021,1.5 284.3704,1.5 284.7197,1.5 285.0691,1.5 285.4184,1.5 285.7678,1.5 286.1171,1.5 286.4665,1.5 286.8158,1.5 287.1652,1.5 287.5145,1.5 287.8639,1.5 288.2132,1.5 288.5626,1.5 288.9119,1.5 289.2613,1.5 289.6106,1.5 289.96,1.5 290.3093,1.5 290.6587,1.5 291.008,1.5 291.3574,1.5 291.7067,1.5 292.0561,1.5 292.4054,1.5 292.7548,1.5 293.1041,1.5 293.4534,1.5 293.8028,1.5 294.1522,1.5 294.5015,1.5 294.8508,1.5 295.2002,1.5 295.5496,1.5 295.8989,1.5 296.2482,1.5 296.5976,1.5 296.947,1.5 297.2963,1.5 297.6456,1.5 297.995,1.5 298.3443,1.5 298.6937,1.5 299.043,1.5 299.3924,1.5 299.7417,1.5 300.0911,1.5 300.4405,1.5 300.7898,1.5 301.1391,1.5 301.4885,1.5 301.8379,1.5 302.1872,1.5 302.5365,1.5 302.8859,1.5 303.2352,1.5 303.5846,1.5 303.9339,1.5 304.2833,1.5 304.6326,1.5 304.982,1.5 305.3313,1.5 305.6807,1.5 306.03,1.5 306.3794,1.5 306.7287,1.5 307.0781,1.5 307.4274,1.5 307.7768,1.5 308.1261,1.5 308.4755,1.5 308.8248,1.5 309.1742,1.5 309.5235,1.5 309.8729,1.5 310.2222,1.5 310.5716,1.5 310.9209,1.5 311.2703,1.5 311.6196,1.5 311.969,1.5 312.3183,1.5 312.6677,1.5 313.017,1.5 313.3664,1.5 313.7157,1.5 314.0651,1.5 314.4144,1.5 314.7638,1.5 315.1131,1.5 315.4625,1.5 315.8118,1.5 316.1612,1.5 316.5105,1.5 316.8599,1.5 317.2092,1.5 317.5586,1.5 317.9079,1.5 318.2573,1.5 318.6066,1.5 318.956,1.5 319.3053,1.5 319.6547,1.5 320.004,1.5 320.3534,1.5 320.7027,1.5 321.052,1.5 321.4014,1.5 321.7508,1.5 322.1001,1.5 322.4494,1.5 322.7988,1.5 323.1482,1.5 323.4975,1.5 323.8468,1.5 324.1962,1.5 324.5456,1.5 324.8949,1.5 325.2442,1.5 325.5936,1.5 325.9429,1.5 326.2923,1.5 326.6416,1.5 326.991,1.5 327.3403,1.5 327.6897,1.5 328.039,1.5 328.3884,1.5 328.7377,1.5 329.0871,1.5 329.4365,1.5 329.7858,1.5 330.1351,1.5 330.4845,1.5 330.8338,1.5 331.1832,1.5 331.5325,1.5 331.8819,1.5 332.2312,1.5 332.5806,1.5 332.9299,1.5 333.2793,1.5 333.6286,1.5 333.978,1.5 334.3273,1.5 334.6767,1.5 335.026,1.5 335.3754,1.5 335.7247,1.5 336.0741,1.5 336.4234,1.5 336.7728,1.5 337.1221,1.5 337.4715,1.5 337.8208,1.5 338.1702,1.5 338.5195,1.5 338.8689,1.5 339.2182,1.5 339.5676,1.5 339.9169,1.5 340.2663,1.5 340.6156,1.5 340.965,1.5 341.3143,1.5 341.6637,1.5 342.013,1.5 342.3624,1.5 342.7117,1.5 343.0611,1.5 343.4104,1.5 343.7598,1.5 344.1091,1.5 344.4585,1.5 344.8078,1.5 345.1572,1.5 345.5065,1.5 345.8559,1.5 346.2052,1.5 346.5546,1.5 346.9039,1.5 347.2532,1.5 347.6026,1.5 347.952,1.5 348.3013,1.5 348.6506,1.5 349,1.5 " />
<polygon fill="url(#grad1)" stroke="none" points="0,214.5 0,161.25 0,161.25 0.34935,160.8769 0.6987,160.5038 1.048046,160.1306 1.397396,159.7575 1.746746,159.3844 2.096096,159.0113 2.445442,158.6381 2.794792,158.265 3.144142,157.8919 3.493492,157.5188 3.842842,157.1456 4.192188,156.7725 4.541538,156.3994 4.890888,156.0263 5.240242,155.6532 5.589592,155.28 5.938942,154.9069 6.288292,154.5338 6.637638,154.1607 6.986988,153.7875 7.336338,153.4144 7.685688,153.0413 8.035038,152.6682 8.384384,152.295 8.733734,151.9219 9.083084,151.5488 9.432434,151.1757 9.78178,150.8026 10.13113,150.4294 10.48048,150.0563 10.82983,149.6832 11.17918,149.3101 11.52853,148.9369 11.87788,148.5638 12.22723,148.1907 12.57658,147.8176 12.92593,147.4444 13.27527,147.0713 13.62462,146.6982 13.97397,146.3251 14.32332,145.952 14.67267,145.5788 15.02202,145.2057 15.37137,144.8326 15.72072,144.4595 16.07007,144.0863 16.41942,143.7132 16.76877,143.3401 17.11812,142.967 17.46747,142.5938 17.81682,142.2207 18.16616,141.8476 18.51551,141.4745 18.86486,141.1013 19.21421,140.7282 19.56356,140.3551 19.91291,139.982 20.26226,139.6089 20.61161,139.2357 20.96096,138.8626 21.31031,138.4895 21.65966,138.1164 22.00901,137.7433 22.35836,137.3701 22.70771,136.997 23.05706,136.6239 23.40641,136.2508 23.75576,135.8776 24.10511,135.5045 24.45445,135.1314 24.8038,134.7583 25.15316,134.3851 25.50251,134.012 25.85186,133.6389 26.20121,133.2658 26.55056,132.8926 26.8999,132.5195 27.24925,132.1464 27.5986,131.7733 27.94795,131.4001 28.2973,131.027 28.64665,130.6539 28.996,130.2808 29.34535,129.9077 29.6947,129.5345 30.04404,129.1614 30.39339,128.7883 30.74274,128.4152 31.09209,128.0421 31.44144,127.6689 31.79079,127.2958 32.14014,126.9227 32.48949,126.5496 32.83884,126.1764 33.18818,125.8033 33.53753,125.4302 33.88688,125.0571 34.23623,124.6839 34.58558,124.3108 34.93494,123.9377 35.28429,123.5646 35.63364,123.1914 35.98298,122.8183 36.33233,122.4452 36.68168,122.0721 37.03103,121.6989 37.38038,121.3258 37.72973,120.9527 38.07908,120.5796 38.42843,120.2065 38.77778,119.8333 39.12712,119.4602 39.47647,119.0871 39.82582,118.714 40.17517,118.3408 40.52452,117.9677 40.87387,117.5946 41.22322,117.2215 41.57257,116.8484 41.92192,116.4752 42.27127,116.1021 42.62062,115.729 42.96997,115.3559 43.31932,114.9827 43.66867,114.6096 44.01802,114.2365 44.36737,113.8634 44.71672,113.4902 45.06607,113.1171 45.41542,112.744 45.76477,112.3709 46.11412,111.9977 46.46347,111.6246 46.81282,111.2515 47.16217,110.8784 47.51152,110.5053 47.86086,110.1321 48.21021,109.759 48.55956,109.3859 48.90891,109.0128 49.25826,108.6396 49.60761,108.2665 49.95696,108 50.30631,108 50.65566,108 51.00501,108 51.35435,108 51.70371,108 52.05305,108 52.40241,108 52.75175,108 53.10111,108 53.45045,108 53.7998,108 54.14915,108 54.4985,108 54.84784,108 55.1972,108 55.54654,108 55.8959,108 56.24524,108 56.5946,108 56.94394,108 57.29329,108 57.64264,108 57.99199,108 58.34134,108 58.69069,108 59.04004,108 59.38939,108 59.73874,108 60.08809,108 60.43744,108 60.78679,108 61.13614,108 61.48549,108 61.83484,108 62.18419,108 62.53354,107.7735 62.88288,107.4003 63.23223,107.0272 63.58158,106.6541 63.93093,106.281 64.28027,105.9078 64.62964,105.5347 64.97897,105.1616 65.32834,104.7885 65.67767,104.4154 66.02702,104.0422 66.37637,103.6691 66.72572,103.296 67.07507,102.9229 67.42442,102.5497 67.77377,102.1766 68.12312,101.8035 68.47247,101.4304 68.82182,101.0572 69.17117,100.6841 69.52052,100.311 69.86987,99.93787 70.21922,99.56475 70.56857,99.19162 70.91792,98.8185 71.26727,98.44538 71.61662,98.07226 71.96597,97.69913 72.31531,97.32601 72.66467,96.95289 73.01401,96.57977 73.36337,96.20664 73.71271,95.83353 74.06207,95.4604 74.41141,95.08728 74.76076,94.71415 75.11011,94.34103 75.45946,93.9679 75.80881,93.59479 76.15816,93.22166 76.50751,92.84854 76.85686,92.47541 77.20621,92.10229 77.55556,91.72916 77.90491,91.35605 78.25426,90.98292 78.60359,90.6098 78.95296,90.23667 79.30229,89.86356 79.65164,89.49043 80.00101,89.1173 80.35034,88.74418 80.69971,88.37106 81.04904,87.99794 81.39841,87.62481 81.74774,87.25169 82.09709,86.87856 82.44644,86.50545 82.79579,86.13231 83.14514,85.7592 83.49449,85.38606 83.84384,85.01295 84.19319,84.63982 84.54254,84.26671 84.89189,83.89359 85.24124,83.52046 85.59059,83.14734 85.93993,82.77422 86.28929,82.40109 86.63863,82.02797 86.98799,81.65485 87.33733,81.28172 87.68669,80.9086 88.03603,80.53548 88.38538,80.16235 88.73473,79.78923 89.08408,79.41611 89.43343,79.04298 89.78278,78.66986 90.13214,78.29672 90.48148,77.92361 90.83083,77.55048 91.18018,77.17737 91.52953,76.80423 91.87888,76.43112 92.22823,76.05798 92.57758,75.68488 92.92693,75.31175 93.27628,74.93863 93.62563,74.56551 93.97498,74.19238 94.32433,73.81926 94.67368,73.44614 95.02303,73.07301 95.37236,72.69989 95.72173,72.32677 96.07106,71.95364 96.42043,71.58052 96.76976,71.2074 97.11913,70.83427 97.46846,70.46115 97.81781,70.08803 98.16716,69.7149 98.51651,69.34178 98.86586,68.96866 99.21521,68.59554 99.56456,68.22241 99.91391,67.84929 100.2633,67.47615 100.6126,67.10304 100.962,66.72992 101.3113,66.3568 101.6607,65.98367 102.01,65.61055 102.3594,65.23743 102.7087,64.8643 103.0581,64.49118 103.4074,64.11806 103.7568,63.74493 104.1061,63.37181 104.4555,62.99869 104.8048,62.62556 105.1542,62.25244 105.5035,61.87932 105.8529,61.5062 106.2022,61.13307 106.5515,60.75995 106.9009,60.38683 107.2502,60.0137 107.5996,59.64058 107.9489,59.26746 108.2983,58.89433 108.6476,58.52121 108.997,58.14809 109.3463,57.77496 109.6957,57.40184 110.045,57.02872 110.3944,56.65559 110.7437,56.28247 111.0931,55.90935 111.4424,55.53622 111.7918,55.1631 112.1411,54.78998 112.4905,54.41685 112.8398,54.04373 113.1892,53.67061 113.5385,53.29749 113.8879,52.92436 114.2372,52.55124 114.5866,52.17812 114.9359,51.80499 115.2853,51.43187 115.6346,51.05875 115.984,50.68562 116.3333,50.3125 116.6827,49.93938 117.032,49.56625 117.3814,49.19313 117.7307,48.82001 118.0801,48.44688 118.4294,48.07376 118.7788,47.70064 119.1281,47.32751 119.4775,46.95439 119.8268,46.58127 120.1762,46.20815 120.5255,45.83502 120.8749,45.4619 121.2242,45.08878 121.5736,44.71565 121.9229,44.34253 122.2723,43.96941 122.6216,43.59628 122.971,43.22316 123.3203,42.85004 123.6697,42.47691 124.019,42.10379 124.3684,41.73067 124.7177,41.35754 125.0671,40.98442 125.4164,40.6113 125.7658,40.23817 126.1151,39.86505 126.4645,39.49193 126.8138,39.1188 127.1632,38.74568 127.5125,38.37256 127.8619,37.99944 128.2112,37.62631 128.5605,37.25319 128.9099,36.88007 129.2592,36.50696 129.6086,36.13382 129.958,35.7607 130.3073,35.38757 130.6567,35.01445 131.006,34.64133 131.3554,34.2682 131.7047,33.89508 132.0541,33.52196 132.4034,33.14883 132.7528,32.77571 133.1021,32.40259 133.4514,32.02946 133.8008,31.65634 134.1501,31.28322 134.4995,30.9101 134.8488,30.53697 135.1982,30.16385 135.5475,29.79073 135.8969,29.4176 136.2462,29.04448 136.5956,28.67136 136.9449,28.29823 137.2943,27.92511 137.6436,27.55199 137.993,27.17888 138.3423,26.80574 138.6917,26.43263 139.041,26.05949 139.3904,25.68639 139.7397,25.31325 140.0891,24.94012 140.4384,24.567 140.7878,24.19388 141.1371,23.82076 141.4865,23.44763 141.8358,23.07451 142.1852,22.70139 142.5345,22.32826 142.8839,21.95514 143.2332,21.58202 143.5826,21.20889 143.9319,20.83577 144.2813,20.46265 144.6306,20.08952 144.98,19.7164 145.3293,19.34328 145.6787,18.97015 146.028,18.59705 146.3774,18.22391 146.7267,17.8508 147.0761,17.47766 147.4254,17.10455 147.7748,16.73141 148.1241,16.35831 148.4735,15.98517 148.8228,15.61206 149.1722,15.23892 149.5215,14.86581 149.8709,13.85304 150.2202,12.73367 150.5696,11.6143 150.9189,10.49493 151.2683,9.375565 151.6176,8.256195 151.967,7.136826 152.3163,6.017456 152.6657,4.898087 153.015,3.778717 153.3644,2.659348 153.7137,1.539978 154.0631,1.5 154.4124,1.5 154.7617,1.5 155.1111,1.5 155.4605,1.5 155.8098,1.5 156.1591,1.5 156.5085,1.5 156.8579,1.5 157.2072,1.5 157.5565,1.5 157.9059,1.5 158.2553,1.5 158.6046,1.5 158.9539,1.5 159.3033,1.5 159.6526,1.5 160.002,1.5 160.3513,1.5 160.7007,1.5 161.05,1.5 161.3994,1.5 161.7487,1.5 162.0981,1.5 162.4474,1.5 162.7968,1.5 163.1461,1.5 163.4955,1.5 163.8448,1.5 164.1942,1.5 164.5435,1.5 164.8929,1.5 165.2422,1.5 165.5916,1.5 165.9409,1.5 166.2903,1.5 166.6396,1.5 166.989,1.5 167.3383,1.5 167.6877,1.5 168.037,1.5 168.3864,1.5 168.7357,1.5 169.0851,1.5 169.4344,1.5 169.7838,1.5 170.1331,1.5 170.4825,1.5 170.8318,1.5 171.1812,1.5 171.5305,1.5 171.8799,1.5 172.2292,1.5 172.5786,1.5 172.9279,1.5 173.2773,1.5 173.6266,1.5 173.976,1.5 174.3253,1.5 174.6747,1.5 175.024,1.5 175.3734,1.5 175.7227,1.5 176.0721,1.5 176.4214,1.5 176.7708,1.5 177.1201,1.5 177.4695,1.5 177.8188,1.5 178.1682,1.5 178.5175,1.5 178.8669,1.5 179.2162,1.5 179.5656,1.5 179.9149,1.5 180.2643,1.5 180.6136,1.5 180.963,1.5 181.3123,1.5 181.6617,1.5 182.011,1.5 182.3604,1.5 182.7097,1.5 183.0591,1.5 183.4084,1.5 183.7578,1.5 184.1071,1.5 184.4565,1.5 184.8058,1.5 185.1552,1.5 185.5045,1.5 185.8539,1.5 186.2032,1.5 186.5526,1.5 186.9019,1.5 187.2513,1.5 187.6006,1.5 187.9499,1.5 188.2993,1.5 188.6487,1.5 188.998,1.5 189.3473,1.5 189.6967,1.5 190.0461,1.5 190.3954,1.5 190.7447,1.5 191.0941,1.5 191.4435,1.5 191.7928,1.5 192.1421,1.5 192.4915,1.5 192.8408,1.5 193.1902,1.5 193.5395,1.5 193.8889,1.5 194.2382,1.5 194.5876,1.5 194.9369,1.5 195.2863,1.5 195.6356,1.5 195.985,1.5 196.3343,1.5 196.6837,1.5 197.033,1.5 197.3824,1.5 197.7317,1.5 198.0811,1.5 198.4304,1.5 198.7798,1.5 199.1291,1.5 199.4785,1.5 199.8278,1.5 200.1772,1.5 200.5265,1.5 200.8759,1.5 201.2252,1.5 201.5746,1.5 201.9239,1.5 202.2733,1.5 202.6226,1.5 202.972,1.5 203.3213,1.5 203.6707,1.5 204.02,1.5 204.3694,1.5 204.7187,1.5 205.0681,1.5 205.4174,1.5 205.7668,1.5 206.1161,1.5 206.4655,1.5 206.8148,1.5 207.1642,1.5 207.5135,1.5 207.8629,1.5 208.2122,1.5 208.5616,1.5 208.9109,1.5 209.2603,1.5 209.6096,1.5 209.959,1.5 210.3083,1.5 210.6577,1.5 211.007,1.5 211.3564,1.5 211.7057,1.5 212.0551,1.5 212.4044,1.5 212.7538,1.5 213.1031,1.5 213.4525,1.5 213.8018,1.5 214.1512,1.5 214.5005,1.5 214.8499,1.5 215.1992,1.5 215.5486,1.5 215.8979,1.5 216.2473,1.5 216.5966,1.5 216.946,1.5 217.2953,1.5 217.6447,1.5 217.994,1.5 218.3433,1.5 218.6927,1.5 219.0421,1.5 219.3914,1.5 219.7407,1.5 220.0901,1.5 220.4395,1.5 220.7888,1.5 221.1381,1.5 221.4875,1.5 221.8369,1.5 222.1862,1.5 222.5355,1.5 222.8849,1.5 223.2342,1.5 223.5836,1.5 223.9329,1.5 224.2823,1.5 224.6316,1.5 224.981,1.5 225.3303,1.5 225.6797,1.5 226.029,1.5 226.3784,1.5 226.7277,1.5 227.0771,1.5 227.4264,1.5 227.7758,1.5 228.1251,1.5 228.4745,1.5 228.8238,1.5 229.1732,1.5 229.5225,1.5 229.8719,1.5 230.2212,1.5 230.5706,1.5 230.9199,1.5 231.2693,1.5 231.6186,1.5 231.968,1.5 232.3173,1.5 232.6667,1.5 233.016,1.5 233.3654,1.5 233.7147,1.5 234.0641,1.5 234.4134,1.5 234.7628,1.5 235.1121,1.5 235.4615,1.5 235.8108,1.5 236.1602,1.5 236.5095,1.5 236.8589,1.5 237.2082,1.5 237.5576,1.5 237.9069,1.5 238.2563,1.5 238.6056,1.5 238.955,1.5 239.3043,1.5 239.6537,1.5 240.003,1.5 240.3524,1.5 240.7017,1.5 241.0511,1.5 241.4004,1.5 241.7498,1.5 242.0991,1.5 242.4485,1.5 242.7978,1.5 243.1472,1.5 243.4965,1.5 243.8459,1.5 244.1952,1.5 244.5445,1.5 244.8939,1.5 245.2433,1.5 245.5926,1.5 245.9419,1.5 246.2913,1.5 246.6407,1.5 246.99,1.5 247.3393,1.5 247.6887,1.5 248.0381,1.5 248.3874,1.5 248.7367,1.5 249.0861,1.5 249.4355,1.5 249.7848,1.5 250.1341,1.5 250.4835,1.5 250.8328,1.5 251.1822,1.5 251.5315,1.5 251.8809,1.5 252.2302,1.5 252.5796,1.5 252.9289,1.5 253.2783,1.5 253.6276,1.5 253.977,1.5 254.3263,1.5 254.6757,1.5 255.025,1.5 255.3744,1.5 255.7237,1.5 256.0731,1.5 256.4224,1.5 256.7718,1.5 257.1211,1.5 257.4705,1.5 257.8198,1.5 258.1692,1.5 258.5185,1.5 258.8679,1.5 259.2172,1.5 259.5666,1.5 259.9159,1.5 260.2653,1.5 260.6146,1.5 260.964,1.5 261.3133,1.5 261.6627,1.5 262.012,1.5 262.3614,1.5 262.7107,1.5 263.0601,1.5 263.4094,1.5 263.7588,1.5 264.1081,1.5 264.4575,1.5 264.8068,1.5 265.1562,1.5 265.5055,1.5 265.8549,1.5 266.2042,1.5 266.5536,1.5 266.9029,1.5 267.2522,1.5 267.6016,1.5 267.951,1.5 268.3003,1.5 268.6496,1.5 268.999,1.5 269.3484,1.5 269.6977,1.5 270.0471,1.5 270.3964,1.5 270.7458,1.5 271.0951,1.5 271.4445,1.5 271.7938,1.5 272.1431,1.5 272.4925,1.5 272.8419,1.5 273.1912,1.5 273.5405,1.5 273.8899,1.5 274.2393,1.5 274.5886,1.5 274.9379,1.5 275.2873,1.5 275.6367,1.5 275.986,1.5 276.3353,1.5 276.6847,1.5 277.034,1.5 277.3834,1.5 277.7327,1.5 278.0821,1.5 278.4314,1.5 278.7808,1.5 279.1301,1.5 279.4795,1.5 279.8288,1.5 280.1782,1.5 280.5275,1.5 280.8769,1.5 281.2262,1.5 281.5756,1.5 281.9249,1.5 282.2743,1.5 282.6236,1.5 282.973,1.5 283.3223,1.5 283.6717,1.5 284.021,1.5 284.3704,1.5 284.7197,1.5 285.0691,1.5 285.4184,1.5 285.7678,1.5 286.1171,1.5 286.4665,1.5 286.8158,1.5 287.1652,1.5 287.5145,1.5 287.8639,1.5 288.2132,1.5 288.5626,1.5 288.9119,1.5 289.2613,1.5 289.6106,1.5 289.96,1.5 290.3093,1.5 290.6587,1.5 291.008,1.5 291.3574,1.5 291.7067,1.5 292.0561,1.5 292.4054,1.5 292.7548,1.5 293.1041,1.5 293.4534,1.5 293.8028,1.5 294.1522,1.5 294.5015,1.5 294.8508,1.5 295.2002,1.5 295.5496,1.5 295.8989,1.5 296.2482,1.5 296.5976,1.5 296.947,1.5 297.2963,1.5 297.6456,1.5 297.995,1.5 298.3443,1.5 298.6937,1.5 299.043,1.5 299.3924,1.5 299.7417,1.5 300.0911,1.5 300.4405,1.5 300.7898,1.5 301.1391,1.5 301.4885,1.5 301.8379,1.5 302.1872,1.5 302.5365,1.5 302.8859,1.5 303.2352,1.5 303.5846,1.5 303.9339,1.5 304.2833,1.5 304.6326,1.5 304.982,1.5 305.3313,1.5 305.6807,1.5 306.03,1.5 306.3794,1.5 306.7287,1.5 307.0781,1.5 307.4274,1.5 307.7768,1.5 308.1261,1.5 308.4755,1.5 308.8248,1.5 309.1742,1.5 309.5235,1.5 309.8729,1.5 310.2222,1.5 310.5716,1.5 310.9209,1.5 311.2703,1.5 311.6196,1.5 311.969,1.5 312.3183,1.5 312.6677,1.5 313.017,1.5 313.3664,1.5 313.7157,1.5 314.0651,1.5 314.4144,1.5 314.7638,1.5 315.1131,1.5 315.4625,1.5 315.8118,1.5 316.1612,1.5 316.5105,1.5 316.8599,1.5 317.2092,1.5 317.5586,1.5 317.9079,1.5 318.2573,1.5 318.6066,1.5 318.956,1.5 319.3053,1.5 319.6547,1.5 320.004,1.5 320.3534,1.5 320.7027,1.5 321.052,1.5 321.4014,1.5 321.7508,1.5 322.1001,1.5 322.4494,1.5 322.7988,1.5 323.1482,1.5 323.4975,1.5 323.8468,1.5 324.1962,1.5 324.5456,1.5 324.8949,1.5 325.2442,1.5 325.5936,1.5 325.9429,1.5 326.2923,1.5 326.6416,1.5 326.991,1.5 327.3403,1.5 327.6897,1.5 328.039,1.5 328.3884,1.5 328.7377,1.5 329.0871,1.5 329.4365,1.5 329.7858,1.5 330.1351,1.5 330.4845,1.5 330.8338,1.5 331.1832,1.5 331.5325,1.5 331.8819,1.5 332.2312,1.5 332.5806,1.5 332.9299,1.5 333.2793,1.5 333.6286,1.5 333.978,1.5 334.3273,1.5 334.6767,1.5 335.026,1.5 335.3754,1.5 335.7247,1.5 336.0741,1.5 336.4234,1.5 336.7728,1.5 337.1221,1.5 337.4715,1.5 337.8208,1.5 338.1702,1.5 338.5195,1.5 338.8689,1.5 339.2182,1.5 339.5676,1.5 339.9169,1.5 340.2663,1.5 340.6156,1.5 340.965,1.5 341.3143,1.5 341.6637,1.5 342.013,1.5 342.3624,1.5 342.7117,1.5 343.0611,1.5 343.4104,1.5 343.7598,1.5 344.1091,1.5 344.4585,1.5 344.8078,1.5 345.1572,1.5 345.5065,1.5 345.8559,1.5 346.2052,1.5 346.5546,1.5 346.9039,1.5 347.2532,1.5 347.6026,1.5 347.952,1.5 348.3013,1.5 348.6506,1.5 349,1.5 349,214.5 " />
</g>
<defs>
<linearGradient id="grad0" x1="-14.28572%" y1="0%" x2="-14.28572%" y2="200%">
<stop offset="0%" stop-color="#1472F0" stop-opacity="0.1882353" />
<stop offset="50%" stop-color="#1472F0" stop-opacity="0.02352941" />
<stop offset="100%" stop-color="#1472F0" stop-opacity="0.1882353" />
</linearGradient>
<linearGradient id="grad1" x1="-14.28572%" y1="0%" x2="-14.28572%" y2="200%">
<stop offset="0%" stop-color="#9400D3" stop-opacity="0.1882353" />
<stop offset="50%" stop-color="#9400D3" stop-opacity="0.02352941" />
<stop offset="100%" stop-color="#9400D3" stop-opacity="0.1882353" />
</linearGradient>
</defs>
</svg>
