<?xml version="1.0"?>
<!DOCTYPE svg PUBLIC "-//W3C//DTD SVG 1.1//EN" "http://www.w3.org/Graphics/SVG/1.1/DTD/svg11.dtd">
<svg viewBox="0 0 413 255" preserveAspectRatio="xMinYMin meet" version="1.1" xmlns="http://www.w3.org/2000/svg">
<g id="Axis">
<line x1="0" y1="253.5" x2="413" y2="253.5" stroke="#808080" stroke-opacity="1" stroke-width="1" stroke-linecap="round" fill="none" />
</g>
<g id="margin(w)">
<polyline stroke="#1472F0" stroke-opacity="0.6431373" stroke-linecap="round" stroke-linejoin="round" stroke-width="3" fill="none" points="0,253.5 0.413414,253.5 0.826828,253.5 1.240238,253.5 1.653652,253.5 2.067066,253.5 2.48048,253.5 2.89389,253.5 3.307304,253.5 3.720718,253.5 4.134132,253.5 4.547546,253.5 4.960957,253.5 5.374374,253.5 5.787781,253.5 6.201202,253.5 6.614616,253.5 7.02803,253.5 7.441444,253.5 7.854858,253.5 8.268272,253.5 8.681686,253.5 9.0951,253.5 9.508507,253.5 9.921921,253.5 10.33533,253.5 10.74875,253.5 11.16216,253.5 11.57558,253.5 11.98899,253.5 12.4024,253.5 12.81582,253.5 13.22923,253.5 13.64264,253.5 14.05605,253.5 14.46947,253.5 14.88288,253.5 15.2963,253.5 15.70971,253.5 16.12312,253.5 16.53654,253.5 16.94994,253.5 17.36336,253.5 17.77678,253.5 18.19019,253.5 18.60361,253.5 19.01702,253.5 19.43044,253.5 19.84385,253.5 20.25726,253.5 20.67067,253.5 21.08408,253.5 21.4975,253.5 21.91091,253.5 22.32433,253.5 22.73774,253.5 23.15115,253.5 23.56457,253.5 23.97798,253.5 24.39139,253.5 24.8048,253.5 25.21822,253.5 25.63163,253.5 26.04504,253.5 26.45846,253.5 26.87187,253.5 27.28529,253.5 27.6987,253.5 28.11211,253.5 28.52552,253.5 28.93893,253.5 29.35235,253.5 29.76577,253.5 30.17918,253.5 30.5926,253.5 31.00601,253.5 31.41942,253.5 31.83283,253.5 32.24625,253.5 32.65966,253.5 33.07307,253.5 33.48649,253.5 33.8999,253.5 34.31332,253.5 34.72673,253.5 35.14014,253.5 35.55355,253.5 35.96696,253.5 36.38038,253.5 36.79379,253.5 37.20721,253.5 37.62062,253.5 38.03403,253.5 38.44745,253.5 38.86086,253.5 39.27427,253.5 39.68768,253.5 40.1011,253.5 40.51451,253.5 40.92793,253.5 41.34135,253.5 41.75476,253.5 42.16817,253.5 42.58158,253.5 42.995,253.5 43.40841,253.5 43.82182,253.5 44.23524,253.5 44.64865,253.5 45.06207,253.5 45.47548,253.5 45.88889,253.5 46.3023,253.5 46.71571,253.5 47.12913,253.5 47.54254,253.5 47.95596,253.5 48.36937,253.5 48.78278,253.5 49.1962,253.5 49.60961,253.5 50.02302,253.5 50.43643,253.5 50.84985,253.5 51.26326,253.5 51.67667,253.5 52.09009,253.5 52.5035,253.5 52.91692,253.5 53.33034,253.5 53.74374,253.5 54.15716,253.5 54.57057,253.5 54.98399,253.5 55.3974,253.5 55.81081,253.5 56.22423,253.5 56.63764,253.5 57.05106,253.5 57.46446,253.5 57.87788,253.5 58.29129,253.5 58.7047,253.5 59.11812,251.482 59.53154,244.4189 59.94495,237.3559 60.35837,230.2928 60.77177,223.2297 61.18519,216.1667 61.59859,209.1036 62.01202,202.0405 62.42542,194.9775 62.83884,187.9144 63.25225,180.8513 63.66567,173.7883 64.07908,166.7252 64.49249,159.6622 64.9059,152.5991 65.31932,145.536 65.73273,138.473 66.14615,131.4099 66.55956,124.3468 66.97298,117.2838 67.38638,110.2207 67.7998,103.1577 68.21321,96.0946 68.62663,89.03152 69.04004,81.96846 69.45346,74.90541 69.86687,67.84235 70.28027,60.77927 70.69368,53.71622 71.1071,46.65315 71.52052,39.5901 71.93393,32.52702 72.34735,25.46396 72.76076,18.40091 73.17418,11.33783 73.58759,4.27478 74.00101,1.5 74.41441,1.5 74.82784,1.5 75.24124,1.5 75.65466,1.5 76.06807,1.5 76.48149,1.5 76.8949,1.5 77.30832,1.5 77.72171,1.5 78.13513,1.5 78.54854,1.5 78.96196,1.5 79.37537,1.5 79.78879,1.5 80.20219,1.5 80.61562,1.5 81.02902,1.5 81.44244,1.5 81.85585,1.5 82.26927,1.5 82.68269,1.5 83.0961,1.5 83.50952,1.5 83.92293,1.5 84.33635,1.5 84.74976,1.5 85.16316,1.5 85.57657,1.5 85.98999,1.5 86.4034,1.5 86.81682,1.5 87.23022,1.5 87.64365,1.5 88.05705,1.5 88.47047,1.5 88.88388,1.5 89.2973,1.5 89.71071,1.5 90.12413,1.5 90.53754,1.5 90.95096,1.5 91.36436,1.5 91.77779,1.5 92.19119,1.5 92.6046,1.5 93.01801,1.5 93.43143,1.5 93.84483,1.5 94.25826,1.5 94.67168,1.5 95.08508,1.5 95.4985,1.5 95.91191,1.5 96.32533,1.5 96.73874,1.5 97.15216,1.5 97.56557,1.5 97.97899,1.5 98.3924,1.5 98.80582,1.5 99.21922,1.5 99.63263,1.5 100.046,1.5 100.4595,1.5 100.8729,1.5 101.2863,1.5 101.6997,1.5 102.1131,1.5 102.5265,1.5 102.9399,1.5 103.3533,1.5 103.7668,1.5 104.1802,1.5 104.5936,1.5 105.007,1.5 105.4204,1.5 105.8338,1.5 106.2473,1.5 106.6607,1.5 107.0741,1.5 107.4875,1.5 107.9009,1.5 108.3143,1.5 108.7277,1.5 109.1411,1.5 109.5546,1.5 109.968,1.5 110.3814,1.5 110.7948,1.5 111.2082,1.5 111.6216,1.5 112.035,1.5 112.4485,1.5 112.8619,1.5 113.2753,1.5 113.6887,1.5 114.1021,1.5 114.5155,1.5 114.9289,1.5 115.3423,1.5 115.7558,1.5 116.1692,1.5 116.5826,1.5 116.996,1.5 117.4094,1.5 117.8228,1.5 118.2362,1.5 118.6497,1.5 119.0631,1.5 119.4765,1.5 119.8899,1.5 120.3033,1.5 120.7167,1.5 121.1301,1.5 121.5435,1.5 121.957,1.5 122.3704,1.5 122.7838,1.5 123.1972,1.5 123.6106,1.5 124.024,1.5 124.4374,1.5 124.8508,1.5 125.2643,1.5 125.6777,1.5 126.0911,1.5 126.5045,1.5 126.9179,1.5 127.3313,1.5 127.7448,1.5 128.1582,1.5 128.5716,1.5 128.985,1.5 129.3984,1.5 129.8118,1.5 130.2252,1.5 130.6386,1.5 131.052,1.5 131.4655,1.5 131.8789,1.5 132.2923,1.5 132.7057,1.5 133.1191,1.5 133.5325,1.5 133.946,1.5 134.3594,1.5 134.7728,1.5 135.1862,1.5 135.5996,1.5 136.013,1.5 136.4264,1.5 136.8398,1.5 137.2533,1.5 137.6667,1.5 138.0801,1.5 138.4935,1.5 138.9069,1.5 139.3203,1.5 139.7337,1.5 140.1471,1.5 140.5606,1.5 140.974,1.5 141.3874,1.5 141.8008,1.5 142.2142,1.5 142.6276,1.5 143.041,1.5 143.4545,1.5 143.8679,1.5 144.2813,1.5 144.6947,1.5 145.1081,1.5 145.5215,1.5 145.9349,1.5 146.3483,1.5 146.7618,1.5 147.1752,1.5 147.5886,1.5 148.002,1.5 148.4154,1.5 148.8288,1.5 149.2422,1.5 149.6557,1.5 150.0691,1.5 150.4825,1.5 150.8959,1.5 151.3093,1.5 151.7227,1.5 152.1361,1.5 152.5495,1.5 152.963,1.5 153.3764,1.5 153.7898,1.5 154.2032,1.5 154.6166,1.5 155.03,1.5 155.4435,1.5 155.8569,1.5 156.2703,1.5 156.6837,1.5 157.0971,1.5 157.5105,1.5 157.9239,1.5 158.3373,1.5 158.7507,1.5 159.1642,1.5 159.5776,1.5 159.991,1.5 160.4044,1.5 160.8178,1.5 161.2312,1.5 161.6446,1.5 162.0581,1.5 162.4715,1.5 162.8849,1.5 163.2983,1.5 163.7117,1.5 164.1251,1.5 164.5385,1.5 164.952,1.5 165.3654,1.5 165.7788,1.5 166.1922,1.5 166.6056,1.5 167.019,1.5 167.4324,1.5 167.8458,1.5 168.2593,1.5 168.6727,1.5 169.0861,1.5 169.4995,1.5 169.9129,1.5 170.3263,1.5 170.7397,1.5 171.1532,1.5 171.5666,1.5 171.98,1.5 172.3934,1.5 172.8068,1.5 173.2202,1.5 173.6336,1.5 174.047,1.5 174.4604,1.5 174.8739,1.5 175.2873,1.5 175.7007,1.5 176.1141,1.5 176.5275,1.5 176.9409,1.5 177.3544,13.60809 177.7678,27.73424 178.1812,41.86037 178.5946,55.98648 179.008,70.11261 179.4214,84.23874 179.8348,98.36487 180.2483,112.491 180.6617,126.6171 181.0751,140.7432 181.4885,154.8694 181.9019,168.9955 182.3153,183.1216 182.7287,197.2477 183.1421,211.3739 183.5556,225.5 183.969,239.6261 184.3824,253.5 184.7958,253.5 185.2092,253.5 185.6226,253.5 186.036,253.5 186.4494,253.5 186.8629,253.5 187.2763,253.5 187.6897,253.5 188.1031,253.5 188.5165,253.5 188.9299,253.5 189.3434,253.5 189.7567,253.5 190.1702,253.5 190.5836,253.5 190.997,253.5 191.4104,253.5 191.8238,253.5 192.2372,253.5 192.6507,253.5 193.0641,253.5 193.4775,253.5 193.8909,253.5 194.3043,253.5 194.7177,253.5 195.1311,253.5 195.5445,253.5 195.958,253.5 196.3714,253.5 196.7848,253.5 197.1982,253.5 197.6116,253.5 198.025,253.5 198.4384,253.5 198.8519,253.5 199.2653,253.5 199.6786,253.5 200.0921,253.5 200.5055,253.5 200.9189,253.5 201.3323,253.5 201.7457,253.5 202.1591,253.5 202.5726,253.5 202.986,253.5 203.3994,253.5 203.8128,253.5 204.2262,253.5 204.6396,253.5 205.053,253.5 205.4665,253.5 205.8799,253.5 206.2933,253.5 206.7067,253.5 207.1201,253.5 207.5335,253.5 207.947,253.5 208.3604,253.5 208.7738,253.5 209.1872,253.5 209.6006,253.5 210.014,253.5 210.4274,253.5 210.8409,253.5 211.2543,253.5 211.6677,253.5 212.0811,253.5 212.4945,253.5 212.9079,253.5 213.3214,253.5 213.7347,253.5 214.1481,253.5 214.5616,253.5 214.975,253.5 215.3884,253.5 215.8018,253.5 216.2152,253.5 216.6286,253.5 217.042,253.5 217.4554,253.5 217.8689,253.5 218.2823,253.5 218.6957,253.5 219.1091,253.5 219.5225,253.5 219.9359,253.5 220.3493,253.5 220.7628,253.5 221.1762,253.5 221.5896,253.5 222.003,253.5 222.4164,253.5 222.8298,253.5 223.2433,253.5 223.6566,253.5 224.0701,253.5 224.4835,253.5 224.8969,253.5 225.3103,253.5 225.7237,253.5 226.1371,253.5 226.5506,253.5 226.964,253.5 227.3774,253.5 227.7908,253.5 228.2042,253.5 228.6176,253.5 229.031,253.5 229.4444,253.5 229.8578,253.5 230.2713,253.5 230.6847,253.5 231.0981,253.5 231.5115,253.5 231.9249,253.5 232.3383,253.5 232.7517,253.5 233.1652,253.5 233.5786,253.5 233.992,253.5 234.4054,253.5 234.8188,253.5 235.2322,253.5 235.6456,253.5 236.0591,253.5 236.4725,253.5 236.8859,253.5 237.2993,253.5 237.7127,253.5 238.1261,253.5 238.5396,253.5 238.953,253.5 239.3664,253.5 239.7798,253.5 240.1932,253.5 240.6066,253.5 241.02,253.5 241.4334,253.5 241.8469,253.5 242.2603,253.5 242.6737,253.5 243.0871,253.5 243.5005,253.5 243.9139,253.5 244.3273,253.5 244.7407,253.5 245.1541,253.5 245.5676,253.5 245.981,253.5 246.3944,253.5 246.8078,253.5 247.2212,253.5 247.6346,253.5 248.048,253.5 248.4615,253.5 248.8749,253.5 249.2883,253.5 249.7017,253.5 250.1151,253.5 250.5285,253.5 250.942,253.5 251.3553,253.5 251.7688,253.5 252.1822,253.5 252.5956,253.5 253.009,253.5 253.4224,253.5 253.8358,253.5 254.2493,253.5 254.6627,253.5 255.0761,253.5 255.4895,253.5 255.9029,253.5 256.3163,253.5 256.7297,253.5 257.1432,253.5 257.5566,253.5 257.97,253.5 258.3834,253.5 258.7968,253.5 259.2102,253.5 259.6236,253.5 260.037,253.5 260.4504,253.5 260.8639,253.5 261.2773,253.5 261.6907,253.5 262.1041,253.5 262.5175,253.5 262.9309,253.5 263.3443,253.5 263.7578,253.5 264.1712,253.5 264.5846,253.5 264.998,253.5 265.4114,253.5 265.8248,253.5 266.2383,253.5 266.6516,253.5 267.0651,253.5 267.4785,253.5 267.8919,253.5 268.3053,253.5 268.7187,253.5 269.1321,253.5 269.5456,253.5 269.959,253.5 270.3724,253.5 270.7858,253.5 271.1992,253.5 271.6126,253.5 272.026,253.5 272.4395,253.5 272.8528,253.5 273.2663,253.5 273.6797,253.5 274.0931,253.5 274.5065,253.5 274.9199,253.5 275.3333,253.5 275.7467,253.5 276.1602,253.5 276.5736,253.5 276.987,253.5 277.4004,253.5 277.8138,253.5 278.2272,253.5 278.6406,253.5 279.054,253.5 279.4675,253.5 279.8809,253.5 280.2943,253.5 280.7077,253.5 281.1211,253.5 281.5345,253.5 281.9479,253.5 282.3614,253.5 282.7748,253.5 283.1882,253.5 283.6016,253.5 284.015,253.5 284.4284,253.5 284.8419,253.5 285.2553,253.5 285.6687,253.5 286.0821,253.5 286.4955,253.5 286.9089,253.5 287.3223,253.5 287.7357,253.5 288.1491,253.5 288.5626,253.5 288.976,253.5 289.3894,253.5 289.8028,253.5 290.2162,253.5 290.6296,253.5 291.043,253.5 291.4565,253.5 291.8699,253.5 292.2833,253.5 292.6967,253.5 293.1101,253.5 293.5235,253.5 293.9369,253.5 294.3503,253.5 294.7638,253.5 295.1772,253.5 295.5906,253.5 296.004,253.5 296.4174,253.5 296.8308,253.5 297.2443,253.5 297.6577,253.5 298.0711,253.5 298.4845,253.5 298.8979,253.5 299.3113,253.5 299.7247,253.5 300.1382,253.5 300.5516,253.5 300.965,253.5 301.3784,253.5 301.7918,253.5 302.2052,253.5 302.6186,253.5 303.032,253.5 303.4454,253.5 303.8589,253.5 304.2722,253.5 304.6857,253.5 305.0991,253.5 305.5125,253.5 305.9259,253.5 306.3393,253.5 306.7527,253.5 307.1662,253.5 307.5796,253.5 307.993,253.5 308.4064,253.5 308.8198,253.5 309.2332,253.5 309.6466,253.5 310.0601,253.5 310.4735,253.5 310.8869,253.5 311.3003,253.5 311.7137,253.5 312.1271,253.5 312.5406,253.5 312.9539,253.5 313.3674,253.5 313.7808,253.5 314.1942,253.5 314.6076,253.5 315.021,253.5 315.4344,253.5 315.8479,253.5 316.2613,253.5 316.6747,253.5 317.0881,253.5 317.5015,253.5 317.9149,253.5 318.3283,253.5 318.7417,253.5 319.1552,253.5 319.5686,253.5 319.982,253.5 320.3954,253.5 320.8088,253.5 321.2222,253.5 321.6356,253.5 322.049,253.5 322.4625,253.5 322.8759,253.5 323.2893,253.5 323.7027,253.5 324.1161,253.5 324.5295,253.5 324.9429,253.5 325.3564,253.5 325.7698,253.5 326.1832,253.5 326.5966,253.5 327.01,253.5 327.4234,253.5 327.8369,253.5 328.2502,253.5 328.6637,253.5 329.0771,253.5 329.4905,253.5 329.9039,253.5 330.3173,253.5 330.7307,253.5 331.1442,253.5 331.5576,253.5 331.971,253.5 332.3844,253.5 332.7978,253.5 333.2112,253.5 333.6246,253.5 334.038,253.5 334.4514,253.5 334.8649,253.5 335.2783,253.5 335.6917,253.5 336.1051,253.5 336.5185,253.5 336.9319,253.5 337.3453,253.5 337.7588,253.5 338.1722,253.5 338.5856,253.5 338.999,253.5 339.4124,253.5 339.8258,253.5 340.2392,253.5 340.6526,253.5 341.0661,253.5 341.4795,253.5 341.8929,253.5 342.3063,253.5 342.7197,253.5 343.1331,253.5 343.5466,253.5 343.96,253.5 344.3734,253.5 344.7868,253.5 345.2002,253.5 345.6136,253.5 346.027,253.5 346.4404,253.5 346.8539,253.5 347.2672,253.5 347.6807,253.5 348.0941,253.5 348.5075,253.5 348.9209,253.5 349.3343,253.5 349.7477,253.5 350.1612,253.5 350.5746,253.5 350.988,253.5 351.4014,253.5 351.8148,253.5 352.2282,253.5 352.6416,253.5 353.0551,253.5 353.4685,253.5 353.8819,253.5 354.2953,253.5 354.7087,253.5 355.1221,253.5 355.5356,253.5 355.9489,253.5 356.3624,253.5 356.7758,253.5 357.1892,253.5 357.6026,253.5 358.016,253.5 358.4294,253.5 358.8429,253.5 359.2563,253.5 359.6697,253.5 360.0831,253.5 360.4965,253.5 360.9099,253.5 361.3233,253.5 361.7367,253.5 362.1501,253.5 362.5635,253.5 362.977,253.5 363.3904,253.5 363.8038,253.5 364.2172,253.5 364.6306,253.5 365.044,253.5 365.4575,253.5 365.8709,253.5 366.2843,253.5 366.6977,253.5 367.1111,253.5 367.5245,253.5 367.9379,253.5 368.3513,253.5 368.7648,253.5 369.1782,253.5 369.5916,253.5 370.005,253.5 370.4184,253.5 370.8318,253.5 371.2452,253.5 371.6587,253.5 372.0721,253.5 372.4855,253.5 372.8989,253.5 373.3123,253.5 373.7257,253.5 374.1392,253.5 374.5526,253.5 374.966,253.5 375.3794,253.5 375.7928,253.5 376.2062,253.5 376.6196,253.5 377.033,253.5 377.4464,253.5 377.8599,253.5 378.2733,253.5 378.6867,253.5 379.1001,253.5 379.5135,253.5 379.9269,253.5 380.3403,253.5 380.7538,253.5 381.1672,253.5 381.5806,253.5 381.994,253.5 382.4074,253.5 382.8208,253.5 383.2342,253.5 383.6476,253.5 384.0611,253.5 384.4745,253.5 384.8879,253.5 385.3013,253.5 385.7147,253.5 386.1281,253.5 386.5415,253.5 386.955,253.5 387.3684,253.5 387.7818,253.5 388.1952,253.5 388.6086,253.5 389.022,253.5 389.4355,253.5 389.8489,253.5 390.2623,253.5 390.6757,253.5 391.0891,253.5 391.5025,253.5 391.9159,253.5 392.3293,253.5 392.7427,253.5 393.1562,253.5 393.5695,253.5 393.983,253.5 394.3964,253.5 394.8098,253.5 395.2232,253.5 395.6366,253.5 396.05,253.5 396.4635,253.5 396.8769,253.5 397.2903,253.5 397.7037,253.5 398.1171,253.5 398.5305,253.5 398.9439,253.5 399.3574,253.5 399.7708,253.5 400.1842,253.5 400.5976,253.5 401.011,253.5 401.4244,253.5 401.8379,253.5 402.2513,253.5 402.6647,253.5 403.0781,253.5 403.4915,253.5 403.9049,253.5 404.3183,253.5 404.7318,253.5 405.1451,253.5 405.5586,253.5 405.972,253.5 406.3854,253.5 406.7988,253.5 407.2122,253.5 407.6256,253.5 408.039,253.5 408.4525,253.5 408.8658,253.5 409.2793,253.5 409.6927,253.5 410.1061,253.5 410.5195,253.5 410.9329,253.5 411.3463,253.5 411.7598,253.5 412.1732,253.5 412.5866,253.5 413,253.5 " />
<polygon fill="url(#grad0)" stroke="none" points="0,253.5 0,253.5 0,253.5 0.413414,253.5 0.826828,253.5 1.240238,253.5 1.653652,253.5 2.067066,253.5 2.48048,253.5 2.89389,253.5 3.307304,253.5 3.720718,253.5 4.134132,253.5 4.547546,253.5 4.960957,253.5 5.374374,253.5 5.787781,253.5 6.201202,253.5 6.614616,253.5 7.02803,253.5 7.441444,253.5 7.854858,253.5 8.268272,253.5 8.681686,253.5 9.0951,253.5 9.508507,253.5 9.921921,253.5 10.33533,253.5 10.74875,253.5 11.16216,253.5 11.57558,253.5 11.98899,253.5 12.4024,253.5 12.81582,253.5 13.22923,253.5 13.64264,253.5 14.05605,253.5 14.46947,253.5 14.88288,253.5 15.2963,253.5 15.70971,253.5 16.12312,253.5 16.53654,253.5 16.94994,253.5 17.36336,253.5 17.77678,253.5 18.19019,253.5 18.60361,253.5 19.01702,253.5 19.43044,253.5 19.84385,253.5 20.25726,253.5 20.67067,253.5 21.08408,253.5 21.4975,253.5 21.91091,253.5 22.32433,253.5 22.73774,253.5 23.15115,253.5 23.56457,253.5 23.97798,253.5 24.39139,253.5 24.8048,253.5 25.21822,253.5 25.63163,253.5 26.04504,253.5 26.45846,253.5 26.87187,253.5 27.28529,253.5 27.6987,253.5 28.11211,253.5 28.52552,253.5 28.93893,253.5 29.35235,253.5 29.76577,253.5 30.17918,253.5 30.5926,253.5 31.00601,253.5 31.41942,253.5 31.83283,253.5 32.24625,253.5 32.65966,253.5 33.07307,253.5 33.48649,253.5 33.8999,253.5 34.31332,253.5 34.72673,253.5 35.14014,253.5 35.55355,253.5 35.96696,253.5 36.38038,253.5 36.79379,253.5 37.20721,253.5 37.62062,253.5 38.03403,253.5 38.44745,253.5 38.86086,253.5 39.27427,253.5 39.68768,253.5 40.1011,253.5 40.51451,253.5 40.92793,253.5 41.34135,253.5 41.75476,253.5 42.16817,253.5 42.58158,253.5 42.995,253.5 43.40841,253.5 43.82182,253.5 44.23524,253.5 44.64865,253.5 45.06207,253.5 45.47548,253.5 45.88889,253.5 46.3023,253.5 46.71571,253.5 47.12913,253.5 47.54254,253.5 47.95596,253.5 48.36937,253.5 48.78278,253.5 49.1962,253.5 49.60961,253.5 50.02302,253.5 50.43643,253.5 50.84985,253.5 51.26326,253.5 51.67667,253.5 52.09009,253.5 52.5035,253.5 52.91692,253.5 53.33034,253.5 53.74374,253.5 54.15716,253.5 54.57057,253.5 54.98399,253.5 55.3974,253.5 55.81081,253.5 56.22423,253.5 56.63764,253.5 57.05106,253.5 57.46446,253.5 57.87788,253.5 58.29129,253.5 58.7047,253.5 59.11812,251.482 59.53154,244.4189 59.94495,237.3559 60.35837,230.2928 60.77177,223.2297 61.18519,216.1667 61.59859,209.1036 62.01202,202.0405 62.42542,194.9775 62.83884,187.9144 63.25225,180.8513 63.66567,173.7883 64.07908,166.7252 64.49249,159.6622 64.9059,152.5991 65.31932,145.536 65.73273,138.473 66.14615,131.4099 66.55956,124.3468 66.97298,117.2838 67.38638,110.2207 67.7998,103.1577 68.21321,96.0946 68.62663,89.03152 69.04004,81.96846 69.45346,74.90541 69.86687,67.84235 70.28027,60.77927 70.69368,53.71622 71.1071,46.65315 71.52052,39.5901 71.93393,32.52702 72.34735,25.46396 72.76076,18.40091 73.17418,11.33783 73.58759,4.27478 74.00101,1.5 74.41441,1.5 74.82784,1.5 75.24124,1.5 75.65466,1.5 76.06807,1.5 76.48149,1.5 76.8949,1.5 77.30832,1.5 77.72171,1.5 78.13513,1.5 78.54854,1.5 78.96196,1.5 79.37537,1.5 79.78879,1.5 80.20219,1.5 80.61562,1.5 81.02902,1.5 81.44244,1.5 81.85585,1.5 82.26927,1.5 82.68269,1.5 83.0961,1.5 83.50952,1.5 83.92293,1.5 84.33635,1.5 84.74976,1.5 85.16316,1.5 85.57657,1.5 85.98999,1.5 86.4034,1.5 86.81682,1.5 87.23022,1.5 87.64365,1.5 88.05705,1.5 88.47047,1.5 88.88388,1.5 89.2973,1.5 89.71071,1.5 90.12413,1.5 90.53754,1.5 90.95096,1.5 91.36436,1.5 91.77779,1.5 92.19119,1.5 92.6046,1.5 93.01801,1.5 93.43143,1.5 93.84483,1.5 94.25826,1.5 94.67168,1.5 95.08508,1.5 95.4985,1.5 95.91191,1.5 96.32533,1.5 96.73874,1.5 97.15216,1.5 97.56557,1.5 97.97899,1.5 98.3924,1.5 98.80582,1.5 99.21922,1.5 99.63263,1.5 100.046,1.5 100.4595,1.5 100.8729,1.5 101.2863,1.5 101.6997,1.5 102.1131,1.5 102.5265,1.5 102.9399,1.5 103.3533,1.5 103.7668,1.5 104.1802,1.5 104.5936,1.5 105.007,1.5 105.4204,1.5 105.8338,1.5 106.2473,1.5 106.6607,1.5 107.0741,1.5 107.4875,1.5 107.9009,1.5 108.3143,1.5 108.7277,1.5 109.1411,1.5 109.5546,1.5 109.968,1.5 110.3814,1.5 110.7948,1.5 111.2082,1.5 111.6216,1.5 112.035,1.5 112.4485,1.5 112.8619,1.5 113.2753,1.5 113.6887,1.5 114.1021,1.5 114.5155,1.5 114.9289,1.5 115.3423,1.5 115.7558,1.5 116.1692,1.5 116.5826,1.5 116.996,1.5 117.4094,1.5 117.8228,1.5 118.2362,1.5 118.6497,1.5 119.0631,1.5 119.4765,1.5 119.8899,1.5 120.3033,1.5 120.7167,1.5 121.1301,1.5 121.5435,1.5 121.957,1.5 122.3704,1.5 122.7838,1.5 123.1972,1.5 123.6106,1.5 124.024,1.5 124.4374,1.5 124.8508,1.5 125.2643,1.5 125.6777,1.5 126.0911,1.5 126.5045,1.5 126.9179,1.5 127.3313,1.5 127.7448,1.5 128.1582,1.5 128.5716,1.5 128.985,1.5 129.3984,1.5 129.8118,1.5 130.2252,1.5 130.6386,1.5 131.052,1.5 131.4655,1.5 131.8789,1.5 132.2923,1.5 132.7057,1.5 133.1191,1.5 133.5325,1.5 133.946,1.5 134.3594,1.5 134.7728,1.5 135.1862,1.5 135.5996,1.5 136.013,1.5 136.4264,1.5 136.8398,1.5 137.2533,1.5 137.6667,1.5 138.0801,1.5 138.4935,1.5 138.9069,1.5 139.3203,1.5 139.7337,1.5 140.1471,1.5 140.5606,1.5 140.974,1.5 141.3874,1.5 141.8008,1.5 142.2142,1.5 142.6276,1.5 143.041,1.5 143.4545,1.5 143.8679,1.5 144.2813,1.5 144.6947,1.5 145.1081,1.5 145.5215,1.5 145.9349,1.5 146.3483,1.5 146.7618,1.5 147.1752,1.5 147.5886,1.5 148.002,1.5 148.4154,1.5 148.8288,1.5 149.2422,1.5 149.6557,1.5 150.0691,1.5 150.4825,1.5 150.8959,1.5 151.3093,1.5 151.7227,1.5 152.1361,1.5 152.5495,1.5 152.963,1.5 153.3764,1.5 153.7898,1.5 154.2032,1.5 154.6166,1.5 155.03,1.5 155.4435,1.5 155.8569,1.5 156.2703,1.5 156.6837,1.5 157.0971,1.5 157.5105,1.5 157.9239,1.5 158.3373,1.5 158.7507,1.5 159.1642,1.5 159.5776,1.5 159.991,1.5 160.4044,1.5 160.8178,1.5 161.2312,1.5 161.6446,1.5 162.0581,1.5 162.4715,1.5 162.8849,1.5 163.2983,1.5 163.7117,1.5 164.1251,1.5 164.5385,1.5 164.952,1.5 165.3654,1.5 165.7788,1.5 166.1922,1.5 166.6056,1.5 167.019,1.5 167.4324,1.5 167.8458,1.5 168.2593,1.5 168.6727,1.5 169.0861,1.5 169.4995,1.5 169.9129,1.5 170.3263,1.5 170.7397,1.5 171.1532,1.5 171.5666,1.5 171.98,1.5 172.3934,1.5 172.8068,1.5 173.2202,1.5 173.6336,1.5 174.047,1.5 174.4604,1.5 174.8739,1.5 175.2873,1.5 175.7007,1.5 176.1141,1.5 176.5275,1.5 176.9409,1.5 177.3544,13.60809 177.7678,27.73424 178.1812,41.86037 178.5946,55.98648 179.008,70.11261 179.4214,84.23874 179.8348,98.36487 180.2483,112.491 180.6617,126.6171 181.0751,140.7432 181.4885,154.8694 181.9019,168.9955 182.3153,183.1216 182.7287,197.2477 183.1421,211.3739 183.5556,225.5 183.969,239.6261 184.3824,253.5 184.7958,253.5 185.2092,253.5 185.6226,253.5 186.036,253.5 186.4494,253.5 186.8629,253.5 187.2763,253.5 187.6897,253.5 188.1031,253.5 188.5165,253.5 188.9299,253.5 189.3434,253.5 189.7567,253.5 190.1702,253.5 190.5836,253.5 190.997,253.5 191.4104,253.5 191.8238,253.5 192.2372,253.5 192.6507,253.5 193.0641,253.5 193.4775,253.5 193.8909,253.5 194.3043,253.5 194.7177,253.5 195.1311,253.5 195.5445,253.5 195.958,253.5 196.3714,253.5 196.7848,253.5 197.1982,253.5 197.6116,253.5 198.025,253.5 198.4384,253.5 198.8519,253.5 199.2653,253.5 199.6786,253.5 200.0921,253.5 200.5055,253.5 200.9189,253.5 201.3323,253.5 201.7457,253.5 202.1591,253.5 202.5726,253.5 202.986,253.5 203.3994,253.5 203.8128,253.5 204.2262,253.5 204.6396,253.5 205.053,253.5 205.4665,253.5 205.8799,253.5 206.2933,253.5 206.7067,253.5 207.1201,253.5 207.5335,253.5 207.947,253.5 208.3604,253.5 208.7738,253.5 209.1872,253.5 209.6006,253.5 210.014,253.5 210.4274,253.5 210.8409,253.5 211.2543,253.5 211.6677,253.5 212.0811,253.5 212.4945,253.5 212.9079,253.5 213.3214,253.5 213.7347,253.5 214.1481,253.5 214.5616,253.5 214.975,253.5 215.3884,253.5 215.8018,253.5 216.2152,253.5 216.6286,253.5 217.042,253.5 217.4554,253.5 217.8689,253.5 218.2823,253.5 218.6957,253.5 219.1091,253.5 219.5225,253.5 219.9359,253.5 220.3493,253.5 220.7628,253.5 221.1762,253.5 221.5896,253.5 222.003,253.5 222.4164,253.5 222.8298,253.5 223.2433,253.5 223.6566,253.5 224.0701,253.5 224.4835,253.5 224.8969,253.5 225.3103,253.5 225.7237,253.5 226.1371,253.5 226.5506,253.5 226.964,253.5 227.3774,253.5 227.7908,253.5 228.2042,253.5 228.6176,253.5 229.031,253.5 229.4444,253.5 229.8578,253.5 230.2713,253.5 230.6847,253.5 231.0981,253.5 231.5115,253.5 231.9249,253.5 232.3383,253.5 232.7517,253.5 233.1652,253.5 233.5786,253.5 233.992,253.5 234.4054,253.5 234.8188,253.5 235.2322,253.5 235.6456,253.5 236.0591,253.5 236.4725,253.5 236.8859,253.5 237.2993,253.5 237.7127,253.5 238.1261,253.5 238.5396,253.5 238.953,253.5 239.3664,253.5 239.7798,253.5 240.1932,253.5 240.6066,253.5 241.02,253.5 241.4334,253.5 241.8469,253.5 242.2603,253.5 242.6737,253.5 243.0871,253.5 243.5005,253.5 243.9139,253.5 244.3273,253.5 244.7407,253.5 245.1541,253.5 245.5676,253.5 245.981,253.5 246.3944,253.5 246.8078,253.5 247.2212,253.5 247.6346,253.5 248.048,253.5 248.4615,253.5 248.8749,253.5 249.2883,253.5 249.7017,253.5 250.1151,253.5 250.5285,253.5 250.942,253.5 251.3553,253.5 251.7688,253.5 252.1822,253.5 252.5956,253.5 253.009,253.5 253.4224,253.5 253.8358,253.5 254.2493,253.5 254.6627,253.5 255.0761,253.5 255.4895,253.5 255.9029,253.5 256.3163,253.5 256.7297,253.5 257.1432,253.5 257.5566,253.5 257.97,253.5 258.3834,253.5 258.7968,253.5 259.2102,253.5 259.6236,253.5 260.037,253.5 260.4504,253.5 260.8639,253.5 261.2773,253.5 261.6907,253.5 262.1041,253.5 262.5175,253.5 262.9309,253.5 263.3443,253.5 263.7578,253.5 264.1712,253.5 264.5846,253.5 264.998,253.5 265.4114,253.5 265.8248,253.5 266.2383,253.5 266.6516,253.5 267.0651,253.5 267.4785,253.5 267.8919,253.5 268.3053,253.5 268.7187,253.5 269.1321,253.5 269.5456,253.5 269.959,253.5 270.3724,253.5 270.7858,253.5 271.1992,253.5 271.6126,253.5 272.026,253.5 272.4395,253.5 272.8528,253.5 273.2663,253.5 273.6797,253.5 274.0931,253.5 274.5065,253.5 274.9199,253.5 275.3333,253.5 275.7467,253.5 276.1602,253.5 276.5736,253.5 276.987,253.5 277.4004,253.5 277.8138,253.5 278.2272,253.5 278.6406,253.5 279.054,253.5 279.4675,253.5 279.8809,253.5 280.2943,253.5 280.7077,253.5 281.1211,253.5 281.5345,253.5 281.9479,253.5 282.3614,253.5 282.7748,253.5 283.1882,253.5 283.6016,253.5 284.015,253.5 284.4284,253.5 284.8419,253.5 285.2553,253.5 285.6687,253.5 286.0821,253.5 286.4955,253.5 286.9089,253.5 287.3223,253.5 287.7357,253.5 288.1491,253.5 288.5626,253.5 288.976,253.5 289.3894,253.5 289.8028,253.5 290.2162,253.5 290.6296,253.5 291.043,253.5 291.4565,253.5 291.8699,253.5 292.2833,253.5 292.6967,253.5 293.1101,253.5 293.5235,253.5 293.9369,253.5 294.3503,253.5 294.7638,253.5 295.1772,253.5 295.5906,253.5 296.004,253.5 296.4174,253.5 296.8308,253.5 297.2443,253.5 297.6577,253.5 298.0711,253.5 298.4845,253.5 298.8979,253.5 299.3113,253.5 299.7247,253.5 300.1382,253.5 300.5516,253.5 300.965,253.5 301.3784,253.5 301.7918,253.5 302.2052,253.5 302.6186,253.5 303.032,253.5 303.4454,253.5 303.8589,253.5 304.2722,253.5 304.6857,253.5 305.0991,253.5 305.5125,253.5 305.9259,253.5 306.3393,253.5 306.7527,253.5 307.1662,253.5 307.5796,253.5 307.993,253.5 308.4064,253.5 308.8198,253.5 309.2332,253.5 309.6466,253.5 310.0601,253.5 310.4735,253.5 310.8869,253.5 311.3003,253.5 311.7137,253.5 312.1271,253.5 312.5406,253.5 312.9539,253.5 313.3674,253.5 313.7808,253.5 314.1942,253.5 314.6076,253.5 315.021,253.5 315.4344,253.5 315.8479,253.5 316.2613,253.5 316.6747,253.5 317.0881,253.5 317.5015,253.5 317.9149,253.5 318.3283,253.5 318.7417,253.5 319.1552,253.5 319.5686,253.5 319.982,253.5 320.3954,253.5 320.8088,253.5 321.2222,253.5 321.6356,253.5 322.049,253.5 322.4625,253.5 322.8759,253.5 323.2893,253.5 323.7027,253.5 324.1161,253.5 324.5295,253.5 324.9429,253.5 325.3564,253.5 325.7698,253.5 326.1832,253.5 326.5966,253.5 327.01,253.5 327.4234,253.5 327.8369,253.5 328.2502,253.5 328.6637,253.5 329.0771,253.5 329.4905,253.5 329.9039,253.5 330.3173,253.5 330.7307,253.5 331.1442,253.5 331.5576,253.5 331.971,253.5 332.3844,253.5 332.7978,253.5 333.2112,253.5 333.6246,253.5 334.038,253.5 334.4514,253.5 334.8649,253.5 335.2783,253.5 335.6917,253.5 336.1051,253.5 336.5185,253.5 336.9319,253.5 337.3453,253.5 337.7588,253.5 338.1722,253.5 338.5856,253.5 338.999,253.5 339.4124,253.5 339.8258,253.5 340.2392,253.5 340.6526,253.5 341.0661,253.5 341.4795,253.5 341.8929,253.5 342.3063,253.5 342.7197,253.5 343.1331,253.5 343.5466,253.5 343.96,253.5 344.3734,253.5 344.7868,253.5 345.2002,253.5 345.6136,253.5 346.027,253.5 346.4404,253.5 346.8539,253.5 347.2672,253.5 347.6807,253.5 348.0941,253.5 348.5075,253.5 348.9209,253.5 349.3343,253.5 349.7477,253.5 350.1612,253.5 350.5746,253.5 350.988,253.5 351.4014,253.5 351.8148,253.5 352.2282,253.5 352.6416,253.5 353.0551,253.5 353.4685,253.5 353.8819,253.5 354.2953,253.5 354.7087,253.5 355.1221,253.5 355.5356,253.5 355.9489,253.5 356.3624,253.5 356.7758,253.5 357.1892,253.5 357.6026,253.5 358.016,253.5 358.4294,253.5 358.8429,253.5 359.2563,253.5 359.6697,253.5 360.0831,253.5 360.4965,253.5 360.9099,253.5 361.3233,253.5 361.7367,253.5 362.1501,253.5 362.5635,253.5 362.977,253.5 363.3904,253.5 363.8038,253.5 364.2172,253.5 364.6306,253.5 365.044,253.5 365.4575,253.5 365.8709,253.5 366.2843,253.5 366.6977,253.5 367.1111,253.5 367.5245,253.5 367.9379,253.5 368.3513,253.5 368.7648,253.5 369.1782,253.5 369.5916,253.5 370.005,253.5 370.4184,253.5 370.8318,253.5 371.2452,253.5 371.6587,253.5 372.0721,253.5 372.4855,253.5 372.8989,253.5 373.3123,253.5 373.7257,253.5 374.1392,253.5 374.5526,253.5 374.966,253.5 375.3794,253.5 375.7928,253.5 376.2062,253.5 376.6196,253.5 377.033,253.5 377.4464,253.5 377.8599,253.5 378.2733,253.5 378.6867,253.5 379.1001,253.5 379.5135,253.5 379.9269,253.5 380.3403,253.5 380.7538,253.5 381.1672,253.5 381.5806,253.5 381.994,253.5 382.4074,253.5 382.8208,253.5 383.2342,253.5 383.6476,253.5 384.0611,253.5 384.4745,253.5 384.8879,253.5 385.3013,253.5 385.7147,253.5 386.1281,253.5 386.5415,253.5 386.955,253.5 387.3684,253.5 387.7818,253.5 388.1952,253.5 388.6086,253.5 389.022,253.5 389.4355,253.5 389.8489,253.5 390.2623,253.5 390.6757,253.5 391.0891,253.5 391.5025,253.5 391.9159,253.5 392.3293,253.5 392.7427,253.5 393.1562,253.5 393.5695,253.5 393.983,253.5 394.3964,253.5 394.8098,253.5 395.2232,253.5 395.6366,253.5 396.05,253.5 396.4635,253.5 396.8769,253.5 397.2903,253.5 397.7037,253.5 398.1171,253.5 398.5305,253.5 398.9439,253.5 399.3574,253.5 399.7708,253.5 400.1842,253.5 400.5976,253.5 401.011,253.5 401.4244,253.5 401.8379,253.5 402.2513,253.5 402.6647,253.5 403.0781,253.5 403.4915,253.5 403.9049,253.5 404.3183,253.5 404.7318,253.5 405.1451,253.5 405.5586,253.5 405.972,253.5 406.3854,253.5 406.7988,253.5 407.2122,253.5 407.6256,253.5 408.039,253.5 408.4525,253.5 408.8658,253.5 409.2793,253.5 409.6927,253.5 410.1061,253.5 410.5195,253.5 410.9329,253.5 411.3463,253.5 411.7598,253.5 412.1732,253.5 412.5866,253.5 413,253.5 413,253.5 " />
</g>
<defs>
<linearGradient id="grad0" x1="-14.28572%" y1="0%" x2="-14.28572%" y2="200%">
<stop offset="0%" stop-color="#1472F0" stop-opacity="0.1882353" />
<stop offset="50%" stop-color="#1472F0" stop-opacity="0.02352941" />
<stop offset="100%" stop-color="#1472F0" stop-opacity="0.1882353" />
</linearGradient>
</defs>
</svg>
