<?xml version="1.0"?>
<!DOCTYPE svg PUBLIC "-//W3C//DTD SVG 1.1//EN" "http://www.w3.org/Graphics/SVG/1.1/DTD/svg11.dtd">
<svg viewBox="0 0 544 336" preserveAspectRatio="xMinYMin meet" version="1.1" xmlns="http://www.w3.org/2000/svg">
<g id="Axis">
<line x1="0" y1="323.4286" x2="544" y2="323.4286" stroke="#808080" stroke-opacity="1" stroke-width="1" stroke-linecap="round" fill="none" />
</g>
<g id="padding(w)">
<polyline stroke="#1472F0" stroke-opacity="0.6431373" stroke-linecap="round" stroke-linejoin="round" stroke-width="3" fill="none" points="0,323.4286 0.544548,323.4286 1.089088,323.4286 1.633636,323.4286 2.178177,323.4286 2.722725,323.4286 3.267265,323.4286 3.811813,323.4286 4.356354,323.4286 4.900902,323.4286 5.445442,323.4286 5.98999,323.4286 6.534531,323.4286 7.079079,323.4286 7.623619,323.4286 8.168175,323.4286 8.712715,323.4286 9.257263,323.4286 9.801804,323.4286 10.34635,323.4286 10.89089,323.4286 11.43544,323.4286 11.97998,323.4286 12.52453,323.4286 13.06907,323.4286 13.61362,323.4286 14.15816,323.4286 14.70271,323.4286 15.24725,323.4286 15.79179,323.4286 16.33633,323.4286 16.88088,323.4286 17.42542,323.4286 17.96997,323.4286 18.51451,323.4286 19.05906,323.4286 19.6036,323.4286 20.14815,323.4286 20.69269,323.4286 21.23724,323.4286 21.78178,323.4286 22.32632,323.4286 22.87086,323.4286 23.41542,323.4286 23.95996,323.4286 24.50451,323.4286 25.04905,323.4286 25.5936,323.4286 26.13814,323.4286 26.68269,323.4286 27.22723,323.4286 27.77177,323.4286 28.31631,323.4286 28.86086,323.4286 29.4054,323.4286 29.94995,323.4286 30.49449,323.4286 31.03904,323.4286 31.58358,323.4286 32.12813,323.4286 32.67267,323.4286 33.21722,323.4286 33.76176,323.4286 34.3063,323.4286 34.85085,323.4286 35.39539,323.4286 35.93993,323.4286 36.48448,323.4286 37.02902,323.4286 37.57357,323.4286 38.11811,323.4286 38.66266,323.4286 39.20721,323.4286 39.75175,323.4286 40.2963,323.4286 40.84084,323.4286 41.38539,323.4286 41.92993,323.4286 42.47448,323.4286 43.01902,323.4286 43.56357,323.4286 44.10811,323.4286 44.65266,323.4286 45.1972,323.4286 45.74174,323.4286 46.28629,323.4286 46.83083,323.4286 47.37537,323.4286 47.91992,323.4286 48.46446,323.4286 49.00901,323.4286 49.55355,323.4286 50.0981,323.4286 50.64265,323.4286 51.18719,323.4286 51.73173,323.4286 52.27627,323.4286 52.82082,323.4286 53.36536,323.4286 53.9099,323.4286 54.45446,323.4286 54.999,323.4286 55.54354,323.4286 56.0881,323.4286 56.63264,323.4286 57.17718,323.4286 57.72172,323.4286 58.26627,323.4286 58.81081,323.4286 59.35535,323.4286 59.89989,323.4286 60.44445,323.4286 60.98899,323.4286 61.53353,323.4286 62.07807,323.4286 62.62263,323.4286 63.16717,323.4286 63.71171,323.4286 64.25625,323.4286 64.8008,323.4286 65.34534,323.4286 65.88988,323.4286 66.43443,323.4286 66.97898,323.4286 67.52352,323.4286 68.06806,323.4286 68.6126,323.4286 69.15716,323.4286 69.7017,323.4286 70.24625,323.4286 70.79079,323.4286 71.33533,323.4286 71.87989,323.4286 72.42443,323.4286 72.96897,323.4286 73.51351,323.4286 74.05807,323.4286 74.60261,323.4286 75.14715,323.4286 75.69169,323.4286 76.23624,323.4286 76.78078,323.4286 77.32533,323.4286 77.86987,323.3508 78.41442,323.0785 78.95896,322.8062 79.50352,322.5339 80.04804,322.2617 80.5926,321.9894 81.13714,321.7171 81.68169,321.4449 82.22622,321.1726 82.77077,320.9003 83.31532,320.6281 83.85987,320.3558 84.4044,320.0835 84.94895,319.8112 85.49349,319.5389 86.03805,319.2667 86.58257,318.9944 87.12713,318.7221 87.67167,318.4499 88.21622,318.1776 88.76075,317.9053 89.30531,317.6331 89.84985,317.3608 90.3944,317.0885 90.93893,316.8162 91.48348,316.5439 92.02802,316.2717 92.57258,315.9994 93.1171,315.7271 93.66166,315.4549 94.20621,315.1826 94.75076,314.9103 95.29531,314.6381 95.83984,314.3658 96.38439,314.0935 96.92893,313.8212 97.47349,313.7143 98.01801,313.7143 98.56257,313.7143 99.10711,313.7143 99.65166,313.7143 100.1962,313.7143 100.7407,313.7143 101.2853,313.7143 101.8298,313.7143 102.3744,313.7143 102.9189,313.7143 103.4635,313.7143 104.008,313.7143 104.5525,313.7143 105.0971,313.7143 105.6416,313.7143 106.1862,313.7143 106.7307,313.7143 107.2753,313.7143 107.8198,313.7143 108.3644,313.7143 108.9089,313.7143 109.4535,313.7143 109.998,313.7143 110.5425,313.7143 111.0871,313.7143 111.6316,313.7143 112.1762,313.7143 112.7207,313.7143 113.2653,313.7143 113.8098,313.7143 114.3544,313.7143 114.8989,313.7143 115.4434,313.7143 115.988,313.7143 116.5325,313.7143 117.0771,313.7143 117.6216,313.7143 118.1662,313.7143 118.7107,313.7143 119.2553,313.7143 119.7998,313.7143 120.3443,313.7143 120.8889,313.7143 121.4334,313.7143 121.978,313.7143 122.5225,313.7143 123.0671,313.7143 123.6116,313.7143 124.1562,313.7143 124.7007,313.7143 125.2452,313.7143 125.7898,313.7143 126.3343,313.7143 126.8789,313.7143 127.4234,313.7143 127.968,313.7143 128.5125,313.7143 129.0571,313.7143 129.6016,313.7143 130.1461,313.7143 130.6907,313.7143 131.2352,313.7143 131.7798,313.7143 132.3243,313.7143 132.8689,313.7143 133.4134,313.7143 133.9579,313.7143 134.5025,313.7143 135.047,313.7143 135.5916,313.7143 136.1361,313.7143 136.6807,313.7143 137.2252,313.7143 137.7698,313.7143 138.3143,313.7143 138.8589,313.7143 139.4034,313.7143 139.9479,313.7143 140.4925,313.7143 141.037,313.7143 141.5816,313.7143 142.1261,313.7143 142.6707,313.7143 143.2152,313.7143 143.7598,313.7143 144.3043,313.7143 144.8488,313.7143 145.3934,313.7143 145.938,313.7143 146.4825,313.7143 147.027,313.7143 147.5716,313.7143 148.1161,313.7143 148.6606,313.7143 149.2052,313.7143 149.7498,313.7143 150.2943,313.7143 150.8388,313.7143 151.3834,313.7143 151.9279,313.7143 152.4725,313.7143 153.017,313.7143 153.5616,313.7143 154.1061,313.7143 154.6507,313.7143 155.1952,313.7143 155.7397,313.7143 156.2843,313.7143 156.8288,313.7143 157.3734,313.7143 157.9179,313.7143 158.4625,313.7143 159.007,313.7143 159.5516,313.7143 160.0961,313.7143 160.6407,313.7143 161.1852,313.7143 161.7297,313.7143 162.2743,313.7143 162.8188,313.7143 163.3634,313.7143 163.9079,313.7143 164.4525,313.7143 164.997,313.7143 165.5415,313.7143 166.0861,313.7143 166.6306,313.7143 167.1752,313.7143 167.7197,313.7143 168.2643,313.7143 168.8088,313.7143 169.3534,313.7143 169.8979,313.7143 170.4424,313.7143 170.987,313.7143 171.5315,313.7143 172.0761,313.7143 172.6206,313.7143 173.1652,313.7143 173.7097,313.7143 174.2543,313.7143 174.7988,313.7143 175.3434,313.7143 175.8879,313.7143 176.4324,313.7143 176.977,313.7143 177.5215,313.7143 178.0661,313.7143 178.6106,313.7143 179.1552,313.7143 179.6997,313.7143 180.2442,313.7143 180.7888,313.7143 181.3333,313.7143 181.8779,313.7143 182.4224,313.7143 182.9669,313.7143 183.5115,313.7143 184.0561,313.7143 184.6006,313.7143 185.1451,313.7143 185.6897,313.7143 186.2342,313.7143 186.7788,313.7143 187.3233,313.7143 187.8679,313.7143 188.4124,313.7143 188.957,313.7143 189.5015,313.7143 190.0461,313.7143 190.5906,313.7143 191.1351,313.7143 191.6797,313.7143 192.2242,313.7143 192.7688,313.7143 193.3133,313.7143 193.8578,313.7143 194.4024,313.7143 194.9469,313.7143 195.4915,313.7143 196.036,313.7143 196.5806,313.7143 197.1251,313.7143 197.6697,313.7143 198.2142,313.7143 198.7588,313.7143 199.3033,313.7143 199.8478,313.7143 200.3924,313.7143 200.9369,313.7143 201.4815,313.7143 202.026,313.7143 202.5706,313.7143 203.1151,313.7143 203.6597,313.7143 204.2042,313.7143 204.7487,313.7143 205.2933,313.7143 205.8378,313.7143 206.3824,313.7143 206.9269,313.7143 207.4715,313.7143 208.016,313.7143 208.5605,313.7143 209.1051,313.7143 209.6496,313.7143 210.1942,313.7143 210.7387,313.7143 211.2833,313.7143 211.8278,313.7143 212.3724,313.7143 212.9169,313.7143 213.4615,313.7143 214.006,313.7143 214.5505,313.7143 215.0951,313.7143 215.6396,313.7143 216.1842,313.7143 216.7287,313.7143 217.2733,313.7143 217.8178,313.7143 218.3624,313.7143 218.9069,313.7143 219.4514,313.7143 219.996,313.7143 220.5406,313.7143 221.0851,313.7143 221.6296,313.7143 222.1742,313.7143 222.7187,313.7143 223.2632,313.7143 223.8078,313.7143 224.3524,313.7143 224.8969,313.7143 225.4414,313.7143 225.986,313.7143 226.5305,313.7143 227.0751,313.7143 227.6196,313.7143 228.1642,313.7143 228.7087,313.7143 229.2533,313.7143 229.7978,313.7143 230.3423,313.7143 230.8869,313.7143 231.4314,313.7143 231.976,313.7143 232.5205,313.7143 233.0651,313.7143 233.6096,313.7143 234.1541,313.7143 234.6987,313.7143 235.2433,313.7143 235.7878,313.7143 236.3323,313.7143 236.8769,313.7143 237.4214,313.7143 237.966,313.7143 238.5105,313.7143 239.0551,313.7143 239.5996,313.7143 240.1442,313.7143 240.6887,313.7143 241.2332,313.7143 241.7778,313.7143 242.3223,313.7143 242.8669,313.7143 243.4114,313.7143 243.956,313.7143 244.5005,313.7143 245.045,313.7143 245.5896,313.7143 246.1341,313.7143 246.6787,313.7143 247.2232,313.7143 247.7678,313.7143 248.3123,313.7143 248.8569,313.7143 249.4014,313.7143 249.9459,313.7143 250.4905,313.7143 251.035,313.7143 251.5796,313.7143 252.1241,313.7143 252.6687,313.7143 253.2132,313.7143 253.7578,313.7143 254.3023,313.7143 254.8468,313.7143 255.3914,313.7143 255.9359,313.7143 256.4805,313.7143 257.025,313.7143 257.5696,313.7143 258.1141,313.7143 258.6586,313.7143 259.2032,313.7143 259.7477,313.7143 260.2923,313.7143 260.8368,313.7143 261.3814,313.7143 261.9259,313.7143 262.4705,313.7143 263.015,313.7143 263.5595,313.7143 264.1041,313.7143 264.6487,313.7143 265.1932,313.7143 265.7377,313.7143 266.2823,313.7143 266.8268,313.7143 267.3714,313.7143 267.9159,313.7143 268.4604,313.7143 269.005,313.7143 269.5496,313.7143 270.0941,313.7143 270.6386,313.7143 271.1832,313.7143 271.7278,313.7143 272.2722,313.7143 272.8168,313.7143 273.3614,313.7143 273.9059,313.7143 274.4504,313.7143 274.995,313.7143 275.5396,313.7143 276.0841,313.7143 276.6286,313.7143 277.1732,313.7143 277.7177,313.7143 278.2623,313.7143 278.8068,313.7143 279.3513,313.7143 279.8959,313.7143 280.4405,313.7143 280.985,313.7143 281.5295,313.7143 282.0741,313.7143 282.6186,313.7143 283.1632,313.7143 283.7077,313.7143 284.2523,313.7143 284.7968,313.7143 285.3413,313.7143 285.8859,313.7143 286.4304,313.7143 286.975,313.7143 287.5195,313.7143 288.0641,313.7143 288.6086,313.7143 289.1532,313.7143 289.6977,313.7143 290.2422,313.7143 290.7868,313.7143 291.3313,313.7143 291.8759,313.7143 292.4204,313.7143 292.965,313.7143 293.5095,313.7143 294.054,313.7143 294.5986,313.7143 295.1431,313.7143 295.6877,313.7143 296.2322,313.7143 296.7768,313.7143 297.3213,313.7143 297.8659,313.7143 298.4104,313.7143 298.955,313.7143 299.4995,313.7143 300.044,313.7143 300.5886,313.7143 301.1331,313.7143 301.6777,313.7143 302.2222,313.7143 302.7668,313.7143 303.3113,313.7143 303.8558,313.7143 304.4004,313.7143 304.9449,313.7143 305.4895,313.7143 306.034,313.7143 306.5786,313.7143 307.1231,313.7143 307.6677,313.7143 308.2122,313.7143 308.7567,313.7143 309.3013,313.7143 309.8459,313.7143 310.3904,313.7143 310.9349,313.7143 311.4795,313.7143 312.024,313.7143 312.5686,313.7143 313.1131,313.7143 313.6577,313.7143 314.2022,313.7143 314.7468,313.7143 315.2913,313.7143 315.8358,313.7143 316.3804,313.7143 316.9249,313.7143 317.4695,313.7143 318.014,313.7143 318.5586,313.7143 319.1031,313.7143 319.6476,313.7143 320.1922,313.7143 320.7367,313.7143 321.2813,313.7143 321.8258,313.7143 322.3704,313.7143 322.9149,313.7143 323.4595,313.7143 324.004,313.7143 324.5485,313.7143 325.0931,313.7143 325.6376,313.7143 326.1822,313.7143 326.7267,313.7143 327.2713,313.7143 327.8158,313.7143 328.3604,313.7143 328.9049,313.7143 329.4494,313.7143 329.994,313.7143 330.5385,313.7143 331.0831,313.7143 331.6276,313.7143 332.1722,313.7143 332.7167,313.7143 333.2612,313.7143 333.8058,313.7143 334.3503,313.7143 334.8949,313.7143 335.4394,313.7143 335.984,313.7143 336.5285,313.7143 337.0731,313.7143 337.6176,313.7143 338.1621,313.7143 338.7067,313.7143 339.2513,313.7143 339.7958,313.7143 340.3403,313.7143 340.8849,313.7143 341.4294,313.7143 341.974,313.7143 342.5185,313.7143 343.063,313.7143 343.6076,313.7143 344.1522,313.7143 344.6967,313.7143 345.2412,313.7143 345.7858,313.7143 346.3304,313.7143 346.8748,313.7143 347.4194,313.7143 347.964,313.7143 348.5085,313.7143 349.053,313.7143 349.5976,313.7143 350.1422,313.7143 350.6867,313.7143 351.2312,313.7143 351.7758,313.7143 352.3203,313.7143 352.8649,313.7143 353.4094,313.7143 353.9539,313.7143 354.4985,313.7143 355.0431,313.7143 355.5876,313.7143 356.1321,313.7143 356.6767,313.7143 357.2212,313.7143 357.7658,313.7143 358.3103,313.7143 358.8549,313.7143 359.3994,313.7143 359.944,313.7143 360.4885,313.7143 361.033,313.7143 361.5776,313.7143 362.1221,313.7143 362.6667,313.7143 363.2112,313.7143 363.7558,313.7143 364.3003,313.7143 364.8448,313.7143 365.3894,313.7143 365.9339,313.7143 366.4785,313.7143 367.023,313.7143 367.5676,313.7143 368.1121,313.7143 368.6567,313.7143 369.2012,313.7143 369.7457,313.7143 370.2903,313.7143 370.8348,313.7143 371.3794,313.7143 371.9239,313.7143 372.4685,313.7143 373.013,313.7143 373.5576,313.7143 374.1021,313.7143 374.6466,313.7143 375.1912,313.7143 375.7357,313.7143 376.2803,313.7143 376.8248,313.7143 377.3694,313.7143 377.9139,313.7143 378.4584,313.7143 379.003,313.7143 379.5475,313.7143 380.0921,313.7143 380.6366,313.7143 381.1812,313.7143 381.7257,313.7143 382.2703,313.7143 382.8148,313.7143 383.3593,313.7143 383.9039,313.7143 384.4485,313.7143 384.993,313.7143 385.5375,313.7143 386.0821,313.7143 386.6266,313.7143 387.1711,313.7143 387.7157,313.7143 388.2603,313.7143 388.8048,313.7143 389.3494,313.7143 389.8939,313.7143 390.4384,313.7143 390.983,313.7143 391.5276,313.7143 392.0721,313.7143 392.6166,313.7143 393.1612,313.7143 393.7057,313.7143 394.2502,313.7143 394.7948,313.7143 395.3394,313.7143 395.8839,313.7143 396.4284,313.7143 396.973,313.7143 397.5175,313.7143 398.0621,313.7143 398.6066,313.7143 399.1512,313.7143 399.6957,313.7143 400.2403,313.7143 400.7848,313.7143 401.3293,313.7143 401.8739,313.7143 402.4184,313.7143 402.963,313.7143 403.5075,313.7143 404.0521,313.7143 404.5966,313.7143 405.1411,313.7143 405.6857,313.7143 406.2302,313.7143 406.7748,313.7143 407.3193,313.7143 407.8639,313.7143 408.4084,313.7143 408.953,313.7143 409.4975,313.7143 410.042,313.7143 410.5866,313.7143 411.1311,313.7143 411.6757,313.7143 412.2202,313.7143 412.7648,313.7143 413.3093,313.7143 413.8539,313.7143 414.3984,313.7143 414.9429,313.7143 415.4875,313.7143 416.032,313.7143 416.5766,313.7143 417.1211,313.7143 417.6657,313.7143 418.2102,313.7143 418.7547,313.7143 419.2993,313.7143 419.8438,313.7143 420.3884,313.7143 420.933,313.7143 421.4775,313.7143 422.022,313.7143 422.5666,313.7143 423.1111,313.7143 423.6556,313.7143 424.2002,313.7143 424.7448,313.7143 425.2893,313.7143 425.8338,313.7143 426.3784,313.7143 426.9229,313.7143 427.4675,313.7143 428.012,313.7143 428.5565,313.7143 429.1011,313.7143 429.6457,313.7143 430.1902,313.7143 430.7347,313.7143 431.2793,313.7143 431.8238,313.7143 432.3683,313.7143 432.9129,313.7143 433.4575,313.7143 434.002,313.7143 434.5465,313.7143 435.0911,313.7143 435.6356,313.7143 436.1802,313.7143 436.7247,313.7143 437.2693,313.7143 437.8138,313.7143 438.3583,313.7143 438.9029,313.7143 439.4474,313.7143 439.992,313.7143 440.5366,313.7143 441.0811,313.7143 441.6256,313.7143 442.1702,313.7143 442.7147,313.7143 443.2593,313.7143 443.8038,313.7143 444.3483,313.7143 444.8929,313.7143 445.4374,313.7143 445.982,313.7143 446.5265,313.7143 447.071,313.7143 447.6156,313.7143 448.1602,313.7143 448.7047,313.7143 449.2493,313.7143 449.7938,313.7143 450.3383,313.7143 450.8829,313.7143 451.4274,313.7143 451.972,313.7143 452.5165,313.7143 453.061,313.7143 453.6056,313.7143 454.1501,313.7143 454.6947,313.7143 455.2392,313.7143 455.7838,313.7143 456.3283,313.7143 456.8729,313.7143 457.4174,313.7143 457.962,313.7143 458.5065,313.7143 459.0511,313.7143 459.5956,313.7143 460.1401,313.7143 460.6847,313.7143 461.2292,313.7143 461.7737,313.7143 462.3183,313.7143 462.8629,313.7143 463.4074,313.7143 463.9519,313.7143 464.4965,313.7143 465.041,313.7143 465.5856,313.7143 466.1301,313.7143 466.6747,313.7143 467.2192,313.7143 467.7638,313.7143 468.3083,313.7143 468.8528,313.7143 469.3974,313.7143 469.942,313.7143 470.4865,313.7143 471.031,313.7143 471.5756,313.7143 472.1201,313.7143 472.6647,313.7143 473.2092,313.7143 473.7537,313.7143 474.2983,313.7143 474.8428,313.7143 475.3874,313.7143 475.9319,313.7143 476.4765,313.7143 477.0211,313.7143 477.5656,313.7143 478.1101,313.7143 478.6547,313.7143 479.1992,313.7143 479.7437,313.7143 480.2883,313.7143 480.8328,313.7143 481.3774,313.7143 481.9219,313.7143 482.4664,313.7143 483.011,313.7143 483.5555,313.7143 484.1001,313.7143 484.6447,313.7143 485.1892,313.7143 485.7338,313.7143 486.2783,313.7143 486.8228,313.7143 487.3674,313.7143 487.9119,313.7143 488.4565,313.7143 489.001,313.7143 489.5455,313.7143 490.0901,313.7143 490.6346,313.7143 491.1791,313.7143 491.7237,313.7143 492.2682,313.7143 492.8128,313.7143 493.3574,313.7143 493.9019,313.7143 494.4465,313.7143 494.991,313.7143 495.5355,313.7143 496.0801,313.7143 496.6246,313.7143 497.1692,313.7143 497.7137,313.7143 498.2582,313.7143 498.8028,313.7143 499.3474,313.7143 499.8919,313.7143 500.4364,313.7143 500.981,313.7143 501.5255,313.7143 502.0701,313.7143 502.6146,313.7143 503.1592,313.7143 503.7037,313.7143 504.2483,313.7143 504.7928,313.7143 505.3373,313.7143 505.8819,313.7143 506.4265,313.7143 506.9709,313.7143 507.5155,313.7143 508.0601,313.7143 508.6046,313.7143 509.1491,313.7143 509.6937,313.7143 510.2382,313.7143 510.7828,313.7143 511.3273,313.7143 511.8719,313.7143 512.4164,313.7143 512.961,313.7143 513.5055,313.7143 514.05,313.7143 514.5946,313.7143 515.1392,313.7143 515.6837,313.7143 516.2282,313.7143 516.7728,313.7143 517.3173,313.7143 517.8619,313.7143 518.4064,313.7143 518.9509,313.7143 519.4955,313.7143 520.04,313.7143 520.5846,313.7143 521.1292,313.7143 521.6737,313.7143 522.2182,313.7143 522.7628,313.7143 523.3073,313.7143 523.8519,313.7143 524.3964,313.7143 524.9409,313.7143 525.4855,313.7143 526.03,313.7143 526.5746,313.7143 527.1191,313.7143 527.6636,313.7143 528.2082,313.7143 528.7527,313.7143 529.2973,313.7143 529.8419,313.7143 530.3864,313.7143 530.9309,313.7143 531.4755,313.7143 532.02,313.7143 532.5646,313.7143 533.1091,313.7143 533.6537,313.7143 534.1982,313.7143 534.7427,313.7143 535.2873,313.7143 535.8318,313.7143 536.3763,313.7143 536.9209,313.7143 537.4655,313.7143 538.01,313.7143 538.5546,313.7143 539.0991,313.7143 539.6436,313.7143 540.1882,313.7143 540.7327,313.7143 541.2773,313.7143 541.8218,313.7143 542.3664,313.7143 542.9109,313.7143 543.4554,313.7143 544,313.7143 " />
<polygon fill="url(#grad0)" stroke="none" points="0,323.4286 0,323.4286 0,323.4286 0.544548,323.4286 1.089088,323.4286 1.633636,323.4286 2.178177,323.4286 2.722725,323.4286 3.267265,323.4286 3.811813,323.4286 4.356354,323.4286 4.900902,323.4286 5.445442,323.4286 5.98999,323.4286 6.534531,323.4286 7.079079,323.4286 7.623619,323.4286 8.168175,323.4286 8.712715,323.4286 9.257263,323.4286 9.801804,323.4286 10.34635,323.4286 10.89089,323.4286 11.43544,323.4286 11.97998,323.4286 12.52453,323.4286 13.06907,323.4286 13.61362,323.4286 14.15816,323.4286 14.70271,323.4286 15.24725,323.4286 15.79179,323.4286 16.33633,323.4286 16.88088,323.4286 17.42542,323.4286 17.96997,323.4286 18.51451,323.4286 19.05906,323.4286 19.6036,323.4286 20.14815,323.4286 20.69269,323.4286 21.23724,323.4286 21.78178,323.4286 22.32632,323.4286 22.87086,323.4286 23.41542,323.4286 23.95996,323.4286 24.50451,323.4286 25.04905,323.4286 25.5936,323.4286 26.13814,323.4286 26.68269,323.4286 27.22723,323.4286 27.77177,323.4286 28.31631,323.4286 28.86086,323.4286 29.4054,323.4286 29.94995,323.4286 30.49449,323.4286 31.03904,323.4286 31.58358,323.4286 32.12813,323.4286 32.67267,323.4286 33.21722,323.4286 33.76176,323.4286 34.3063,323.4286 34.85085,323.4286 35.39539,323.4286 35.93993,323.4286 36.48448,323.4286 37.02902,323.4286 37.57357,323.4286 38.11811,323.4286 38.66266,323.4286 39.20721,323.4286 39.75175,323.4286 40.2963,323.4286 40.84084,323.4286 41.38539,323.4286 41.92993,323.4286 42.47448,323.4286 43.01902,323.4286 43.56357,323.4286 44.10811,323.4286 44.65266,323.4286 45.1972,323.4286 45.74174,323.4286 46.28629,323.4286 46.83083,323.4286 47.37537,323.4286 47.91992,323.4286 48.46446,323.4286 49.00901,323.4286 49.55355,323.4286 50.0981,323.4286 50.64265,323.4286 51.18719,323.4286 51.73173,323.4286 52.27627,323.4286 52.82082,323.4286 53.36536,323.4286 53.9099,323.4286 54.45446,323.4286 54.999,323.4286 55.54354,323.4286 56.0881,323.4286 56.63264,323.4286 57.17718,323.4286 57.72172,323.4286 58.26627,323.4286 58.81081,323.4286 59.35535,323.4286 59.89989,323.4286 60.44445,323.4286 60.98899,323.4286 61.53353,323.4286 62.07807,323.4286 62.62263,323.4286 63.16717,323.4286 63.71171,323.4286 64.25625,323.4286 64.8008,323.4286 65.34534,323.4286 65.88988,323.4286 66.43443,323.4286 66.97898,323.4286 67.52352,323.4286 68.06806,323.4286 68.6126,323.4286 69.15716,323.4286 69.7017,323.4286 70.24625,323.4286 70.79079,323.4286 71.33533,323.4286 71.87989,323.4286 72.42443,323.4286 72.96897,323.4286 73.51351,323.4286 74.05807,323.4286 74.60261,323.4286 75.14715,323.4286 75.69169,323.4286 76.23624,323.4286 76.78078,323.4286 77.32533,323.4286 77.86987,323.3508 78.41442,323.0785 78.95896,322.8062 79.50352,322.5339 80.04804,322.2617 80.5926,321.9894 81.13714,321.7171 81.68169,321.4449 82.22622,321.1726 82.77077,320.9003 83.31532,320.6281 83.85987,320.3558 84.4044,320.0835 84.94895,319.8112 85.49349,319.5389 86.03805,319.2667 86.58257,318.9944 87.12713,318.7221 87.67167,318.4499 88.21622,318.1776 88.76075,317.9053 89.30531,317.6331 89.84985,317.3608 90.3944,317.0885 90.93893,316.8162 91.48348,316.5439 92.02802,316.2717 92.57258,315.9994 93.1171,315.7271 93.66166,315.4549 94.20621,315.1826 94.75076,314.9103 95.29531,314.6381 95.83984,314.3658 96.38439,314.0935 96.92893,313.8212 97.47349,313.7143 98.01801,313.7143 98.56257,313.7143 99.10711,313.7143 99.65166,313.7143 100.1962,313.7143 100.7407,313.7143 101.2853,313.7143 101.8298,313.7143 102.3744,313.7143 102.9189,313.7143 103.4635,313.7143 104.008,313.7143 104.5525,313.7143 105.0971,313.7143 105.6416,313.7143 106.1862,313.7143 106.7307,313.7143 107.2753,313.7143 107.8198,313.7143 108.3644,313.7143 108.9089,313.7143 109.4535,313.7143 109.998,313.7143 110.5425,313.7143 111.0871,313.7143 111.6316,313.7143 112.1762,313.7143 112.7207,313.7143 113.2653,313.7143 113.8098,313.7143 114.3544,313.7143 114.8989,313.7143 115.4434,313.7143 115.988,313.7143 116.5325,313.7143 117.0771,313.7143 117.6216,313.7143 118.1662,313.7143 118.7107,313.7143 119.2553,313.7143 119.7998,313.7143 120.3443,313.7143 120.8889,313.7143 121.4334,313.7143 121.978,313.7143 122.5225,313.7143 123.0671,313.7143 123.6116,313.7143 124.1562,313.7143 124.7007,313.7143 125.2452,313.7143 125.7898,313.7143 126.3343,313.7143 126.8789,313.7143 127.4234,313.7143 127.968,313.7143 128.5125,313.7143 129.0571,313.7143 129.6016,313.7143 130.1461,313.7143 130.6907,313.7143 131.2352,313.7143 131.7798,313.7143 132.3243,313.7143 132.8689,313.7143 133.4134,313.7143 133.9579,313.7143 134.5025,313.7143 135.047,313.7143 135.5916,313.7143 136.1361,313.7143 136.6807,313.7143 137.2252,313.7143 137.7698,313.7143 138.3143,313.7143 138.8589,313.7143 139.4034,313.7143 139.9479,313.7143 140.4925,313.7143 141.037,313.7143 141.5816,313.7143 142.1261,313.7143 142.6707,313.7143 143.2152,313.7143 143.7598,313.7143 144.3043,313.7143 144.8488,313.7143 145.3934,313.7143 145.938,313.7143 146.4825,313.7143 147.027,313.7143 147.5716,313.7143 148.1161,313.7143 148.6606,313.7143 149.2052,313.7143 149.7498,313.7143 150.2943,313.7143 150.8388,313.7143 151.3834,313.7143 151.9279,313.7143 152.4725,313.7143 153.017,313.7143 153.5616,313.7143 154.1061,313.7143 154.6507,313.7143 155.1952,313.7143 155.7397,313.7143 156.2843,313.7143 156.8288,313.7143 157.3734,313.7143 157.9179,313.7143 158.4625,313.7143 159.007,313.7143 159.5516,313.7143 160.0961,313.7143 160.6407,313.7143 161.1852,313.7143 161.7297,313.7143 162.2743,313.7143 162.8188,313.7143 163.3634,313.7143 163.9079,313.7143 164.4525,313.7143 164.997,313.7143 165.5415,313.7143 166.0861,313.7143 166.6306,313.7143 167.1752,313.7143 167.7197,313.7143 168.2643,313.7143 168.8088,313.7143 169.3534,313.7143 169.8979,313.7143 170.4424,313.7143 170.987,313.7143 171.5315,313.7143 172.0761,313.7143 172.6206,313.7143 173.1652,313.7143 173.7097,313.7143 174.2543,313.7143 174.7988,313.7143 175.3434,313.7143 175.8879,313.7143 176.4324,313.7143 176.977,313.7143 177.5215,313.7143 178.0661,313.7143 178.6106,313.7143 179.1552,313.7143 179.6997,313.7143 180.2442,313.7143 180.7888,313.7143 181.3333,313.7143 181.8779,313.7143 182.4224,313.7143 182.9669,313.7143 183.5115,313.7143 184.0561,313.7143 184.6006,313.7143 185.1451,313.7143 185.6897,313.7143 186.2342,313.7143 186.7788,313.7143 187.3233,313.7143 187.8679,313.7143 188.4124,313.7143 188.957,313.7143 189.5015,313.7143 190.0461,313.7143 190.5906,313.7143 191.1351,313.7143 191.6797,313.7143 192.2242,313.7143 192.7688,313.7143 193.3133,313.7143 193.8578,313.7143 194.4024,313.7143 194.9469,313.7143 195.4915,313.7143 196.036,313.7143 196.5806,313.7143 197.1251,313.7143 197.6697,313.7143 198.2142,313.7143 198.7588,313.7143 199.3033,313.7143 199.8478,313.7143 200.3924,313.7143 200.9369,313.7143 201.4815,313.7143 202.026,313.7143 202.5706,313.7143 203.1151,313.7143 203.6597,313.7143 204.2042,313.7143 204.7487,313.7143 205.2933,313.7143 205.8378,313.7143 206.3824,313.7143 206.9269,313.7143 207.4715,313.7143 208.016,313.7143 208.5605,313.7143 209.1051,313.7143 209.6496,313.7143 210.1942,313.7143 210.7387,313.7143 211.2833,313.7143 211.8278,313.7143 212.3724,313.7143 212.9169,313.7143 213.4615,313.7143 214.006,313.7143 214.5505,313.7143 215.0951,313.7143 215.6396,313.7143 216.1842,313.7143 216.7287,313.7143 217.2733,313.7143 217.8178,313.7143 218.3624,313.7143 218.9069,313.7143 219.4514,313.7143 219.996,313.7143 220.5406,313.7143 221.0851,313.7143 221.6296,313.7143 222.1742,313.7143 222.7187,313.7143 223.2632,313.7143 223.8078,313.7143 224.3524,313.7143 224.8969,313.7143 225.4414,313.7143 225.986,313.7143 226.5305,313.7143 227.0751,313.7143 227.6196,313.7143 228.1642,313.7143 228.7087,313.7143 229.2533,313.7143 229.7978,313.7143 230.3423,313.7143 230.8869,313.7143 231.4314,313.7143 231.976,313.7143 232.5205,313.7143 233.0651,313.7143 233.6096,313.7143 234.1541,313.7143 234.6987,313.7143 235.2433,313.7143 235.7878,313.7143 236.3323,313.7143 236.8769,313.7143 237.4214,313.7143 237.966,313.7143 238.5105,313.7143 239.0551,313.7143 239.5996,313.7143 240.1442,313.7143 240.6887,313.7143 241.2332,313.7143 241.7778,313.7143 242.3223,313.7143 242.8669,313.7143 243.4114,313.7143 243.956,313.7143 244.5005,313.7143 245.045,313.7143 245.5896,313.7143 246.1341,313.7143 246.6787,313.7143 247.2232,313.7143 247.7678,313.7143 248.3123,313.7143 248.8569,313.7143 249.4014,313.7143 249.9459,313.7143 250.4905,313.7143 251.035,313.7143 251.5796,313.7143 252.1241,313.7143 252.6687,313.7143 253.2132,313.7143 253.7578,313.7143 254.3023,313.7143 254.8468,313.7143 255.3914,313.7143 255.9359,313.7143 256.4805,313.7143 257.025,313.7143 257.5696,313.7143 258.1141,313.7143 258.6586,313.7143 259.2032,313.7143 259.7477,313.7143 260.2923,313.7143 260.8368,313.7143 261.3814,313.7143 261.9259,313.7143 262.4705,313.7143 263.015,313.7143 263.5595,313.7143 264.1041,313.7143 264.6487,313.7143 265.1932,313.7143 265.7377,313.7143 266.2823,313.7143 266.8268,313.7143 267.3714,313.7143 267.9159,313.7143 268.4604,313.7143 269.005,313.7143 269.5496,313.7143 270.0941,313.7143 270.6386,313.7143 271.1832,313.7143 271.7278,313.7143 272.2722,313.7143 272.8168,313.7143 273.3614,313.7143 273.9059,313.7143 274.4504,313.7143 274.995,313.7143 275.5396,313.7143 276.0841,313.7143 276.6286,313.7143 277.1732,313.7143 277.7177,313.7143 278.2623,313.7143 278.8068,313.7143 279.3513,313.7143 279.8959,313.7143 280.4405,313.7143 280.985,313.7143 281.5295,313.7143 282.0741,313.7143 282.6186,313.7143 283.1632,313.7143 283.7077,313.7143 284.2523,313.7143 284.7968,313.7143 285.3413,313.7143 285.8859,313.7143 286.4304,313.7143 286.975,313.7143 287.5195,313.7143 288.0641,313.7143 288.6086,313.7143 289.1532,313.7143 289.6977,313.7143 290.2422,313.7143 290.7868,313.7143 291.3313,313.7143 291.8759,313.7143 292.4204,313.7143 292.965,313.7143 293.5095,313.7143 294.054,313.7143 294.5986,313.7143 295.1431,313.7143 295.6877,313.7143 296.2322,313.7143 296.7768,313.7143 297.3213,313.7143 297.8659,313.7143 298.4104,313.7143 298.955,313.7143 299.4995,313.7143 300.044,313.7143 300.5886,313.7143 301.1331,313.7143 301.6777,313.7143 302.2222,313.7143 302.7668,313.7143 303.3113,313.7143 303.8558,313.7143 304.4004,313.7143 304.9449,313.7143 305.4895,313.7143 306.034,313.7143 306.5786,313.7143 307.1231,313.7143 307.6677,313.7143 308.2122,313.7143 308.7567,313.7143 309.3013,313.7143 309.8459,313.7143 310.3904,313.7143 310.9349,313.7143 311.4795,313.7143 312.024,313.7143 312.5686,313.7143 313.1131,313.7143 313.6577,313.7143 314.2022,313.7143 314.7468,313.7143 315.2913,313.7143 315.8358,313.7143 316.3804,313.7143 316.9249,313.7143 317.4695,313.7143 318.014,313.7143 318.5586,313.7143 319.1031,313.7143 319.6476,313.7143 320.1922,313.7143 320.7367,313.7143 321.2813,313.7143 321.8258,313.7143 322.3704,313.7143 322.9149,313.7143 323.4595,313.7143 324.004,313.7143 324.5485,313.7143 325.0931,313.7143 325.6376,313.7143 326.1822,313.7143 326.7267,313.7143 327.2713,313.7143 327.8158,313.7143 328.3604,313.7143 328.9049,313.7143 329.4494,313.7143 329.994,313.7143 330.5385,313.7143 331.0831,313.7143 331.6276,313.7143 332.1722,313.7143 332.7167,313.7143 333.2612,313.7143 333.8058,313.7143 334.3503,313.7143 334.8949,313.7143 335.4394,313.7143 335.984,313.7143 336.5285,313.7143 337.0731,313.7143 337.6176,313.7143 338.1621,313.7143 338.7067,313.7143 339.2513,313.7143 339.7958,313.7143 340.3403,313.7143 340.8849,313.7143 341.4294,313.7143 341.974,313.7143 342.5185,313.7143 343.063,313.7143 343.6076,313.7143 344.1522,313.7143 344.6967,313.7143 345.2412,313.7143 345.7858,313.7143 346.3304,313.7143 346.8748,313.7143 347.4194,313.7143 347.964,313.7143 348.5085,313.7143 349.053,313.7143 349.5976,313.7143 350.1422,313.7143 350.6867,313.7143 351.2312,313.7143 351.7758,313.7143 352.3203,313.7143 352.8649,313.7143 353.4094,313.7143 353.9539,313.7143 354.4985,313.7143 355.0431,313.7143 355.5876,313.7143 356.1321,313.7143 356.6767,313.7143 357.2212,313.7143 357.7658,313.7143 358.3103,313.7143 358.8549,313.7143 359.3994,313.7143 359.944,313.7143 360.4885,313.7143 361.033,313.7143 361.5776,313.7143 362.1221,313.7143 362.6667,313.7143 363.2112,313.7143 363.7558,313.7143 364.3003,313.7143 364.8448,313.7143 365.3894,313.7143 365.9339,313.7143 366.4785,313.7143 367.023,313.7143 367.5676,313.7143 368.1121,313.7143 368.6567,313.7143 369.2012,313.7143 369.7457,313.7143 370.2903,313.7143 370.8348,313.7143 371.3794,313.7143 371.9239,313.7143 372.4685,313.7143 373.013,313.7143 373.5576,313.7143 374.1021,313.7143 374.6466,313.7143 375.1912,313.7143 375.7357,313.7143 376.2803,313.7143 376.8248,313.7143 377.3694,313.7143 377.9139,313.7143 378.4584,313.7143 379.003,313.7143 379.5475,313.7143 380.0921,313.7143 380.6366,313.7143 381.1812,313.7143 381.7257,313.7143 382.2703,313.7143 382.8148,313.7143 383.3593,313.7143 383.9039,313.7143 384.4485,313.7143 384.993,313.7143 385.5375,313.7143 386.0821,313.7143 386.6266,313.7143 387.1711,313.7143 387.7157,313.7143 388.2603,313.7143 388.8048,313.7143 389.3494,313.7143 389.8939,313.7143 390.4384,313.7143 390.983,313.7143 391.5276,313.7143 392.0721,313.7143 392.6166,313.7143 393.1612,313.7143 393.7057,313.7143 394.2502,313.7143 394.7948,313.7143 395.3394,313.7143 395.8839,313.7143 396.4284,313.7143 396.973,313.7143 397.5175,313.7143 398.0621,313.7143 398.6066,313.7143 399.1512,313.7143 399.6957,313.7143 400.2403,313.7143 400.7848,313.7143 401.3293,313.7143 401.8739,313.7143 402.4184,313.7143 402.963,313.7143 403.5075,313.7143 404.0521,313.7143 404.5966,313.7143 405.1411,313.7143 405.6857,313.7143 406.2302,313.7143 406.7748,313.7143 407.3193,313.7143 407.8639,313.7143 408.4084,313.7143 408.953,313.7143 409.4975,313.7143 410.042,313.7143 410.5866,313.7143 411.1311,313.7143 411.6757,313.7143 412.2202,313.7143 412.7648,313.7143 413.3093,313.7143 413.8539,313.7143 414.3984,313.7143 414.9429,313.7143 415.4875,313.7143 416.032,313.7143 416.5766,313.7143 417.1211,313.7143 417.6657,313.7143 418.2102,313.7143 418.7547,313.7143 419.2993,313.7143 419.8438,313.7143 420.3884,313.7143 420.933,313.7143 421.4775,313.7143 422.022,313.7143 422.5666,313.7143 423.1111,313.7143 423.6556,313.7143 424.2002,313.7143 424.7448,313.7143 425.2893,313.7143 425.8338,313.7143 426.3784,313.7143 426.9229,313.7143 427.4675,313.7143 428.012,313.7143 428.5565,313.7143 429.1011,313.7143 429.6457,313.7143 430.1902,313.7143 430.7347,313.7143 431.2793,313.7143 431.8238,313.7143 432.3683,313.7143 432.9129,313.7143 433.4575,313.7143 434.002,313.7143 434.5465,313.7143 435.0911,313.7143 435.6356,313.7143 436.1802,313.7143 436.7247,313.7143 437.2693,313.7143 437.8138,313.7143 438.3583,313.7143 438.9029,313.7143 439.4474,313.7143 439.992,313.7143 440.5366,313.7143 441.0811,313.7143 441.6256,313.7143 442.1702,313.7143 442.7147,313.7143 443.2593,313.7143 443.8038,313.7143 444.3483,313.7143 444.8929,313.7143 445.4374,313.7143 445.982,313.7143 446.5265,313.7143 447.071,313.7143 447.6156,313.7143 448.1602,313.7143 448.7047,313.7143 449.2493,313.7143 449.7938,313.7143 450.3383,313.7143 450.8829,313.7143 451.4274,313.7143 451.972,313.7143 452.5165,313.7143 453.061,313.7143 453.6056,313.7143 454.1501,313.7143 454.6947,313.7143 455.2392,313.7143 455.7838,313.7143 456.3283,313.7143 456.8729,313.7143 457.4174,313.7143 457.962,313.7143 458.5065,313.7143 459.0511,313.7143 459.5956,313.7143 460.1401,313.7143 460.6847,313.7143 461.2292,313.7143 461.7737,313.7143 462.3183,313.7143 462.8629,313.7143 463.4074,313.7143 463.9519,313.7143 464.4965,313.7143 465.041,313.7143 465.5856,313.7143 466.1301,313.7143 466.6747,313.7143 467.2192,313.7143 467.7638,313.7143 468.3083,313.7143 468.8528,313.7143 469.3974,313.7143 469.942,313.7143 470.4865,313.7143 471.031,313.7143 471.5756,313.7143 472.1201,313.7143 472.6647,313.7143 473.2092,313.7143 473.7537,313.7143 474.2983,313.7143 474.8428,313.7143 475.3874,313.7143 475.9319,313.7143 476.4765,313.7143 477.0211,313.7143 477.5656,313.7143 478.1101,313.7143 478.6547,313.7143 479.1992,313.7143 479.7437,313.7143 480.2883,313.7143 480.8328,313.7143 481.3774,313.7143 481.9219,313.7143 482.4664,313.7143 483.011,313.7143 483.5555,313.7143 484.1001,313.7143 484.6447,313.7143 485.1892,313.7143 485.7338,313.7143 486.2783,313.7143 486.8228,313.7143 487.3674,313.7143 487.9119,313.7143 488.4565,313.7143 489.001,313.7143 489.5455,313.7143 490.0901,313.7143 490.6346,313.7143 491.1791,313.7143 491.7237,313.7143 492.2682,313.7143 492.8128,313.7143 493.3574,313.7143 493.9019,313.7143 494.4465,313.7143 494.991,313.7143 495.5355,313.7143 496.0801,313.7143 496.6246,313.7143 497.1692,313.7143 497.7137,313.7143 498.2582,313.7143 498.8028,313.7143 499.3474,313.7143 499.8919,313.7143 500.4364,313.7143 500.981,313.7143 501.5255,313.7143 502.0701,313.7143 502.6146,313.7143 503.1592,313.7143 503.7037,313.7143 504.2483,313.7143 504.7928,313.7143 505.3373,313.7143 505.8819,313.7143 506.4265,313.7143 506.9709,313.7143 507.5155,313.7143 508.0601,313.7143 508.6046,313.7143 509.1491,313.7143 509.6937,313.7143 510.2382,313.7143 510.7828,313.7143 511.3273,313.7143 511.8719,313.7143 512.4164,313.7143 512.961,313.7143 513.5055,313.7143 514.05,313.7143 514.5946,313.7143 515.1392,313.7143 515.6837,313.7143 516.2282,313.7143 516.7728,313.7143 517.3173,313.7143 517.8619,313.7143 518.4064,313.7143 518.9509,313.7143 519.4955,313.7143 520.04,313.7143 520.5846,313.7143 521.1292,313.7143 521.6737,313.7143 522.2182,313.7143 522.7628,313.7143 523.3073,313.7143 523.8519,313.7143 524.3964,313.7143 524.9409,313.7143 525.4855,313.7143 526.03,313.7143 526.5746,313.7143 527.1191,313.7143 527.6636,313.7143 528.2082,313.7143 528.7527,313.7143 529.2973,313.7143 529.8419,313.7143 530.3864,313.7143 530.9309,313.7143 531.4755,313.7143 532.02,313.7143 532.5646,313.7143 533.1091,313.7143 533.6537,313.7143 534.1982,313.7143 534.7427,313.7143 535.2873,313.7143 535.8318,313.7143 536.3763,313.7143 536.9209,313.7143 537.4655,313.7143 538.01,313.7143 538.5546,313.7143 539.0991,313.7143 539.6436,313.7143 540.1882,313.7143 540.7327,313.7143 541.2773,313.7143 541.8218,313.7143 542.3664,313.7143 542.9109,313.7143 543.4554,313.7143 544,313.7143 544,323.4286 " />
</g>
<g id="column(w)">
<polyline stroke="#9400D3" stroke-opacity="0.6431373" stroke-linecap="round" stroke-linejoin="round" stroke-width="3" fill="none" points="0,245.7143 0.544548,245.1697 1.089088,244.6252 1.633636,244.0806 2.178177,243.5361 2.722725,242.9915 3.267265,242.447 3.811813,241.9025 4.356354,241.3579 4.900902,240.8134 5.445442,240.2688 5.98999,239.7243 6.534531,239.1797 7.079079,238.6352 7.623619,238.0907 8.168175,237.5461 8.712715,237.0016 9.257263,236.457 9.801804,235.9125 10.34635,235.3679 10.89089,234.8234 11.43544,234.2788 11.97998,233.7343 12.52453,233.1897 13.06907,232.6452 13.61362,232.1006 14.15816,231.5561 14.70271,231.0116 15.24725,230.467 15.79179,229.9225 16.33633,229.3779 16.88088,228.8334 17.42542,228.2888 17.96997,227.7443 18.51451,227.1998 19.05906,226.6552 19.6036,226.1107 20.14815,225.5661 20.69269,225.0216 21.23724,224.477 21.78178,223.9325 22.32632,223.3879 22.87086,222.8434 23.41542,222.2989 23.95996,221.7543 24.50451,221.2098 25.04905,220.6652 25.5936,220.1207 26.13814,219.5761 26.68269,219.0316 27.22723,218.487 27.77177,217.9425 28.31631,217.3979 28.86086,216.8534 29.4054,216.3089 29.94995,215.7643 30.49449,215.2198 31.03904,214.6752 31.58358,214.1307 32.12813,213.5862 32.67267,213.0416 33.21722,212.4971 33.76176,211.9525 34.3063,211.408 34.85085,210.8634 35.39539,210.3189 35.93993,209.7743 36.48448,209.2298 37.02902,208.6852 37.57357,208.1407 38.11811,207.5962 38.66266,207.0516 39.20721,206.507 39.75175,205.9625 40.2963,205.418 40.84084,204.8734 41.38539,204.3289 41.92993,203.7843 42.47448,203.2398 43.01902,202.6953 43.56357,202.1507 44.10811,201.6062 44.65266,201.0616 45.1972,200.5171 45.74174,199.9725 46.28629,199.428 46.83083,198.8834 47.37537,198.3389 47.91992,197.7943 48.46446,197.2498 49.00901,196.7053 49.55355,196.1607 50.0981,195.6162 50.64265,195.0716 51.18719,194.5271 51.73173,193.9825 52.27627,193.438 52.82082,192.8934 53.36536,192.3489 53.9099,191.8044 54.45446,191.2598 54.999,190.7153 55.54354,190.1707 56.0881,189.6262 56.63264,189.0816 57.17718,188.5371 57.72172,187.9926 58.26627,187.448 58.81081,186.9035 59.35535,186.3589 59.89989,185.8144 60.44445,185.2698 60.98899,184.7253 61.53353,184.1807 62.07807,183.6362 62.62263,183.0916 63.16717,182.5471 63.71171,182.0026 64.25625,181.458 64.8008,180.9135 65.34534,180.3689 65.88988,179.8244 66.43443,179.2798 66.97898,178.7353 67.52352,178.1908 68.06806,177.6462 68.6126,177.1017 69.15716,176.5571 69.7017,176.0126 70.24625,175.468 70.79079,174.9235 71.33533,174.3789 71.87989,173.8344 72.42443,173.2898 72.96897,172.7453 73.51351,172.2008 74.05807,171.6562 74.60261,171.1117 75.14715,170.5671 75.69169,170.0226 76.23624,169.478 76.78078,168.9335 77.32533,168.3889 77.86987,168 78.41442,168 78.95896,168 79.50352,168 80.04804,168 80.5926,168 81.13714,168 81.68169,168 82.22622,168 82.77077,168 83.31532,168 83.85987,168 84.4044,168 84.94895,168 85.49349,168 86.03805,168 86.58257,168 87.12713,168 87.67167,168 88.21622,168 88.76075,168 89.30531,168 89.84985,168 90.3944,168 90.93893,168 91.48348,168 92.02802,168 92.57258,168 93.1171,168 93.66166,168 94.20621,168 94.75076,168 95.29531,168 95.83984,168 96.38439,168 96.92893,168 97.47349,167.6694 98.01801,167.1248 98.56257,166.5803 99.10711,166.0357 99.65166,165.4912 100.1962,164.9467 100.7407,164.4021 101.2853,163.8576 101.8298,163.313 102.3744,162.7685 102.9189,162.2239 103.4635,161.6794 104.008,161.1348 104.5525,160.5903 105.0971,160.0457 105.6416,159.5012 106.1862,158.9566 106.7307,158.4121 107.2753,157.8676 107.8198,157.323 108.3644,156.7785 108.9089,156.2339 109.4535,155.6894 109.998,155.1448 110.5425,154.6003 111.0871,154.0557 111.6316,153.5112 112.1762,152.9667 112.7207,152.4221 113.2653,151.8776 113.8098,151.333 114.3544,150.7885 114.8989,150.2439 115.4434,149.6994 115.988,149.1549 116.5325,148.6103 117.0771,148.0658 117.6216,147.5212 118.1662,146.9767 118.7107,146.4321 119.2553,145.8876 119.7998,145.343 120.3443,144.7985 120.8889,144.254 121.4334,143.7094 121.978,143.1649 122.5225,142.6203 123.0671,142.0758 123.6116,141.5312 124.1562,140.9867 124.7007,140.4421 125.2452,139.8976 125.7898,139.353 126.3343,138.8085 126.8789,138.264 127.4234,137.7194 127.968,137.1749 128.5125,136.6303 129.0571,136.0858 129.6016,135.5412 130.1461,134.9967 130.6907,134.4521 131.2352,133.9076 131.7798,133.3631 132.3243,132.8185 132.8689,132.274 133.4134,131.7294 133.9579,131.1849 134.5025,130.6403 135.047,130.0958 135.5916,129.5513 136.1361,129.0067 136.6807,128.4622 137.2252,127.9176 137.7698,127.3731 138.3143,126.8285 138.8589,126.284 139.4034,125.7394 139.9479,125.1949 140.4925,124.6503 141.037,124.1058 141.5816,123.5612 142.1261,123.0167 142.6707,122.4722 143.2152,121.9276 143.7598,121.3831 144.3043,120.8385 144.8488,120.294 145.3934,119.7495 145.938,119.2049 146.4825,118.6604 147.027,118.1158 147.5716,117.5713 148.1161,117.0267 148.6606,116.4822 149.2052,115.9376 149.7498,115.3931 150.2943,114.8485 150.8388,114.304 151.3834,113.7595 151.9279,113.2149 152.4725,112.6704 153.017,112.1258 153.5616,111.5813 154.1061,111.0367 154.6507,110.4922 155.1952,109.9477 155.7397,109.4031 156.2843,108.8586 156.8288,108.314 157.3734,107.7695 157.9179,107.2249 158.4625,106.6804 159.007,106.1358 159.5516,105.5913 160.0961,105.0468 160.6407,104.5022 161.1852,103.9577 161.7297,103.4131 162.2743,102.8686 162.8188,102.324 163.3634,101.7795 163.9079,101.2349 164.4525,100.6904 164.997,100.1458 165.5415,99.6013 166.0861,99.05675 166.6306,98.51222 167.1752,97.96767 167.7197,97.42313 168.2643,96.87857 168.8088,96.33405 169.3534,95.78949 169.8979,95.24495 170.4424,94.70039 170.987,94.15584 171.5315,93.61131 172.0761,93.06676 172.6206,92.52222 173.1652,91.97766 173.7097,91.43314 174.2543,90.88858 174.7988,90.34404 175.3434,89.79948 175.8879,89.25496 176.4324,88.7104 176.977,88.16586 177.5215,87.62131 178.0661,87.07678 178.6106,86.53223 179.1552,85.98769 179.6997,85.44313 180.2442,84.89861 180.7888,84.35405 181.3333,83.80951 181.8779,83.26495 182.4224,82.72043 182.9669,82.17587 183.5115,81.63133 184.0561,81.08678 184.6006,80.54225 185.1451,79.9977 185.6897,79.45316 186.2342,78.9086 186.7788,78.36406 187.3233,77.81952 187.8679,77.27496 188.4124,76.73042 188.957,76.18588 189.5015,75.64134 190.0461,75.09679 190.5906,74.55225 191.1351,74.00771 191.6797,73.46317 192.2242,72.91861 192.7688,72.37407 193.3133,71.82953 193.8578,71.28499 194.4024,70.74043 194.9469,70.19589 195.4915,69.65135 196.036,69.10681 196.5806,68.56226 197.1251,68.01772 197.6697,67.47318 198.2142,66.92862 198.7588,66.38409 199.3033,65.83954 199.8478,65.29498 200.3924,64.75046 200.9369,64.2059 201.4815,63.66138 202.026,63.11682 202.5706,62.57227 203.1151,62.02774 203.6597,61.48318 204.2042,60.93863 204.7487,60.39407 205.2933,59.84955 205.8378,59.30499 206.3824,58.76047 206.9269,58.21591 207.4715,57.67139 208.016,57.12683 208.5605,56.58228 209.1051,56.03772 209.6496,55.49319 210.1942,54.94864 210.7387,54.40411 211.2833,53.85956 211.8278,53.31503 212.3724,52.77048 212.9169,52.22592 213.4615,51.68137 214.006,51.13684 214.5505,50.59229 215.0951,50.04776 215.6396,49.5032 216.1842,48.95868 216.7287,48.41412 217.2733,47.86957 217.8178,47.32501 218.3624,46.78046 218.9069,46.23593 219.4514,45.69138 219.996,45.14685 220.5406,44.60229 221.0851,44.05777 221.6296,43.51321 222.1742,42.96866 222.7187,42.4241 223.2632,41.87958 223.8078,41.33502 224.3524,40.7905 224.8969,40.24594 225.4414,39.70142 225.986,39.15686 226.5305,38.6123 227.0751,38.06775 227.6196,37.52322 228.1642,36.97867 228.7087,36.43414 229.2533,35.88959 229.7978,35.34506 230.3423,34.80051 230.8869,34.25595 231.4314,33.7114 231.976,33.16687 232.5205,32.62231 233.0651,32.07779 233.6096,31.53323 234.1541,30.98868 234.6987,30.44415 235.2433,29.8996 235.7878,29.35504 236.3323,28.81049 236.8769,28.26596 237.4214,27.72141 237.966,27.17688 238.5105,26.63232 239.0551,26.0878 239.5996,25.54324 240.1442,24.99869 240.6887,24.45413 241.2332,23.90961 241.7778,23.36505 242.3223,22.82053 242.8669,22.27597 243.4114,21.73145 243.956,21.18689 244.5005,20.64233 245.045,20.09778 245.5896,19.55325 246.1341,19.0087 246.6787,18.46417 247.2232,17.91962 247.7678,17.37509 248.3123,16.83054 248.8569,16.28598 249.4014,15.74142 249.9459,15.1969 250.4905,14.65234 251.035,14.10779 251.5796,13.56326 252.1241,13.01871 252.6687,12.57141 253.2132,12.57141 253.7578,12.57141 254.3023,12.57141 254.8468,12.57141 255.3914,12.57141 255.9359,12.57141 256.4805,12.57141 257.025,12.57141 257.5696,12.57141 258.1141,12.57141 258.6586,12.57141 259.2032,12.57141 259.7477,12.57141 260.2923,12.57141 260.8368,12.57141 261.3814,12.57141 261.9259,12.57141 262.4705,12.57141 263.015,12.57141 263.5595,12.57141 264.1041,12.57141 264.6487,12.57141 265.1932,12.57141 265.7377,12.57141 266.2823,12.57141 266.8268,12.57141 267.3714,12.57141 267.9159,12.57141 268.4604,12.57141 269.005,12.57141 269.5496,12.57141 270.0941,12.57141 270.6386,12.57141 271.1832,12.57141 271.7278,12.57141 272.2722,12.57141 272.8168,12.57141 273.3614,12.57141 273.9059,12.57141 274.4504,12.57141 274.995,12.57141 275.5396,12.57141 276.0841,12.57141 276.6286,12.57141 277.1732,12.57141 277.7177,12.57141 278.2623,12.57141 278.8068,12.57141 279.3513,12.57141 279.8959,12.57141 280.4405,12.57141 280.985,12.57141 281.5295,12.57141 282.0741,12.57141 282.6186,12.57141 283.1632,12.57141 283.7077,12.57141 284.2523,12.57141 284.7968,12.57141 285.3413,12.57141 285.8859,12.57141 286.4304,12.57141 286.975,12.57141 287.5195,12.57141 288.0641,12.57141 288.6086,12.57141 289.1532,12.57141 289.6977,12.57141 290.2422,12.57141 290.7868,12.57141 291.3313,12.57141 291.8759,12.57141 292.4204,12.57141 292.965,12.57141 293.5095,12.57141 294.054,12.57141 294.5986,12.57141 295.1431,12.57141 295.6877,12.57141 296.2322,12.57141 296.7768,12.57141 297.3213,12.57141 297.8659,12.57141 298.4104,12.57141 298.955,12.57141 299.4995,12.57141 300.044,12.57141 300.5886,12.57141 301.1331,12.57141 301.6777,12.57141 302.2222,12.57141 302.7668,12.57141 303.3113,12.57141 303.8558,12.57141 304.4004,12.57141 304.9449,12.57141 305.4895,12.57141 306.034,12.57141 306.5786,12.57141 307.1231,12.57141 307.6677,12.57141 308.2122,12.57141 308.7567,12.57141 309.3013,12.57141 309.8459,12.57141 310.3904,12.57141 310.9349,12.57141 311.4795,12.57141 312.024,12.57141 312.5686,12.57141 313.1131,12.57141 313.6577,12.57141 314.2022,12.57141 314.7468,12.57141 315.2913,12.57141 315.8358,12.57141 316.3804,12.57141 316.9249,12.57141 317.4695,12.57141 318.014,12.57141 318.5586,12.57141 319.1031,12.57141 319.6476,12.57141 320.1922,12.57141 320.7367,12.57141 321.2813,12.57141 321.8258,12.57141 322.3704,12.57141 322.9149,12.57141 323.4595,12.57141 324.004,12.57141 324.5485,12.57141 325.0931,12.57141 325.6376,12.57141 326.1822,12.57141 326.7267,12.57141 327.2713,12.57141 327.8158,12.57141 328.3604,12.57141 328.9049,12.57141 329.4494,12.57141 329.994,12.57141 330.5385,12.57141 331.0831,12.57141 331.6276,12.57141 332.1722,12.57141 332.7167,12.57141 333.2612,12.57141 333.8058,12.57141 334.3503,12.57141 334.8949,12.57141 335.4394,12.57141 335.984,12.57141 336.5285,12.57141 337.0731,12.57141 337.6176,12.57141 338.1621,12.57141 338.7067,12.57141 339.2513,12.57141 339.7958,12.57141 340.3403,12.57141 340.8849,12.57141 341.4294,12.57141 341.974,12.57141 342.5185,12.57141 343.063,12.57141 343.6076,12.57141 344.1522,12.57141 344.6967,12.57141 345.2412,12.57141 345.7858,12.57141 346.3304,12.57141 346.8748,12.57141 347.4194,12.57141 347.964,12.57141 348.5085,12.57141 349.053,12.57141 349.5976,12.57141 350.1422,12.57141 350.6867,12.57141 351.2312,12.57141 351.7758,12.57141 352.3203,12.57141 352.8649,12.57141 353.4094,12.57141 353.9539,12.57141 354.4985,12.57141 355.0431,12.57141 355.5876,12.57141 356.1321,12.57141 356.6767,12.57141 357.2212,12.57141 357.7658,12.57141 358.3103,12.57141 358.8549,12.57141 359.3994,12.57141 359.944,12.57141 360.4885,12.57141 361.033,12.57141 361.5776,12.57141 362.1221,12.57141 362.6667,12.57141 363.2112,12.57141 363.7558,12.57141 364.3003,12.57141 364.8448,12.57141 365.3894,12.57141 365.9339,12.57141 366.4785,12.57141 367.023,12.57141 367.5676,12.57141 368.1121,12.57141 368.6567,12.57141 369.2012,12.57141 369.7457,12.57141 370.2903,12.57141 370.8348,12.57141 371.3794,12.57141 371.9239,12.57141 372.4685,12.57141 373.013,12.57141 373.5576,12.57141 374.1021,12.57141 374.6466,12.57141 375.1912,12.57141 375.7357,12.57141 376.2803,12.57141 376.8248,12.57141 377.3694,12.57141 377.9139,12.57141 378.4584,12.57141 379.003,12.57141 379.5475,12.57141 380.0921,12.57141 380.6366,12.57141 381.1812,12.57141 381.7257,12.57141 382.2703,12.57141 382.8148,12.57141 383.3593,12.57141 383.9039,12.57141 384.4485,12.57141 384.993,12.57141 385.5375,12.57141 386.0821,12.57141 386.6266,12.57141 387.1711,12.57141 387.7157,12.57141 388.2603,12.57141 388.8048,12.57141 389.3494,12.57141 389.8939,12.57141 390.4384,12.57141 390.983,12.57141 391.5276,12.57141 392.0721,12.57141 392.6166,12.57141 393.1612,12.57141 393.7057,12.57141 394.2502,12.57141 394.7948,12.57141 395.3394,12.57141 395.8839,12.57141 396.4284,12.57141 396.973,12.57141 397.5175,12.57141 398.0621,12.57141 398.6066,12.57141 399.1512,12.57141 399.6957,12.57141 400.2403,12.57141 400.7848,12.57141 401.3293,12.57141 401.8739,12.57141 402.4184,12.57141 402.963,12.57141 403.5075,12.57141 404.0521,12.57141 404.5966,12.57141 405.1411,12.57141 405.6857,12.57141 406.2302,12.57141 406.7748,12.57141 407.3193,12.57141 407.8639,12.57141 408.4084,12.57141 408.953,12.57141 409.4975,12.57141 410.042,12.57141 410.5866,12.57141 411.1311,12.57141 411.6757,12.57141 412.2202,12.57141 412.7648,12.57141 413.3093,12.57141 413.8539,12.57141 414.3984,12.57141 414.9429,12.57141 415.4875,12.57141 416.032,12.57141 416.5766,12.57141 417.1211,12.57141 417.6657,12.57141 418.2102,12.57141 418.7547,12.57141 419.2993,12.57141 419.8438,12.57141 420.3884,12.57141 420.933,12.57141 421.4775,12.57141 422.022,12.57141 422.5666,12.57141 423.1111,12.57141 423.6556,12.57141 424.2002,12.57141 424.7448,12.57141 425.2893,12.57141 425.8338,12.57141 426.3784,12.57141 426.9229,12.57141 427.4675,12.57141 428.012,12.57141 428.5565,12.57141 429.1011,12.57141 429.6457,12.57141 430.1902,12.57141 430.7347,12.57141 431.2793,12.57141 431.8238,12.57141 432.3683,12.57141 432.9129,12.57141 433.4575,12.57141 434.002,12.57141 434.5465,12.57141 435.0911,12.57141 435.6356,12.57141 436.1802,12.57141 436.7247,12.57141 437.2693,12.57141 437.8138,12.57141 438.3583,12.57141 438.9029,12.57141 439.4474,12.57141 439.992,12.57141 440.5366,12.57141 441.0811,12.57141 441.6256,12.57141 442.1702,12.57141 442.7147,12.57141 443.2593,12.57141 443.8038,12.57141 444.3483,12.57141 444.8929,12.57141 445.4374,12.57141 445.982,12.57141 446.5265,12.57141 447.071,12.57141 447.6156,12.57141 448.1602,12.57141 448.7047,12.57141 449.2493,12.57141 449.7938,12.57141 450.3383,12.57141 450.8829,12.57141 451.4274,12.57141 451.972,12.57141 452.5165,12.57141 453.061,12.57141 453.6056,12.57141 454.1501,12.57141 454.6947,12.57141 455.2392,12.57141 455.7838,12.57141 456.3283,12.57141 456.8729,12.57141 457.4174,12.57141 457.962,12.57141 458.5065,12.57141 459.0511,12.57141 459.5956,12.57141 460.1401,12.57141 460.6847,12.57141 461.2292,12.57141 461.7737,12.57141 462.3183,12.57141 462.8629,12.57141 463.4074,12.57141 463.9519,12.57141 464.4965,12.57141 465.041,12.57141 465.5856,12.57141 466.1301,12.57141 466.6747,12.57141 467.2192,12.57141 467.7638,12.57141 468.3083,12.57141 468.8528,12.57141 469.3974,12.57141 469.942,12.57141 470.4865,12.57141 471.031,12.57141 471.5756,12.57141 472.1201,12.57141 472.6647,12.57141 473.2092,12.57141 473.7537,12.57141 474.2983,12.57141 474.8428,12.57141 475.3874,12.57141 475.9319,12.57141 476.4765,12.57141 477.0211,12.57141 477.5656,12.57141 478.1101,12.57141 478.6547,12.57141 479.1992,12.57141 479.7437,12.57141 480.2883,12.57141 480.8328,12.57141 481.3774,12.57141 481.9219,12.57141 482.4664,12.57141 483.011,12.57141 483.5555,12.57141 484.1001,12.57141 484.6447,12.57141 485.1892,12.57141 485.7338,12.57141 486.2783,12.57141 486.8228,12.57141 487.3674,12.57141 487.9119,12.57141 488.4565,12.57141 489.001,12.57141 489.5455,12.57141 490.0901,12.57141 490.6346,12.57141 491.1791,12.57141 491.7237,12.57141 492.2682,12.57141 492.8128,12.57141 493.3574,12.57141 493.9019,12.57141 494.4465,12.57141 494.991,12.57141 495.5355,12.57141 496.0801,12.57141 496.6246,12.57141 497.1692,12.57141 497.7137,12.57141 498.2582,12.57141 498.8028,12.57141 499.3474,12.57141 499.8919,12.57141 500.4364,12.57141 500.981,12.57141 501.5255,12.57141 502.0701,12.57141 502.6146,12.57141 503.1592,12.57141 503.7037,12.57141 504.2483,12.57141 504.7928,12.57141 505.3373,12.57141 505.8819,12.57141 506.4265,12.57141 506.9709,12.57141 507.5155,12.57141 508.0601,12.57141 508.6046,12.57141 509.1491,12.57141 509.6937,12.57141 510.2382,12.57141 510.7828,12.57141 511.3273,12.57141 511.8719,12.57141 512.4164,12.57141 512.961,12.57141 513.5055,12.57141 514.05,12.57141 514.5946,12.57141 515.1392,12.57141 515.6837,12.57141 516.2282,12.57141 516.7728,12.57141 517.3173,12.57141 517.8619,12.57141 518.4064,12.57141 518.9509,12.57141 519.4955,12.57141 520.04,12.57141 520.5846,12.57141 521.1292,12.57141 521.6737,12.57141 522.2182,12.57141 522.7628,12.57141 523.3073,12.57141 523.8519,12.57141 524.3964,12.57141 524.9409,12.57141 525.4855,12.57141 526.03,12.57141 526.5746,12.57141 527.1191,12.57141 527.6636,12.57141 528.2082,12.57141 528.7527,12.57141 529.2973,12.57141 529.8419,12.57141 530.3864,12.57141 530.9309,12.57141 531.4755,12.57141 532.02,12.57141 532.5646,12.57141 533.1091,12.57141 533.6537,12.57141 534.1982,12.57141 534.7427,12.57141 535.2873,12.57141 535.8318,12.57141 536.3763,12.57141 536.9209,12.57141 537.4655,12.57141 538.01,12.57141 538.5546,12.57141 539.0991,12.57141 539.6436,12.57141 540.1882,12.57141 540.7327,12.57141 541.2773,12.57141 541.8218,12.57141 542.3664,12.57141 542.9109,12.57141 543.4554,12.57141 544,12.57141 " />
<polygon fill="url(#grad1)" stroke="none" points="0,323.4286 0,245.7143 0,245.7143 0.544548,245.1697 1.089088,244.6252 1.633636,244.0806 2.178177,243.5361 2.722725,242.9915 3.267265,242.447 3.811813,241.9025 4.356354,241.3579 4.900902,240.8134 5.445442,240.2688 5.98999,239.7243 6.534531,239.1797 7.079079,238.6352 7.623619,238.0907 8.168175,237.5461 8.712715,237.0016 9.257263,236.457 9.801804,235.9125 10.34635,235.3679 10.89089,234.8234 11.43544,234.2788 11.97998,233.7343 12.52453,233.1897 13.06907,232.6452 13.61362,232.1006 14.15816,231.5561 14.70271,231.0116 15.24725,230.467 15.79179,229.9225 16.33633,229.3779 16.88088,228.8334 17.42542,228.2888 17.96997,227.7443 18.51451,227.1998 19.05906,226.6552 19.6036,226.1107 20.14815,225.5661 20.69269,225.0216 21.23724,224.477 21.78178,223.9325 22.32632,223.3879 22.87086,222.8434 23.41542,222.2989 23.95996,221.7543 24.50451,221.2098 25.04905,220.6652 25.5936,220.1207 26.13814,219.5761 26.68269,219.0316 27.22723,218.487 27.77177,217.9425 28.31631,217.3979 28.86086,216.8534 29.4054,216.3089 29.94995,215.7643 30.49449,215.2198 31.03904,214.6752 31.58358,214.1307 32.12813,213.5862 32.67267,213.0416 33.21722,212.4971 33.76176,211.9525 34.3063,211.408 34.85085,210.8634 35.39539,210.3189 35.93993,209.7743 36.48448,209.2298 37.02902,208.6852 37.57357,208.1407 38.11811,207.5962 38.66266,207.0516 39.20721,206.507 39.75175,205.9625 40.2963,205.418 40.84084,204.8734 41.38539,204.3289 41.92993,203.7843 42.47448,203.2398 43.01902,202.6953 43.56357,202.1507 44.10811,201.6062 44.65266,201.0616 45.1972,200.5171 45.74174,199.9725 46.28629,199.428 46.83083,198.8834 47.37537,198.3389 47.91992,197.7943 48.46446,197.2498 49.00901,196.7053 49.55355,196.1607 50.0981,195.6162 50.64265,195.0716 51.18719,194.5271 51.73173,193.9825 52.27627,193.438 52.82082,192.8934 53.36536,192.3489 53.9099,191.8044 54.45446,191.2598 54.999,190.7153 55.54354,190.1707 56.0881,189.6262 56.63264,189.0816 57.17718,188.5371 57.72172,187.9926 58.26627,187.448 58.81081,186.9035 59.35535,186.3589 59.89989,185.8144 60.44445,185.2698 60.98899,184.7253 61.53353,184.1807 62.07807,183.6362 62.62263,183.0916 63.16717,182.5471 63.71171,182.0026 64.25625,181.458 64.8008,180.9135 65.34534,180.3689 65.88988,179.8244 66.43443,179.2798 66.97898,178.7353 67.52352,178.1908 68.06806,177.6462 68.6126,177.1017 69.15716,176.5571 69.7017,176.0126 70.24625,175.468 70.79079,174.9235 71.33533,174.3789 71.87989,173.8344 72.42443,173.2898 72.96897,172.7453 73.51351,172.2008 74.05807,171.6562 74.60261,171.1117 75.14715,170.5671 75.69169,170.0226 76.23624,169.478 76.78078,168.9335 77.32533,168.3889 77.86987,168 78.41442,168 78.95896,168 79.50352,168 80.04804,168 80.5926,168 81.13714,168 81.68169,168 82.22622,168 82.77077,168 83.31532,168 83.85987,168 84.4044,168 84.94895,168 85.49349,168 86.03805,168 86.58257,168 87.12713,168 87.67167,168 88.21622,168 88.76075,168 89.30531,168 89.84985,168 90.3944,168 90.93893,168 91.48348,168 92.02802,168 92.57258,168 93.1171,168 93.66166,168 94.20621,168 94.75076,168 95.29531,168 95.83984,168 96.38439,168 96.92893,168 97.47349,167.6694 98.01801,167.1248 98.56257,166.5803 99.10711,166.0357 99.65166,165.4912 100.1962,164.9467 100.7407,164.4021 101.2853,163.8576 101.8298,163.313 102.3744,162.7685 102.9189,162.2239 103.4635,161.6794 104.008,161.1348 104.5525,160.5903 105.0971,160.0457 105.6416,159.5012 106.1862,158.9566 106.7307,158.4121 107.2753,157.8676 107.8198,157.323 108.3644,156.7785 108.9089,156.2339 109.4535,155.6894 109.998,155.1448 110.5425,154.6003 111.0871,154.0557 111.6316,153.5112 112.1762,152.9667 112.7207,152.4221 113.2653,151.8776 113.8098,151.333 114.3544,150.7885 114.8989,150.2439 115.4434,149.6994 115.988,149.1549 116.5325,148.6103 117.0771,148.0658 117.6216,147.5212 118.1662,146.9767 118.7107,146.4321 119.2553,145.8876 119.7998,145.343 120.3443,144.7985 120.8889,144.254 121.4334,143.7094 121.978,143.1649 122.5225,142.6203 123.0671,142.0758 123.6116,141.5312 124.1562,140.9867 124.7007,140.4421 125.2452,139.8976 125.7898,139.353 126.3343,138.8085 126.8789,138.264 127.4234,137.7194 127.968,137.1749 128.5125,136.6303 129.0571,136.0858 129.6016,135.5412 130.1461,134.9967 130.6907,134.4521 131.2352,133.9076 131.7798,133.3631 132.3243,132.8185 132.8689,132.274 133.4134,131.7294 133.9579,131.1849 134.5025,130.6403 135.047,130.0958 135.5916,129.5513 136.1361,129.0067 136.6807,128.4622 137.2252,127.9176 137.7698,127.3731 138.3143,126.8285 138.8589,126.284 139.4034,125.7394 139.9479,125.1949 140.4925,124.6503 141.037,124.1058 141.5816,123.5612 142.1261,123.0167 142.6707,122.4722 143.2152,121.9276 143.7598,121.3831 144.3043,120.8385 144.8488,120.294 145.3934,119.7495 145.938,119.2049 146.4825,118.6604 147.027,118.1158 147.5716,117.5713 148.1161,117.0267 148.6606,116.4822 149.2052,115.9376 149.7498,115.3931 150.2943,114.8485 150.8388,114.304 151.3834,113.7595 151.9279,113.2149 152.4725,112.6704 153.017,112.1258 153.5616,111.5813 154.1061,111.0367 154.6507,110.4922 155.1952,109.9477 155.7397,109.4031 156.2843,108.8586 156.8288,108.314 157.3734,107.7695 157.9179,107.2249 158.4625,106.6804 159.007,106.1358 159.5516,105.5913 160.0961,105.0468 160.6407,104.5022 161.1852,103.9577 161.7297,103.4131 162.2743,102.8686 162.8188,102.324 163.3634,101.7795 163.9079,101.2349 164.4525,100.6904 164.997,100.1458 165.5415,99.6013 166.0861,99.05675 166.6306,98.51222 167.1752,97.96767 167.7197,97.42313 168.2643,96.87857 168.8088,96.33405 169.3534,95.78949 169.8979,95.24495 170.4424,94.70039 170.987,94.15584 171.5315,93.61131 172.0761,93.06676 172.6206,92.52222 173.1652,91.97766 173.7097,91.43314 174.2543,90.88858 174.7988,90.34404 175.3434,89.79948 175.8879,89.25496 176.4324,88.7104 176.977,88.16586 177.5215,87.62131 178.0661,87.07678 178.6106,86.53223 179.1552,85.98769 179.6997,85.44313 180.2442,84.89861 180.7888,84.35405 181.3333,83.80951 181.8779,83.26495 182.4224,82.72043 182.9669,82.17587 183.5115,81.63133 184.0561,81.08678 184.6006,80.54225 185.1451,79.9977 185.6897,79.45316 186.2342,78.9086 186.7788,78.36406 187.3233,77.81952 187.8679,77.27496 188.4124,76.73042 188.957,76.18588 189.5015,75.64134 190.0461,75.09679 190.5906,74.55225 191.1351,74.00771 191.6797,73.46317 192.2242,72.91861 192.7688,72.37407 193.3133,71.82953 193.8578,71.28499 194.4024,70.74043 194.9469,70.19589 195.4915,69.65135 196.036,69.10681 196.5806,68.56226 197.1251,68.01772 197.6697,67.47318 198.2142,66.92862 198.7588,66.38409 199.3033,65.83954 199.8478,65.29498 200.3924,64.75046 200.9369,64.2059 201.4815,63.66138 202.026,63.11682 202.5706,62.57227 203.1151,62.02774 203.6597,61.48318 204.2042,60.93863 204.7487,60.39407 205.2933,59.84955 205.8378,59.30499 206.3824,58.76047 206.9269,58.21591 207.4715,57.67139 208.016,57.12683 208.5605,56.58228 209.1051,56.03772 209.6496,55.49319 210.1942,54.94864 210.7387,54.40411 211.2833,53.85956 211.8278,53.31503 212.3724,52.77048 212.9169,52.22592 213.4615,51.68137 214.006,51.13684 214.5505,50.59229 215.0951,50.04776 215.6396,49.5032 216.1842,48.95868 216.7287,48.41412 217.2733,47.86957 217.8178,47.32501 218.3624,46.78046 218.9069,46.23593 219.4514,45.69138 219.996,45.14685 220.5406,44.60229 221.0851,44.05777 221.6296,43.51321 222.1742,42.96866 222.7187,42.4241 223.2632,41.87958 223.8078,41.33502 224.3524,40.7905 224.8969,40.24594 225.4414,39.70142 225.986,39.15686 226.5305,38.6123 227.0751,38.06775 227.6196,37.52322 228.1642,36.97867 228.7087,36.43414 229.2533,35.88959 229.7978,35.34506 230.3423,34.80051 230.8869,34.25595 231.4314,33.7114 231.976,33.16687 232.5205,32.62231 233.0651,32.07779 233.6096,31.53323 234.1541,30.98868 234.6987,30.44415 235.2433,29.8996 235.7878,29.35504 236.3323,28.81049 236.8769,28.26596 237.4214,27.72141 237.966,27.17688 238.5105,26.63232 239.0551,26.0878 239.5996,25.54324 240.1442,24.99869 240.6887,24.45413 241.2332,23.90961 241.7778,23.36505 242.3223,22.82053 242.8669,22.27597 243.4114,21.73145 243.956,21.18689 244.5005,20.64233 245.045,20.09778 245.5896,19.55325 246.1341,19.0087 246.6787,18.46417 247.2232,17.91962 247.7678,17.37509 248.3123,16.83054 248.8569,16.28598 249.4014,15.74142 249.9459,15.1969 250.4905,14.65234 251.035,14.10779 251.5796,13.56326 252.1241,13.01871 252.6687,12.57141 253.2132,12.57141 253.7578,12.57141 254.3023,12.57141 254.8468,12.57141 255.3914,12.57141 255.9359,12.57141 256.4805,12.57141 257.025,12.57141 257.5696,12.57141 258.1141,12.57141 258.6586,12.57141 259.2032,12.57141 259.7477,12.57141 260.2923,12.57141 260.8368,12.57141 261.3814,12.57141 261.9259,12.57141 262.4705,12.57141 263.015,12.57141 263.5595,12.57141 264.1041,12.57141 264.6487,12.57141 265.1932,12.57141 265.7377,12.57141 266.2823,12.57141 266.8268,12.57141 267.3714,12.57141 267.9159,12.57141 268.4604,12.57141 269.005,12.57141 269.5496,12.57141 270.0941,12.57141 270.6386,12.57141 271.1832,12.57141 271.7278,12.57141 272.2722,12.57141 272.8168,12.57141 273.3614,12.57141 273.9059,12.57141 274.4504,12.57141 274.995,12.57141 275.5396,12.57141 276.0841,12.57141 276.6286,12.57141 277.1732,12.57141 277.7177,12.57141 278.2623,12.57141 278.8068,12.57141 279.3513,12.57141 279.8959,12.57141 280.4405,12.57141 280.985,12.57141 281.5295,12.57141 282.0741,12.57141 282.6186,12.57141 283.1632,12.57141 283.7077,12.57141 284.2523,12.57141 284.7968,12.57141 285.3413,12.57141 285.8859,12.57141 286.4304,12.57141 286.975,12.57141 287.5195,12.57141 288.0641,12.57141 288.6086,12.57141 289.1532,12.57141 289.6977,12.57141 290.2422,12.57141 290.7868,12.57141 291.3313,12.57141 291.8759,12.57141 292.4204,12.57141 292.965,12.57141 293.5095,12.57141 294.054,12.57141 294.5986,12.57141 295.1431,12.57141 295.6877,12.57141 296.2322,12.57141 296.7768,12.57141 297.3213,12.57141 297.8659,12.57141 298.4104,12.57141 298.955,12.57141 299.4995,12.57141 300.044,12.57141 300.5886,12.57141 301.1331,12.57141 301.6777,12.57141 302.2222,12.57141 302.7668,12.57141 303.3113,12.57141 303.8558,12.57141 304.4004,12.57141 304.9449,12.57141 305.4895,12.57141 306.034,12.57141 306.5786,12.57141 307.1231,12.57141 307.6677,12.57141 308.2122,12.57141 308.7567,12.57141 309.3013,12.57141 309.8459,12.57141 310.3904,12.57141 310.9349,12.57141 311.4795,12.57141 312.024,12.57141 312.5686,12.57141 313.1131,12.57141 313.6577,12.57141 314.2022,12.57141 314.7468,12.57141 315.2913,12.57141 315.8358,12.57141 316.3804,12.57141 316.9249,12.57141 317.4695,12.57141 318.014,12.57141 318.5586,12.57141 319.1031,12.57141 319.6476,12.57141 320.1922,12.57141 320.7367,12.57141 321.2813,12.57141 321.8258,12.57141 322.3704,12.57141 322.9149,12.57141 323.4595,12.57141 324.004,12.57141 324.5485,12.57141 325.0931,12.57141 325.6376,12.57141 326.1822,12.57141 326.7267,12.57141 327.2713,12.57141 327.8158,12.57141 328.3604,12.57141 328.9049,12.57141 329.4494,12.57141 329.994,12.57141 330.5385,12.57141 331.0831,12.57141 331.6276,12.57141 332.1722,12.57141 332.7167,12.57141 333.2612,12.57141 333.8058,12.57141 334.3503,12.57141 334.8949,12.57141 335.4394,12.57141 335.984,12.57141 336.5285,12.57141 337.0731,12.57141 337.6176,12.57141 338.1621,12.57141 338.7067,12.57141 339.2513,12.57141 339.7958,12.57141 340.3403,12.57141 340.8849,12.57141 341.4294,12.57141 341.974,12.57141 342.5185,12.57141 343.063,12.57141 343.6076,12.57141 344.1522,12.57141 344.6967,12.57141 345.2412,12.57141 345.7858,12.57141 346.3304,12.57141 346.8748,12.57141 347.4194,12.57141 347.964,12.57141 348.5085,12.57141 349.053,12.57141 349.5976,12.57141 350.1422,12.57141 350.6867,12.57141 351.2312,12.57141 351.7758,12.57141 352.3203,12.57141 352.8649,12.57141 353.4094,12.57141 353.9539,12.57141 354.4985,12.57141 355.0431,12.57141 355.5876,12.57141 356.1321,12.57141 356.6767,12.57141 357.2212,12.57141 357.7658,12.57141 358.3103,12.57141 358.8549,12.57141 359.3994,12.57141 359.944,12.57141 360.4885,12.57141 361.033,12.57141 361.5776,12.57141 362.1221,12.57141 362.6667,12.57141 363.2112,12.57141 363.7558,12.57141 364.3003,12.57141 364.8448,12.57141 365.3894,12.57141 365.9339,12.57141 366.4785,12.57141 367.023,12.57141 367.5676,12.57141 368.1121,12.57141 368.6567,12.57141 369.2012,12.57141 369.7457,12.57141 370.2903,12.57141 370.8348,12.57141 371.3794,12.57141 371.9239,12.57141 372.4685,12.57141 373.013,12.57141 373.5576,12.57141 374.1021,12.57141 374.6466,12.57141 375.1912,12.57141 375.7357,12.57141 376.2803,12.57141 376.8248,12.57141 377.3694,12.57141 377.9139,12.57141 378.4584,12.57141 379.003,12.57141 379.5475,12.57141 380.0921,12.57141 380.6366,12.57141 381.1812,12.57141 381.7257,12.57141 382.2703,12.57141 382.8148,12.57141 383.3593,12.57141 383.9039,12.57141 384.4485,12.57141 384.993,12.57141 385.5375,12.57141 386.0821,12.57141 386.6266,12.57141 387.1711,12.57141 387.7157,12.57141 388.2603,12.57141 388.8048,12.57141 389.3494,12.57141 389.8939,12.57141 390.4384,12.57141 390.983,12.57141 391.5276,12.57141 392.0721,12.57141 392.6166,12.57141 393.1612,12.57141 393.7057,12.57141 394.2502,12.57141 394.7948,12.57141 395.3394,12.57141 395.8839,12.57141 396.4284,12.57141 396.973,12.57141 397.5175,12.57141 398.0621,12.57141 398.6066,12.57141 399.1512,12.57141 399.6957,12.57141 400.2403,12.57141 400.7848,12.57141 401.3293,12.57141 401.8739,12.57141 402.4184,12.57141 402.963,12.57141 403.5075,12.57141 404.0521,12.57141 404.5966,12.57141 405.1411,12.57141 405.6857,12.57141 406.2302,12.57141 406.7748,12.57141 407.3193,12.57141 407.8639,12.57141 408.4084,12.57141 408.953,12.57141 409.4975,12.57141 410.042,12.57141 410.5866,12.57141 411.1311,12.57141 411.6757,12.57141 412.2202,12.57141 412.7648,12.57141 413.3093,12.57141 413.8539,12.57141 414.3984,12.57141 414.9429,12.57141 415.4875,12.57141 416.032,12.57141 416.5766,12.57141 417.1211,12.57141 417.6657,12.57141 418.2102,12.57141 418.7547,12.57141 419.2993,12.57141 419.8438,12.57141 420.3884,12.57141 420.933,12.57141 421.4775,12.57141 422.022,12.57141 422.5666,12.57141 423.1111,12.57141 423.6556,12.57141 424.2002,12.57141 424.7448,12.57141 425.2893,12.57141 425.8338,12.57141 426.3784,12.57141 426.9229,12.57141 427.4675,12.57141 428.012,12.57141 428.5565,12.57141 429.1011,12.57141 429.6457,12.57141 430.1902,12.57141 430.7347,12.57141 431.2793,12.57141 431.8238,12.57141 432.3683,12.57141 432.9129,12.57141 433.4575,12.57141 434.002,12.57141 434.5465,12.57141 435.0911,12.57141 435.6356,12.57141 436.1802,12.57141 436.7247,12.57141 437.2693,12.57141 437.8138,12.57141 438.3583,12.57141 438.9029,12.57141 439.4474,12.57141 439.992,12.57141 440.5366,12.57141 441.0811,12.57141 441.6256,12.57141 442.1702,12.57141 442.7147,12.57141 443.2593,12.57141 443.8038,12.57141 444.3483,12.57141 444.8929,12.57141 445.4374,12.57141 445.982,12.57141 446.5265,12.57141 447.071,12.57141 447.6156,12.57141 448.1602,12.57141 448.7047,12.57141 449.2493,12.57141 449.7938,12.57141 450.3383,12.57141 450.8829,12.57141 451.4274,12.57141 451.972,12.57141 452.5165,12.57141 453.061,12.57141 453.6056,12.57141 454.1501,12.57141 454.6947,12.57141 455.2392,12.57141 455.7838,12.57141 456.3283,12.57141 456.8729,12.57141 457.4174,12.57141 457.962,12.57141 458.5065,12.57141 459.0511,12.57141 459.5956,12.57141 460.1401,12.57141 460.6847,12.57141 461.2292,12.57141 461.7737,12.57141 462.3183,12.57141 462.8629,12.57141 463.4074,12.57141 463.9519,12.57141 464.4965,12.57141 465.041,12.57141 465.5856,12.57141 466.1301,12.57141 466.6747,12.57141 467.2192,12.57141 467.7638,12.57141 468.3083,12.57141 468.8528,12.57141 469.3974,12.57141 469.942,12.57141 470.4865,12.57141 471.031,12.57141 471.5756,12.57141 472.1201,12.57141 472.6647,12.57141 473.2092,12.57141 473.7537,12.57141 474.2983,12.57141 474.8428,12.57141 475.3874,12.57141 475.9319,12.57141 476.4765,12.57141 477.0211,12.57141 477.5656,12.57141 478.1101,12.57141 478.6547,12.57141 479.1992,12.57141 479.7437,12.57141 480.2883,12.57141 480.8328,12.57141 481.3774,12.57141 481.9219,12.57141 482.4664,12.57141 483.011,12.57141 483.5555,12.57141 484.1001,12.57141 484.6447,12.57141 485.1892,12.57141 485.7338,12.57141 486.2783,12.57141 486.8228,12.57141 487.3674,12.57141 487.9119,12.57141 488.4565,12.57141 489.001,12.57141 489.5455,12.57141 490.0901,12.57141 490.6346,12.57141 491.1791,12.57141 491.7237,12.57141 492.2682,12.57141 492.8128,12.57141 493.3574,12.57141 493.9019,12.57141 494.4465,12.57141 494.991,12.57141 495.5355,12.57141 496.0801,12.57141 496.6246,12.57141 497.1692,12.57141 497.7137,12.57141 498.2582,12.57141 498.8028,12.57141 499.3474,12.57141 499.8919,12.57141 500.4364,12.57141 500.981,12.57141 501.5255,12.57141 502.0701,12.57141 502.6146,12.57141 503.1592,12.57141 503.7037,12.57141 504.2483,12.57141 504.7928,12.57141 505.3373,12.57141 505.8819,12.57141 506.4265,12.57141 506.9709,12.57141 507.5155,12.57141 508.0601,12.57141 508.6046,12.57141 509.1491,12.57141 509.6937,12.57141 510.2382,12.57141 510.7828,12.57141 511.3273,12.57141 511.8719,12.57141 512.4164,12.57141 512.961,12.57141 513.5055,12.57141 514.05,12.57141 514.5946,12.57141 515.1392,12.57141 515.6837,12.57141 516.2282,12.57141 516.7728,12.57141 517.3173,12.57141 517.8619,12.57141 518.4064,12.57141 518.9509,12.57141 519.4955,12.57141 520.04,12.57141 520.5846,12.57141 521.1292,12.57141 521.6737,12.57141 522.2182,12.57141 522.7628,12.57141 523.3073,12.57141 523.8519,12.57141 524.3964,12.57141 524.9409,12.57141 525.4855,12.57141 526.03,12.57141 526.5746,12.57141 527.1191,12.57141 527.6636,12.57141 528.2082,12.57141 528.7527,12.57141 529.2973,12.57141 529.8419,12.57141 530.3864,12.57141 530.9309,12.57141 531.4755,12.57141 532.02,12.57141 532.5646,12.57141 533.1091,12.57141 533.6537,12.57141 534.1982,12.57141 534.7427,12.57141 535.2873,12.57141 535.8318,12.57141 536.3763,12.57141 536.9209,12.57141 537.4655,12.57141 538.01,12.57141 538.5546,12.57141 539.0991,12.57141 539.6436,12.57141 540.1882,12.57141 540.7327,12.57141 541.2773,12.57141 541.8218,12.57141 542.3664,12.57141 542.9109,12.57141 543.4554,12.57141 544,12.57141 544,323.4286 " />
</g>
<defs>
<linearGradient id="grad0" x1="-14.28572%" y1="0%" x2="-14.28572%" y2="200%">
<stop offset="0%" stop-color="#1472F0" stop-opacity="0.1882353" />
<stop offset="50%" stop-color="#1472F0" stop-opacity="0.02352941" />
<stop offset="100%" stop-color="#1472F0" stop-opacity="0.1882353" />
</linearGradient>
<linearGradient id="grad1" x1="-14.28572%" y1="0%" x2="-14.28572%" y2="200%">
<stop offset="0%" stop-color="#9400D3" stop-opacity="0.1882353" />
<stop offset="50%" stop-color="#9400D3" stop-opacity="0.02352941" />
<stop offset="100%" stop-color="#9400D3" stop-opacity="0.1882353" />
</linearGradient>
</defs>
</svg>
