<?xml version="1.0"?>
<!DOCTYPE svg PUBLIC "-//W3C//DTD SVG 1.1//EN" "http://www.w3.org/Graphics/SVG/1.1/DTD/svg11.dtd">
<svg viewBox="0 0 413 255" preserveAspectRatio="xMinYMin meet" version="1.1" xmlns="http://www.w3.org/2000/svg">
<g id="Axis">
</g>
<g id="width(w)">
<polyline stroke="#1472F0" stroke-opacity="0.6431373" stroke-linecap="round" stroke-linejoin="round" stroke-width="3" fill="none" points="0,253.5 0.413414,252.9114 0.826828,252.3228 1.240238,251.7342 1.653652,251.1456 2.067066,250.5571 2.48048,249.9685 2.89389,249.3799 3.307304,248.7913 3.720718,248.2027 4.134132,247.6141 4.547546,247.0255 4.960957,246.437 5.374374,245.8484 5.787781,245.2598 6.201202,244.6712 6.614616,244.0826 7.02803,243.494 7.441444,242.9054 7.854858,242.3168 8.268272,241.7282 8.681686,241.1396 9.0951,240.5511 9.508507,239.9625 9.921921,239.3739 10.33533,238.7853 10.74875,238.1967 11.16216,237.6081 11.57558,237.0195 11.98899,236.4309 12.4024,235.8423 12.81582,235.2538 13.22923,234.6652 13.64264,234.0766 14.05605,233.488 14.46947,232.8994 14.88288,232.3108 15.2963,231.7222 15.70971,231.1336 16.12312,230.545 16.53654,229.9565 16.94994,229.3679 17.36336,228.7793 17.77678,228.1907 18.19019,227.6021 18.60361,227.0135 19.01702,226.4249 19.43044,225.8363 19.84385,225.2477 20.25726,224.6591 20.67067,224.0706 21.08408,223.482 21.4975,222.8934 21.91091,222.3048 22.32433,221.7162 22.73774,221.1276 23.15115,220.539 23.56457,219.9504 23.97798,219.3619 24.39139,218.7733 24.8048,218.1847 25.21822,217.5961 25.63163,217.0075 26.04504,216.4189 26.45846,215.8303 26.87187,215.2417 27.28529,214.6532 27.6987,214.0646 28.11211,213.476 28.52552,212.8874 28.93893,212.2988 29.35235,211.7102 29.76577,211.1216 30.17918,210.533 30.5926,209.9444 31.00601,209.3559 31.41942,208.7673 31.83283,208.1787 32.24625,207.5901 32.65966,207.0015 33.07307,206.4129 33.48649,205.8243 33.8999,205.2357 34.31332,204.6471 34.72673,204.0586 35.14014,203.47 35.55355,202.8814 35.96696,202.2928 36.38038,201.7042 36.79379,201.1156 37.20721,200.527 37.62062,199.9384 38.03403,199.3499 38.44745,198.7613 38.86086,198.1727 39.27427,197.5841 39.68768,196.9955 40.1011,196.4069 40.51451,195.8183 40.92793,195.2297 41.34135,194.6411 41.75476,194.0526 42.16817,193.464 42.58158,192.8754 42.995,192.2868 43.40841,191.6982 43.82182,191.1096 44.23524,190.521 44.64865,189.9324 45.06207,189.3438 45.47548,188.7552 45.88889,188.1667 46.3023,187.5781 46.71571,186.9895 47.12913,186.4009 47.54254,185.8123 47.95596,185.2237 48.36937,184.6351 48.78278,184.0466 49.1962,183.458 49.60961,182.8694 50.02302,182.2808 50.43643,181.6922 50.84985,181.1036 51.26326,180.515 51.67667,179.9264 52.09009,179.3378 52.5035,178.7493 52.91692,178.1607 53.33034,177.5721 53.74374,176.9835 54.15716,176.3949 54.57057,175.8063 54.98399,175.2177 55.3974,174.6291 55.81081,174.0405 56.22423,173.452 56.63764,172.8634 57.05106,172.2748 57.46446,171.6862 57.87788,171.0976 58.29129,170.509 58.7047,169.9204 59.11812,169.3318 59.53154,168.7432 59.94495,168.1547 60.35837,167.5661 60.77177,166.9775 61.18519,166.3889 61.59859,165.8003 62.01202,165.2117 62.42542,164.6231 62.83884,164.0345 63.25225,163.446 63.66567,162.8573 64.07908,162.2688 64.49249,161.6802 64.9059,161.0916 65.31932,160.503 65.73273,159.9144 66.14615,159.3258 66.55956,158.7372 66.97298,158.1487 67.38638,157.5601 67.7998,156.9715 68.21321,156.3829 68.62663,155.7943 69.04004,155.2057 69.45346,154.6171 69.86687,154.0285 70.28027,153.4399 70.69368,152.8514 71.1071,152.2628 71.52052,151.6742 71.93393,151.0856 72.34735,150.497 72.76076,149.9084 73.17418,149.3198 73.58759,148.7312 74.00101,148.1426 74.41441,147.5541 74.82784,146.9655 75.24124,146.3769 75.65466,145.7883 76.06807,145.1997 76.48149,144.6111 76.8949,144.0225 77.30832,143.4339 77.72171,142.8454 78.13513,142.2568 78.54854,141.6682 78.96196,141.0796 79.37537,140.491 79.78879,139.9024 80.20219,139.3138 80.61562,138.7252 81.02902,138.1366 81.44244,137.548 81.85585,136.9595 82.26927,136.3709 82.68269,135.7823 83.0961,135.1937 83.50952,134.6051 83.92293,134.0165 84.33635,133.4279 84.74976,132.8393 85.16316,132.2507 85.57657,131.6622 85.98999,131.0736 86.4034,130.485 86.81682,129.8964 87.23022,129.3078 87.64365,128.7192 88.05705,128.1306 88.47047,127.542 88.88388,126.9535 89.2973,126.3649 89.71071,125.7763 90.12413,125.1877 90.53754,124.5991 90.95096,124.0105 91.36436,123.4219 91.77779,122.8333 92.19119,122.2448 92.6046,121.6562 93.01801,121.0676 93.43143,120.479 93.84483,119.8904 94.25826,119.3018 94.67168,118.7132 95.08508,118.1246 95.4985,117.536 95.91191,116.9474 96.32533,116.3589 96.73874,115.7703 97.15216,115.1817 97.56557,114.5931 97.97899,114.0045 98.3924,113.4159 98.80582,112.8273 99.21922,112.2387 99.63263,111.6501 100.046,111.0616 100.4595,110.473 100.8729,109.8844 101.2863,109.2958 101.6997,108.7072 102.1131,108.1186 102.5265,107.53 102.9399,106.9414 103.3533,106.3529 103.7668,105.7643 104.1802,105.1757 104.5936,104.5871 105.007,103.9985 105.4204,103.4099 105.8338,102.8213 106.2473,102.2327 106.6607,101.6441 107.0741,101.0556 107.4875,100.467 107.9009,99.87839 108.3143,99.28978 108.7277,98.7012 109.1411,98.11261 109.5546,97.52403 109.968,96.93542 110.3814,96.34685 110.7948,95.75826 111.2082,95.16968 111.6216,94.58107 112.035,93.99249 112.4485,93.4039 112.8619,92.81532 113.2753,92.22672 113.6887,91.63814 114.1021,91.04955 114.5155,90.46097 114.9289,89.87238 115.3423,89.2838 115.7558,88.69519 116.1692,88.10661 116.5826,87.51802 116.996,86.92944 117.4094,86.34084 117.8228,85.75226 118.2362,85.16367 118.6497,84.57507 119.0631,83.98648 119.4765,83.39789 119.8899,82.80931 120.3033,82.22072 120.7167,81.63214 121.1301,81.04355 121.5435,80.45496 121.957,79.86636 122.3704,79.27777 122.7838,78.68918 123.1972,78.10062 123.6106,77.51199 124.024,76.92343 124.4374,76.33484 124.8508,75.74625 125.2643,75.15765 125.6777,74.56906 126.0911,73.98047 126.5045,73.39191 126.9179,72.80331 127.3313,72.21472 127.7448,71.62613 128.1582,71.03754 128.5716,70.44894 128.985,69.86038 129.3984,69.27176 129.8118,68.68317 130.2252,68.0946 130.6386,67.50598 131.052,66.91742 131.4655,66.32883 131.8789,65.74023 132.2923,65.15164 132.7057,64.56308 133.1191,63.97446 133.5325,63.38589 133.946,62.7973 134.3594,62.20871 134.7728,61.62012 135.1862,61.03152 135.5996,60.44293 136.013,59.85437 136.4264,59.26575 136.8398,58.67719 137.2533,58.08859 137.6667,57.5 138.0801,56.91141 138.4935,56.32281 138.9069,55.73422 139.3203,55.14566 139.7337,54.55707 140.1471,53.96848 140.5606,53.37988 140.974,52.79129 141.3874,52.2027 141.8008,51.61411 142.2142,51.02551 142.6276,50.43692 143.041,49.84836 143.4545,49.25977 143.8679,48.67117 144.2813,48.08258 144.6947,47.49399 145.1081,46.9054 145.5215,46.31683 145.9349,45.72821 146.3483,45.13965 146.7618,44.55106 147.1752,43.96246 147.5886,43.37387 148.002,42.78528 148.4154,42.19669 148.8288,41.60812 149.2422,41.01953 149.6557,40.43094 150.0691,39.84235 150.4825,39.25375 150.8959,38.66516 151.3093,38.0766 151.7227,37.48798 152.1361,36.89941 152.5495,36.31082 152.963,35.72223 153.3764,35.13364 153.7898,34.54504 154.2032,33.95645 154.6166,33.36786 155.03,32.77927 155.4435,32.19067 155.8569,31.60211 156.2703,31.01352 156.6837,30.42493 157.0971,29.83633 157.5105,29.24774 157.9239,28.65915 158.3373,28.07059 158.7507,27.48196 159.1642,26.8934 159.5776,26.30481 159.991,25.71622 160.4044,25.12762 160.8178,24.53903 161.2312,23.95044 161.6446,23.36188 162.0581,22.77328 162.4715,22.18469 162.8849,21.5961 163.2983,21.00751 163.7117,20.41891 164.1251,19.83035 164.5385,19.24173 164.952,18.65317 165.3654,18.06458 165.7788,17.47595 166.1922,16.88739 166.6056,16.2988 167.019,15.71021 167.4324,15.12161 167.8458,14.53302 168.2593,13.94443 168.6727,13.35587 169.0861,12.76727 169.4995,12.17868 169.9129,11.59009 170.3263,11.0015 170.7397,10.4129 171.1532,9.824341 171.5666,9.235718 171.98,8.647156 172.3934,8.058563 172.8068,7.469971 173.2202,6.881378 173.6336,6.292786 174.047,5.704193 174.4604,5.115631 174.8739,4.527039 175.2873,3.938446 175.7007,3.349854 176.1141,2.761261 176.5275,2.172668 176.9409,1.584106 177.3544,1.5 177.7678,1.5 178.1812,1.5 178.5946,1.5 179.008,1.5 179.4214,1.5 179.8348,1.5 180.2483,1.5 180.6617,1.5 181.0751,1.5 181.4885,1.5 181.9019,1.5 182.3153,1.5 182.7287,1.5 183.1421,1.5 183.5556,1.5 183.969,1.5 184.3824,1.5 184.7958,1.5 185.2092,1.5 185.6226,1.5 186.036,1.5 186.4494,1.5 186.8629,1.5 187.2763,1.5 187.6897,1.5 188.1031,1.5 188.5165,1.5 188.9299,1.5 189.3434,1.5 189.7567,1.5 190.1702,1.5 190.5836,1.5 190.997,1.5 191.4104,1.5 191.8238,1.5 192.2372,1.5 192.6507,1.5 193.0641,1.5 193.4775,1.5 193.8909,1.5 194.3043,1.5 194.7177,1.5 195.1311,1.5 195.5445,1.5 195.958,1.5 196.3714,1.5 196.7848,1.5 197.1982,1.5 197.6116,1.5 198.025,1.5 198.4384,1.5 198.8519,1.5 199.2653,1.5 199.6786,1.5 200.0921,1.5 200.5055,1.5 200.9189,1.5 201.3323,1.5 201.7457,1.5 202.1591,1.5 202.5726,1.5 202.986,1.5 203.3994,1.5 203.8128,1.5 204.2262,1.5 204.6396,1.5 205.053,1.5 205.4665,1.5 205.8799,1.5 206.2933,1.5 206.7067,1.5 207.1201,1.5 207.5335,1.5 207.947,1.5 208.3604,1.5 208.7738,1.5 209.1872,1.5 209.6006,1.5 210.014,1.5 210.4274,1.5 210.8409,1.5 211.2543,1.5 211.6677,1.5 212.0811,1.5 212.4945,1.5 212.9079,1.5 213.3214,1.5 213.7347,1.5 214.1481,1.5 214.5616,1.5 214.975,1.5 215.3884,1.5 215.8018,1.5 216.2152,1.5 216.6286,1.5 217.042,1.5 217.4554,1.5 217.8689,1.5 218.2823,1.5 218.6957,1.5 219.1091,1.5 219.5225,1.5 219.9359,1.5 220.3493,1.5 220.7628,1.5 221.1762,1.5 221.5896,1.5 222.003,1.5 222.4164,1.5 222.8298,1.5 223.2433,1.5 223.6566,1.5 224.0701,1.5 224.4835,1.5 224.8969,1.5 225.3103,1.5 225.7237,1.5 226.1371,1.5 226.5506,1.5 226.964,1.5 227.3774,1.5 227.7908,1.5 228.2042,1.5 228.6176,1.5 229.031,1.5 229.4444,1.5 229.8578,1.5 230.2713,1.5 230.6847,1.5 231.0981,1.5 231.5115,1.5 231.9249,1.5 232.3383,1.5 232.7517,1.5 233.1652,1.5 233.5786,1.5 233.992,1.5 234.4054,1.5 234.8188,1.5 235.2322,1.5 235.6456,1.5 236.0591,1.5 236.4725,1.5 236.8859,1.5 237.2993,1.5 237.7127,1.5 238.1261,1.5 238.5396,1.5 238.953,1.5 239.3664,1.5 239.7798,1.5 240.1932,1.5 240.6066,1.5 241.02,1.5 241.4334,1.5 241.8469,1.5 242.2603,1.5 242.6737,1.5 243.0871,1.5 243.5005,1.5 243.9139,1.5 244.3273,1.5 244.7407,1.5 245.1541,1.5 245.5676,1.5 245.981,1.5 246.3944,1.5 246.8078,1.5 247.2212,1.5 247.6346,1.5 248.048,1.5 248.4615,1.5 248.8749,1.5 249.2883,1.5 249.7017,1.5 250.1151,1.5 250.5285,1.5 250.942,1.5 251.3553,1.5 251.7688,1.5 252.1822,1.5 252.5956,1.5 253.009,1.5 253.4224,1.5 253.8358,1.5 254.2493,1.5 254.6627,1.5 255.0761,1.5 255.4895,1.5 255.9029,1.5 256.3163,1.5 256.7297,1.5 257.1432,1.5 257.5566,1.5 257.97,1.5 258.3834,1.5 258.7968,1.5 259.2102,1.5 259.6236,1.5 260.037,1.5 260.4504,1.5 260.8639,1.5 261.2773,1.5 261.6907,1.5 262.1041,1.5 262.5175,1.5 262.9309,1.5 263.3443,1.5 263.7578,1.5 264.1712,1.5 264.5846,1.5 264.998,1.5 265.4114,1.5 265.8248,1.5 266.2383,1.5 266.6516,1.5 267.0651,1.5 267.4785,1.5 267.8919,1.5 268.3053,1.5 268.7187,1.5 269.1321,1.5 269.5456,1.5 269.959,1.5 270.3724,1.5 270.7858,1.5 271.1992,1.5 271.6126,1.5 272.026,1.5 272.4395,1.5 272.8528,1.5 273.2663,1.5 273.6797,1.5 274.0931,1.5 274.5065,1.5 274.9199,1.5 275.3333,1.5 275.7467,1.5 276.1602,1.5 276.5736,1.5 276.987,1.5 277.4004,1.5 277.8138,1.5 278.2272,1.5 278.6406,1.5 279.054,1.5 279.4675,1.5 279.8809,1.5 280.2943,1.5 280.7077,1.5 281.1211,1.5 281.5345,1.5 281.9479,1.5 282.3614,1.5 282.7748,1.5 283.1882,1.5 283.6016,1.5 284.015,1.5 284.4284,1.5 284.8419,1.5 285.2553,1.5 285.6687,1.5 286.0821,1.5 286.4955,1.5 286.9089,1.5 287.3223,1.5 287.7357,1.5 288.1491,1.5 288.5626,1.5 288.976,1.5 289.3894,1.5 289.8028,1.5 290.2162,1.5 290.6296,1.5 291.043,1.5 291.4565,1.5 291.8699,1.5 292.2833,1.5 292.6967,1.5 293.1101,1.5 293.5235,1.5 293.9369,1.5 294.3503,1.5 294.7638,1.5 295.1772,1.5 295.5906,1.5 296.004,1.5 296.4174,1.5 296.8308,1.5 297.2443,1.5 297.6577,1.5 298.0711,1.5 298.4845,1.5 298.8979,1.5 299.3113,1.5 299.7247,1.5 300.1382,1.5 300.5516,1.5 300.965,1.5 301.3784,1.5 301.7918,1.5 302.2052,1.5 302.6186,1.5 303.032,1.5 303.4454,1.5 303.8589,1.5 304.2722,1.5 304.6857,1.5 305.0991,1.5 305.5125,1.5 305.9259,1.5 306.3393,1.5 306.7527,1.5 307.1662,1.5 307.5796,1.5 307.993,1.5 308.4064,1.5 308.8198,1.5 309.2332,1.5 309.6466,1.5 310.0601,1.5 310.4735,1.5 310.8869,1.5 311.3003,1.5 311.7137,1.5 312.1271,1.5 312.5406,1.5 312.9539,1.5 313.3674,1.5 313.7808,1.5 314.1942,1.5 314.6076,1.5 315.021,1.5 315.4344,1.5 315.8479,1.5 316.2613,1.5 316.6747,1.5 317.0881,1.5 317.5015,1.5 317.9149,1.5 318.3283,1.5 318.7417,1.5 319.1552,1.5 319.5686,1.5 319.982,1.5 320.3954,1.5 320.8088,1.5 321.2222,1.5 321.6356,1.5 322.049,1.5 322.4625,1.5 322.8759,1.5 323.2893,1.5 323.7027,1.5 324.1161,1.5 324.5295,1.5 324.9429,1.5 325.3564,1.5 325.7698,1.5 326.1832,1.5 326.5966,1.5 327.01,1.5 327.4234,1.5 327.8369,1.5 328.2502,1.5 328.6637,1.5 329.0771,1.5 329.4905,1.5 329.9039,1.5 330.3173,1.5 330.7307,1.5 331.1442,1.5 331.5576,1.5 331.971,1.5 332.3844,1.5 332.7978,1.5 333.2112,1.5 333.6246,1.5 334.038,1.5 334.4514,1.5 334.8649,1.5 335.2783,1.5 335.6917,1.5 336.1051,1.5 336.5185,1.5 336.9319,1.5 337.3453,1.5 337.7588,1.5 338.1722,1.5 338.5856,1.5 338.999,1.5 339.4124,1.5 339.8258,1.5 340.2392,1.5 340.6526,1.5 341.0661,1.5 341.4795,1.5 341.8929,1.5 342.3063,1.5 342.7197,1.5 343.1331,1.5 343.5466,1.5 343.96,1.5 344.3734,1.5 344.7868,1.5 345.2002,1.5 345.6136,1.5 346.027,1.5 346.4404,1.5 346.8539,1.5 347.2672,1.5 347.6807,1.5 348.0941,1.5 348.5075,1.5 348.9209,1.5 349.3343,1.5 349.7477,1.5 350.1612,1.5 350.5746,1.5 350.988,1.5 351.4014,1.5 351.8148,1.5 352.2282,1.5 352.6416,1.5 353.0551,1.5 353.4685,1.5 353.8819,1.5 354.2953,1.5 354.7087,1.5 355.1221,1.5 355.5356,1.5 355.9489,1.5 356.3624,1.5 356.7758,1.5 357.1892,1.5 357.6026,1.5 358.016,1.5 358.4294,1.5 358.8429,1.5 359.2563,1.5 359.6697,1.5 360.0831,1.5 360.4965,1.5 360.9099,1.5 361.3233,1.5 361.7367,1.5 362.1501,1.5 362.5635,1.5 362.977,1.5 363.3904,1.5 363.8038,1.5 364.2172,1.5 364.6306,1.5 365.044,1.5 365.4575,1.5 365.8709,1.5 366.2843,1.5 366.6977,1.5 367.1111,1.5 367.5245,1.5 367.9379,1.5 368.3513,1.5 368.7648,1.5 369.1782,1.5 369.5916,1.5 370.005,1.5 370.4184,1.5 370.8318,1.5 371.2452,1.5 371.6587,1.5 372.0721,1.5 372.4855,1.5 372.8989,1.5 373.3123,1.5 373.7257,1.5 374.1392,1.5 374.5526,1.5 374.966,1.5 375.3794,1.5 375.7928,1.5 376.2062,1.5 376.6196,1.5 377.033,1.5 377.4464,1.5 377.8599,1.5 378.2733,1.5 378.6867,1.5 379.1001,1.5 379.5135,1.5 379.9269,1.5 380.3403,1.5 380.7538,1.5 381.1672,1.5 381.5806,1.5 381.994,1.5 382.4074,1.5 382.8208,1.5 383.2342,1.5 383.6476,1.5 384.0611,1.5 384.4745,1.5 384.8879,1.5 385.3013,1.5 385.7147,1.5 386.1281,1.5 386.5415,1.5 386.955,1.5 387.3684,1.5 387.7818,1.5 388.1952,1.5 388.6086,1.5 389.022,1.5 389.4355,1.5 389.8489,1.5 390.2623,1.5 390.6757,1.5 391.0891,1.5 391.5025,1.5 391.9159,1.5 392.3293,1.5 392.7427,1.5 393.1562,1.5 393.5695,1.5 393.983,1.5 394.3964,1.5 394.8098,1.5 395.2232,1.5 395.6366,1.5 396.05,1.5 396.4635,1.5 396.8769,1.5 397.2903,1.5 397.7037,1.5 398.1171,1.5 398.5305,1.5 398.9439,1.5 399.3574,1.5 399.7708,1.5 400.1842,1.5 400.5976,1.5 401.011,1.5 401.4244,1.5 401.8379,1.5 402.2513,1.5 402.6647,1.5 403.0781,1.5 403.4915,1.5 403.9049,1.5 404.3183,1.5 404.7318,1.5 405.1451,1.5 405.5586,1.5 405.972,1.5 406.3854,1.5 406.7988,1.5 407.2122,1.5 407.6256,1.5 408.039,1.5 408.4525,1.5 408.8658,1.5 409.2793,1.5 409.6927,1.5 410.1061,1.5 410.5195,1.5 410.9329,1.5 411.3463,1.5 411.7598,1.5 412.1732,1.5 412.5866,1.5 413,1.5 " />
<polygon fill="url(#grad0)" stroke="none" points="0,337.5 0,253.5 0,253.5 0.413414,252.9114 0.826828,252.3228 1.240238,251.7342 1.653652,251.1456 2.067066,250.5571 2.48048,249.9685 2.89389,249.3799 3.307304,248.7913 3.720718,248.2027 4.134132,247.6141 4.547546,247.0255 4.960957,246.437 5.374374,245.8484 5.787781,245.2598 6.201202,244.6712 6.614616,244.0826 7.02803,243.494 7.441444,242.9054 7.854858,242.3168 8.268272,241.7282 8.681686,241.1396 9.0951,240.5511 9.508507,239.9625 9.921921,239.3739 10.33533,238.7853 10.74875,238.1967 11.16216,237.6081 11.57558,237.0195 11.98899,236.4309 12.4024,235.8423 12.81582,235.2538 13.22923,234.6652 13.64264,234.0766 14.05605,233.488 14.46947,232.8994 14.88288,232.3108 15.2963,231.7222 15.70971,231.1336 16.12312,230.545 16.53654,229.9565 16.94994,229.3679 17.36336,228.7793 17.77678,228.1907 18.19019,227.6021 18.60361,227.0135 19.01702,226.4249 19.43044,225.8363 19.84385,225.2477 20.25726,224.6591 20.67067,224.0706 21.08408,223.482 21.4975,222.8934 21.91091,222.3048 22.32433,221.7162 22.73774,221.1276 23.15115,220.539 23.56457,219.9504 23.97798,219.3619 24.39139,218.7733 24.8048,218.1847 25.21822,217.5961 25.63163,217.0075 26.04504,216.4189 26.45846,215.8303 26.87187,215.2417 27.28529,214.6532 27.6987,214.0646 28.11211,213.476 28.52552,212.8874 28.93893,212.2988 29.35235,211.7102 29.76577,211.1216 30.17918,210.533 30.5926,209.9444 31.00601,209.3559 31.41942,208.7673 31.83283,208.1787 32.24625,207.5901 32.65966,207.0015 33.07307,206.4129 33.48649,205.8243 33.8999,205.2357 34.31332,204.6471 34.72673,204.0586 35.14014,203.47 35.55355,202.8814 35.96696,202.2928 36.38038,201.7042 36.79379,201.1156 37.20721,200.527 37.62062,199.9384 38.03403,199.3499 38.44745,198.7613 38.86086,198.1727 39.27427,197.5841 39.68768,196.9955 40.1011,196.4069 40.51451,195.8183 40.92793,195.2297 41.34135,194.6411 41.75476,194.0526 42.16817,193.464 42.58158,192.8754 42.995,192.2868 43.40841,191.6982 43.82182,191.1096 44.23524,190.521 44.64865,189.9324 45.06207,189.3438 45.47548,188.7552 45.88889,188.1667 46.3023,187.5781 46.71571,186.9895 47.12913,186.4009 47.54254,185.8123 47.95596,185.2237 48.36937,184.6351 48.78278,184.0466 49.1962,183.458 49.60961,182.8694 50.02302,182.2808 50.43643,181.6922 50.84985,181.1036 51.26326,180.515 51.67667,179.9264 52.09009,179.3378 52.5035,178.7493 52.91692,178.1607 53.33034,177.5721 53.74374,176.9835 54.15716,176.3949 54.57057,175.8063 54.98399,175.2177 55.3974,174.6291 55.81081,174.0405 56.22423,173.452 56.63764,172.8634 57.05106,172.2748 57.46446,171.6862 57.87788,171.0976 58.29129,170.509 58.7047,169.9204 59.11812,169.3318 59.53154,168.7432 59.94495,168.1547 60.35837,167.5661 60.77177,166.9775 61.18519,166.3889 61.59859,165.8003 62.01202,165.2117 62.42542,164.6231 62.83884,164.0345 63.25225,163.446 63.66567,162.8573 64.07908,162.2688 64.49249,161.6802 64.9059,161.0916 65.31932,160.503 65.73273,159.9144 66.14615,159.3258 66.55956,158.7372 66.97298,158.1487 67.38638,157.5601 67.7998,156.9715 68.21321,156.3829 68.62663,155.7943 69.04004,155.2057 69.45346,154.6171 69.86687,154.0285 70.28027,153.4399 70.69368,152.8514 71.1071,152.2628 71.52052,151.6742 71.93393,151.0856 72.34735,150.497 72.76076,149.9084 73.17418,149.3198 73.58759,148.7312 74.00101,148.1426 74.41441,147.5541 74.82784,146.9655 75.24124,146.3769 75.65466,145.7883 76.06807,145.1997 76.48149,144.6111 76.8949,144.0225 77.30832,143.4339 77.72171,142.8454 78.13513,142.2568 78.54854,141.6682 78.96196,141.0796 79.37537,140.491 79.78879,139.9024 80.20219,139.3138 80.61562,138.7252 81.02902,138.1366 81.44244,137.548 81.85585,136.9595 82.26927,136.3709 82.68269,135.7823 83.0961,135.1937 83.50952,134.6051 83.92293,134.0165 84.33635,133.4279 84.74976,132.8393 85.16316,132.2507 85.57657,131.6622 85.98999,131.0736 86.4034,130.485 86.81682,129.8964 87.23022,129.3078 87.64365,128.7192 88.05705,128.1306 88.47047,127.542 88.88388,126.9535 89.2973,126.3649 89.71071,125.7763 90.12413,125.1877 90.53754,124.5991 90.95096,124.0105 91.36436,123.4219 91.77779,122.8333 92.19119,122.2448 92.6046,121.6562 93.01801,121.0676 93.43143,120.479 93.84483,119.8904 94.25826,119.3018 94.67168,118.7132 95.08508,118.1246 95.4985,117.536 95.91191,116.9474 96.32533,116.3589 96.73874,115.7703 97.15216,115.1817 97.56557,114.5931 97.97899,114.0045 98.3924,113.4159 98.80582,112.8273 99.21922,112.2387 99.63263,111.6501 100.046,111.0616 100.4595,110.473 100.8729,109.8844 101.2863,109.2958 101.6997,108.7072 102.1131,108.1186 102.5265,107.53 102.9399,106.9414 103.3533,106.3529 103.7668,105.7643 104.1802,105.1757 104.5936,104.5871 105.007,103.9985 105.4204,103.4099 105.8338,102.8213 106.2473,102.2327 106.6607,101.6441 107.0741,101.0556 107.4875,100.467 107.9009,99.87839 108.3143,99.28978 108.7277,98.7012 109.1411,98.11261 109.5546,97.52403 109.968,96.93542 110.3814,96.34685 110.7948,95.75826 111.2082,95.16968 111.6216,94.58107 112.035,93.99249 112.4485,93.4039 112.8619,92.81532 113.2753,92.22672 113.6887,91.63814 114.1021,91.04955 114.5155,90.46097 114.9289,89.87238 115.3423,89.2838 115.7558,88.69519 116.1692,88.10661 116.5826,87.51802 116.996,86.92944 117.4094,86.34084 117.8228,85.75226 118.2362,85.16367 118.6497,84.57507 119.0631,83.98648 119.4765,83.39789 119.8899,82.80931 120.3033,82.22072 120.7167,81.63214 121.1301,81.04355 121.5435,80.45496 121.957,79.86636 122.3704,79.27777 122.7838,78.68918 123.1972,78.10062 123.6106,77.51199 124.024,76.92343 124.4374,76.33484 124.8508,75.74625 125.2643,75.15765 125.6777,74.56906 126.0911,73.98047 126.5045,73.39191 126.9179,72.80331 127.3313,72.21472 127.7448,71.62613 128.1582,71.03754 128.5716,70.44894 128.985,69.86038 129.3984,69.27176 129.8118,68.68317 130.2252,68.0946 130.6386,67.50598 131.052,66.91742 131.4655,66.32883 131.8789,65.74023 132.2923,65.15164 132.7057,64.56308 133.1191,63.97446 133.5325,63.38589 133.946,62.7973 134.3594,62.20871 134.7728,61.62012 135.1862,61.03152 135.5996,60.44293 136.013,59.85437 136.4264,59.26575 136.8398,58.67719 137.2533,58.08859 137.6667,57.5 138.0801,56.91141 138.4935,56.32281 138.9069,55.73422 139.3203,55.14566 139.7337,54.55707 140.1471,53.96848 140.5606,53.37988 140.974,52.79129 141.3874,52.2027 141.8008,51.61411 142.2142,51.02551 142.6276,50.43692 143.041,49.84836 143.4545,49.25977 143.8679,48.67117 144.2813,48.08258 144.6947,47.49399 145.1081,46.9054 145.5215,46.31683 145.9349,45.72821 146.3483,45.13965 146.7618,44.55106 147.1752,43.96246 147.5886,43.37387 148.002,42.78528 148.4154,42.19669 148.8288,41.60812 149.2422,41.01953 149.6557,40.43094 150.0691,39.84235 150.4825,39.25375 150.8959,38.66516 151.3093,38.0766 151.7227,37.48798 152.1361,36.89941 152.5495,36.31082 152.963,35.72223 153.3764,35.13364 153.7898,34.54504 154.2032,33.95645 154.6166,33.36786 155.03,32.77927 155.4435,32.19067 155.8569,31.60211 156.2703,31.01352 156.6837,30.42493 157.0971,29.83633 157.5105,29.24774 157.9239,28.65915 158.3373,28.07059 158.7507,27.48196 159.1642,26.8934 159.5776,26.30481 159.991,25.71622 160.4044,25.12762 160.8178,24.53903 161.2312,23.95044 161.6446,23.36188 162.0581,22.77328 162.4715,22.18469 162.8849,21.5961 163.2983,21.00751 163.7117,20.41891 164.1251,19.83035 164.5385,19.24173 164.952,18.65317 165.3654,18.06458 165.7788,17.47595 166.1922,16.88739 166.6056,16.2988 167.019,15.71021 167.4324,15.12161 167.8458,14.53302 168.2593,13.94443 168.6727,13.35587 169.0861,12.76727 169.4995,12.17868 169.9129,11.59009 170.3263,11.0015 170.7397,10.4129 171.1532,9.824341 171.5666,9.235718 171.98,8.647156 172.3934,8.058563 172.8068,7.469971 173.2202,6.881378 173.6336,6.292786 174.047,5.704193 174.4604,5.115631 174.8739,4.527039 175.2873,3.938446 175.7007,3.349854 176.1141,2.761261 176.5275,2.172668 176.9409,1.584106 177.3544,1.5 177.7678,1.5 178.1812,1.5 178.5946,1.5 179.008,1.5 179.4214,1.5 179.8348,1.5 180.2483,1.5 180.6617,1.5 181.0751,1.5 181.4885,1.5 181.9019,1.5 182.3153,1.5 182.7287,1.5 183.1421,1.5 183.5556,1.5 183.969,1.5 184.3824,1.5 184.7958,1.5 185.2092,1.5 185.6226,1.5 186.036,1.5 186.4494,1.5 186.8629,1.5 187.2763,1.5 187.6897,1.5 188.1031,1.5 188.5165,1.5 188.9299,1.5 189.3434,1.5 189.7567,1.5 190.1702,1.5 190.5836,1.5 190.997,1.5 191.4104,1.5 191.8238,1.5 192.2372,1.5 192.6507,1.5 193.0641,1.5 193.4775,1.5 193.8909,1.5 194.3043,1.5 194.7177,1.5 195.1311,1.5 195.5445,1.5 195.958,1.5 196.3714,1.5 196.7848,1.5 197.1982,1.5 197.6116,1.5 198.025,1.5 198.4384,1.5 198.8519,1.5 199.2653,1.5 199.6786,1.5 200.0921,1.5 200.5055,1.5 200.9189,1.5 201.3323,1.5 201.7457,1.5 202.1591,1.5 202.5726,1.5 202.986,1.5 203.3994,1.5 203.8128,1.5 204.2262,1.5 204.6396,1.5 205.053,1.5 205.4665,1.5 205.8799,1.5 206.2933,1.5 206.7067,1.5 207.1201,1.5 207.5335,1.5 207.947,1.5 208.3604,1.5 208.7738,1.5 209.1872,1.5 209.6006,1.5 210.014,1.5 210.4274,1.5 210.8409,1.5 211.2543,1.5 211.6677,1.5 212.0811,1.5 212.4945,1.5 212.9079,1.5 213.3214,1.5 213.7347,1.5 214.1481,1.5 214.5616,1.5 214.975,1.5 215.3884,1.5 215.8018,1.5 216.2152,1.5 216.6286,1.5 217.042,1.5 217.4554,1.5 217.8689,1.5 218.2823,1.5 218.6957,1.5 219.1091,1.5 219.5225,1.5 219.9359,1.5 220.3493,1.5 220.7628,1.5 221.1762,1.5 221.5896,1.5 222.003,1.5 222.4164,1.5 222.8298,1.5 223.2433,1.5 223.6566,1.5 224.0701,1.5 224.4835,1.5 224.8969,1.5 225.3103,1.5 225.7237,1.5 226.1371,1.5 226.5506,1.5 226.964,1.5 227.3774,1.5 227.7908,1.5 228.2042,1.5 228.6176,1.5 229.031,1.5 229.4444,1.5 229.8578,1.5 230.2713,1.5 230.6847,1.5 231.0981,1.5 231.5115,1.5 231.9249,1.5 232.3383,1.5 232.7517,1.5 233.1652,1.5 233.5786,1.5 233.992,1.5 234.4054,1.5 234.8188,1.5 235.2322,1.5 235.6456,1.5 236.0591,1.5 236.4725,1.5 236.8859,1.5 237.2993,1.5 237.7127,1.5 238.1261,1.5 238.5396,1.5 238.953,1.5 239.3664,1.5 239.7798,1.5 240.1932,1.5 240.6066,1.5 241.02,1.5 241.4334,1.5 241.8469,1.5 242.2603,1.5 242.6737,1.5 243.0871,1.5 243.5005,1.5 243.9139,1.5 244.3273,1.5 244.7407,1.5 245.1541,1.5 245.5676,1.5 245.981,1.5 246.3944,1.5 246.8078,1.5 247.2212,1.5 247.6346,1.5 248.048,1.5 248.4615,1.5 248.8749,1.5 249.2883,1.5 249.7017,1.5 250.1151,1.5 250.5285,1.5 250.942,1.5 251.3553,1.5 251.7688,1.5 252.1822,1.5 252.5956,1.5 253.009,1.5 253.4224,1.5 253.8358,1.5 254.2493,1.5 254.6627,1.5 255.0761,1.5 255.4895,1.5 255.9029,1.5 256.3163,1.5 256.7297,1.5 257.1432,1.5 257.5566,1.5 257.97,1.5 258.3834,1.5 258.7968,1.5 259.2102,1.5 259.6236,1.5 260.037,1.5 260.4504,1.5 260.8639,1.5 261.2773,1.5 261.6907,1.5 262.1041,1.5 262.5175,1.5 262.9309,1.5 263.3443,1.5 263.7578,1.5 264.1712,1.5 264.5846,1.5 264.998,1.5 265.4114,1.5 265.8248,1.5 266.2383,1.5 266.6516,1.5 267.0651,1.5 267.4785,1.5 267.8919,1.5 268.3053,1.5 268.7187,1.5 269.1321,1.5 269.5456,1.5 269.959,1.5 270.3724,1.5 270.7858,1.5 271.1992,1.5 271.6126,1.5 272.026,1.5 272.4395,1.5 272.8528,1.5 273.2663,1.5 273.6797,1.5 274.0931,1.5 274.5065,1.5 274.9199,1.5 275.3333,1.5 275.7467,1.5 276.1602,1.5 276.5736,1.5 276.987,1.5 277.4004,1.5 277.8138,1.5 278.2272,1.5 278.6406,1.5 279.054,1.5 279.4675,1.5 279.8809,1.5 280.2943,1.5 280.7077,1.5 281.1211,1.5 281.5345,1.5 281.9479,1.5 282.3614,1.5 282.7748,1.5 283.1882,1.5 283.6016,1.5 284.015,1.5 284.4284,1.5 284.8419,1.5 285.2553,1.5 285.6687,1.5 286.0821,1.5 286.4955,1.5 286.9089,1.5 287.3223,1.5 287.7357,1.5 288.1491,1.5 288.5626,1.5 288.976,1.5 289.3894,1.5 289.8028,1.5 290.2162,1.5 290.6296,1.5 291.043,1.5 291.4565,1.5 291.8699,1.5 292.2833,1.5 292.6967,1.5 293.1101,1.5 293.5235,1.5 293.9369,1.5 294.3503,1.5 294.7638,1.5 295.1772,1.5 295.5906,1.5 296.004,1.5 296.4174,1.5 296.8308,1.5 297.2443,1.5 297.6577,1.5 298.0711,1.5 298.4845,1.5 298.8979,1.5 299.3113,1.5 299.7247,1.5 300.1382,1.5 300.5516,1.5 300.965,1.5 301.3784,1.5 301.7918,1.5 302.2052,1.5 302.6186,1.5 303.032,1.5 303.4454,1.5 303.8589,1.5 304.2722,1.5 304.6857,1.5 305.0991,1.5 305.5125,1.5 305.9259,1.5 306.3393,1.5 306.7527,1.5 307.1662,1.5 307.5796,1.5 307.993,1.5 308.4064,1.5 308.8198,1.5 309.2332,1.5 309.6466,1.5 310.0601,1.5 310.4735,1.5 310.8869,1.5 311.3003,1.5 311.7137,1.5 312.1271,1.5 312.5406,1.5 312.9539,1.5 313.3674,1.5 313.7808,1.5 314.1942,1.5 314.6076,1.5 315.021,1.5 315.4344,1.5 315.8479,1.5 316.2613,1.5 316.6747,1.5 317.0881,1.5 317.5015,1.5 317.9149,1.5 318.3283,1.5 318.7417,1.5 319.1552,1.5 319.5686,1.5 319.982,1.5 320.3954,1.5 320.8088,1.5 321.2222,1.5 321.6356,1.5 322.049,1.5 322.4625,1.5 322.8759,1.5 323.2893,1.5 323.7027,1.5 324.1161,1.5 324.5295,1.5 324.9429,1.5 325.3564,1.5 325.7698,1.5 326.1832,1.5 326.5966,1.5 327.01,1.5 327.4234,1.5 327.8369,1.5 328.2502,1.5 328.6637,1.5 329.0771,1.5 329.4905,1.5 329.9039,1.5 330.3173,1.5 330.7307,1.5 331.1442,1.5 331.5576,1.5 331.971,1.5 332.3844,1.5 332.7978,1.5 333.2112,1.5 333.6246,1.5 334.038,1.5 334.4514,1.5 334.8649,1.5 335.2783,1.5 335.6917,1.5 336.1051,1.5 336.5185,1.5 336.9319,1.5 337.3453,1.5 337.7588,1.5 338.1722,1.5 338.5856,1.5 338.999,1.5 339.4124,1.5 339.8258,1.5 340.2392,1.5 340.6526,1.5 341.0661,1.5 341.4795,1.5 341.8929,1.5 342.3063,1.5 342.7197,1.5 343.1331,1.5 343.5466,1.5 343.96,1.5 344.3734,1.5 344.7868,1.5 345.2002,1.5 345.6136,1.5 346.027,1.5 346.4404,1.5 346.8539,1.5 347.2672,1.5 347.6807,1.5 348.0941,1.5 348.5075,1.5 348.9209,1.5 349.3343,1.5 349.7477,1.5 350.1612,1.5 350.5746,1.5 350.988,1.5 351.4014,1.5 351.8148,1.5 352.2282,1.5 352.6416,1.5 353.0551,1.5 353.4685,1.5 353.8819,1.5 354.2953,1.5 354.7087,1.5 355.1221,1.5 355.5356,1.5 355.9489,1.5 356.3624,1.5 356.7758,1.5 357.1892,1.5 357.6026,1.5 358.016,1.5 358.4294,1.5 358.8429,1.5 359.2563,1.5 359.6697,1.5 360.0831,1.5 360.4965,1.5 360.9099,1.5 361.3233,1.5 361.7367,1.5 362.1501,1.5 362.5635,1.5 362.977,1.5 363.3904,1.5 363.8038,1.5 364.2172,1.5 364.6306,1.5 365.044,1.5 365.4575,1.5 365.8709,1.5 366.2843,1.5 366.6977,1.5 367.1111,1.5 367.5245,1.5 367.9379,1.5 368.3513,1.5 368.7648,1.5 369.1782,1.5 369.5916,1.5 370.005,1.5 370.4184,1.5 370.8318,1.5 371.2452,1.5 371.6587,1.5 372.0721,1.5 372.4855,1.5 372.8989,1.5 373.3123,1.5 373.7257,1.5 374.1392,1.5 374.5526,1.5 374.966,1.5 375.3794,1.5 375.7928,1.5 376.2062,1.5 376.6196,1.5 377.033,1.5 377.4464,1.5 377.8599,1.5 378.2733,1.5 378.6867,1.5 379.1001,1.5 379.5135,1.5 379.9269,1.5 380.3403,1.5 380.7538,1.5 381.1672,1.5 381.5806,1.5 381.994,1.5 382.4074,1.5 382.8208,1.5 383.2342,1.5 383.6476,1.5 384.0611,1.5 384.4745,1.5 384.8879,1.5 385.3013,1.5 385.7147,1.5 386.1281,1.5 386.5415,1.5 386.955,1.5 387.3684,1.5 387.7818,1.5 388.1952,1.5 388.6086,1.5 389.022,1.5 389.4355,1.5 389.8489,1.5 390.2623,1.5 390.6757,1.5 391.0891,1.5 391.5025,1.5 391.9159,1.5 392.3293,1.5 392.7427,1.5 393.1562,1.5 393.5695,1.5 393.983,1.5 394.3964,1.5 394.8098,1.5 395.2232,1.5 395.6366,1.5 396.05,1.5 396.4635,1.5 396.8769,1.5 397.2903,1.5 397.7037,1.5 398.1171,1.5 398.5305,1.5 398.9439,1.5 399.3574,1.5 399.7708,1.5 400.1842,1.5 400.5976,1.5 401.011,1.5 401.4244,1.5 401.8379,1.5 402.2513,1.5 402.6647,1.5 403.0781,1.5 403.4915,1.5 403.9049,1.5 404.3183,1.5 404.7318,1.5 405.1451,1.5 405.5586,1.5 405.972,1.5 406.3854,1.5 406.7988,1.5 407.2122,1.5 407.6256,1.5 408.039,1.5 408.4525,1.5 408.8658,1.5 409.2793,1.5 409.6927,1.5 410.1061,1.5 410.5195,1.5 410.9329,1.5 411.3463,1.5 411.7598,1.5 412.1732,1.5 412.5866,1.5 413,1.5 413,337.5 " />
</g>
<defs>
<linearGradient id="grad0" x1="-14.28572%" y1="0%" x2="-14.28572%" y2="200%">
<stop offset="0%" stop-color="#1472F0" stop-opacity="0.1882353" />
<stop offset="50%" stop-color="#1472F0" stop-opacity="0.02352941" />
<stop offset="100%" stop-color="#1472F0" stop-opacity="0.1882353" />
</linearGradient>
</defs>
</svg>
